URWGothicL-DemiObli.ufo
<glyph name="exclam" format="1">
  <advance width="280"/>
  <unicode hex="0021"/>
  <outline>
    <contour>
      <point x="107" y="188" type="line"/>
      <point x="240" y="188" type="line"/>
      <point x="342" y="739" type="line"/>
      <point x="209" y="739" type="line"/>
    </contour>
    <contour>
      <point x="72" y="0" type="line"/>
      <point x="205" y="0" type="line"/>
      <point x="229" y="128" type="line"/>
      <point x="96" y="128" type="line"/>
    </contour>
  </outline>
</glyph>
<glyph name="quotedbl" format="1">
  <advance width="360"/>
  <unicode hex="0022"/>
  <outline>
    <contour>
      <point x="245" y="513" type="line"/>
      <point x="287" y="739" type="line"/>
      <point x="211" y="739" type="line"/>
      <point x="169" y="513" type="line"/>
    </contour>
    <contour>
      <point x="378" y="513" type="line"/>
      <point x="420" y="739" type="line"/>
      <point x="344" y="739" type="line"/>
      <point x="302" y="513" type="line"/>
    </contour>
  </outline>
</glyph>
<glyph name="numbersign" format="1">
  <advance width="560"/>
  <unicode hex="0023"/>
  <outline>
    <contour>
      <point x="338" y="739" type="line"/>
      <point x="268" y="522" type="line"/>
      <point x="159" y="522" type="line"/>
      <point x="141" y="422" type="line"/>
      <point x="236" y="422" type="line"/>
      <point x="207" y="333" type="line"/>
      <point x="96" y="333" type="line"/>
      <point x="77" y="233" type="line"/>
      <point x="176" y="233" type="line"/>
      <point x="101" y="0" type="line"/>
      <point x="192" y="0" type="line"/>
      <point x="267" y="233" type="line"/>
      <point x="351" y="233" type="line"/>
      <point x="275" y="0" type="line"/>
      <point x="366" y="0" type="line"/>
      <point x="441" y="233" type="line"/>
      <point x="543" y="233" type="line"/>
      <point x="562" y="333" type="line"/>
      <point x="474" y="333" type="line"/>
      <point x="502" y="422" type="line"/>
      <point x="605" y="422" type="line"/>
      <point x="623" y="522" type="line"/>
      <point x="533" y="522" type="line"/>
      <point x="602" y="739" type="line"/>
      <point x="513" y="739" type="line"/>
      <point x="443" y="522" type="line"/>
      <point x="359" y="522" type="line"/>
      <point x="429" y="739" type="line"/>
    </contour>
    <contour>
      <point x="327" y="422" type="line"/>
      <point x="411" y="422" type="line"/>
      <point x="383" y="333" type="line"/>
      <point x="298" y="333" type="line"/>
    </contour>
  </outline>
</glyph>
<glyph name="dollar" format="1">
  <advance width="560"/>
  <unicode hex="0024"/>
  <outline>
    <contour>
      <point x="105" y="249" type="line"/>
      <point x="101" y="231"/>
      <point x="100" y="221"/>
      <point x="100" y="207" type="curve" smooth="yes"/>
      <point x="100" y="128"/>
      <point x="147" y="68"/>
      <point x="228" y="46" type="curve"/>
      <point x="204" y="-86" type="line"/>
      <point x="331" y="-86" type="line"/>
      <point x="355" y="46" type="line"/>
      <point x="410" y="63"/>
      <point x="447" y="86"/>
      <point x="480" y="124" type="curve" smooth="yes"/>
      <point x="520" y="169"/>
      <point x="545" y="241"/>
      <point x="545" y="308" type="curve" smooth="yes"/>
      <point x="545" y="367"/>
      <point x="515" y="410"/>
      <point x="457" y="433" type="curve" smooth="yes"/>
      <point x="367" y="469"/>
      <point x="356" y="474"/>
      <point x="339" y="489" type="curve" smooth="yes"/>
      <point x="328" y="499"/>
      <point x="321" y="516"/>
      <point x="321" y="535" type="curve" smooth="yes"/>
      <point x="321" y="578"/>
      <point x="354" y="613"/>
      <point x="395" y="613" type="curve" smooth="yes"/>
      <point x="427" y="613"/>
      <point x="446" y="589"/>
      <point x="446" y="551" type="curve"/>
      <point x="572" y="551" type="line"/>
      <point x="574" y="567"/>
      <point x="575" y="580"/>
      <point x="575" y="589" type="curve" smooth="yes"/>
      <point x="575" y="623"/>
      <point x="561" y="661"/>
      <point x="539" y="688" type="curve" smooth="yes"/>
      <point x="523" y="707"/>
      <point x="508" y="716"/>
      <point x="481" y="723" type="curve"/>
      <point x="505" y="856" type="line"/>
      <point x="378" y="856" type="line"/>
      <point x="354" y="723" type="line"/>
      <point x="305" y="712"/>
      <point x="277" y="696"/>
      <point x="247" y="661" type="curve" smooth="yes"/>
      <point x="206" y="616"/>
      <point x="184" y="557"/>
      <point x="184" y="498" type="curve" smooth="yes"/>
      <point x="184" y="432"/>
      <point x="216" y="388"/>
      <point x="284" y="361" type="curve" smooth="yes"/>
      <point x="363" y="329"/>
      <point x="363" y="329"/>
      <point x="380" y="316" type="curve" smooth="yes"/>
      <point x="402" y="298"/>
      <point x="408" y="288"/>
      <point x="408" y="265" type="curve" smooth="yes"/>
      <point x="408" y="209"/>
      <point x="361" y="163"/>
      <point x="305" y="163" type="curve" smooth="yes"/>
      <point x="268" y="163"/>
      <point x="237" y="192"/>
      <point x="237" y="228" type="curve" smooth="yes"/>
      <point x="237" y="233"/>
      <point x="238" y="240"/>
      <point x="239" y="249" type="curve"/>
    </contour>
  </outline>
</glyph>
<glyph name="percent" format="1">
  <advance width="860"/>
  <unicode hex="0025"/>
  <outline>
    <contour>
      <point x="665" y="739" type="line"/>
      <point x="223" y="0" type="line"/>
      <point x="325" y="0" type="line"/>
      <point x="768" y="739" type="line"/>
    </contour>
    <contour>
      <point x="718" y="348" type="curve" smooth="yes"/>
      <point x="603" y="348"/>
      <point x="500" y="247"/>
      <point x="500" y="133" type="curve" smooth="yes"/>
      <point x="500" y="51"/>
      <point x="564" y="-13"/>
      <point x="647" y="-13" type="curve" smooth="yes"/>
      <point x="763" y="-13"/>
      <point x="868" y="88"/>
      <point x="868" y="201" type="curve" smooth="yes"/>
      <point x="868" y="285"/>
      <point x="804" y="348"/>
    </contour>
    <contour>
      <point x="697" y="242" type="curve" smooth="yes"/>
      <point x="732" y="242"/>
      <point x="760" y="215"/>
      <point x="760" y="183" type="curve" smooth="yes"/>
      <point x="760" y="137"/>
      <point x="716" y="94"/>
      <point x="669" y="94" type="curve" smooth="yes"/>
      <point x="634" y="94"/>
      <point x="608" y="120"/>
      <point x="608" y="154" type="curve" smooth="yes"/>
      <point x="608" y="200"/>
      <point x="650" y="242"/>
    </contour>
    <contour>
      <point x="342" y="752" type="curve" smooth="yes"/>
      <point x="229" y="752"/>
      <point x="124" y="651"/>
      <point x="124" y="540" type="curve" smooth="yes"/>
      <point x="124" y="454"/>
      <point x="187" y="391"/>
      <point x="272" y="391" type="curve" smooth="yes"/>
      <point x="387" y="391"/>
      <point x="492" y="493"/>
      <point x="492" y="605" type="curve" smooth="yes"/>
      <point x="492" y="689"/>
      <point x="428" y="752"/>
    </contour>
    <contour>
      <point x="321" y="646" type="curve" smooth="yes"/>
      <point x="357" y="646"/>
      <point x="384" y="620"/>
      <point x="384" y="585" type="curve" smooth="yes"/>
      <point x="384" y="541"/>
      <point x="340" y="498"/>
      <point x="295" y="498" type="curve" smooth="yes"/>
      <point x="257" y="498"/>
      <point x="232" y="523"/>
      <point x="232" y="562" type="curve" smooth="yes"/>
      <point x="232" y="604"/>
      <point x="277" y="646"/>
    </contour>
  </outline>
</glyph>
<glyph name="ampersand" format="1">
  <advance width="680"/>
  <unicode hex="0026"/>
  <outline>
    <contour>
      <point x="592" y="433" type="line"/>
      <point x="499" y="313" type="line"/>
      <point x="445" y="389" type="line"/>
      <point x="517" y="431"/>
      <point x="533" y="445"/>
      <point x="560" y="485" type="curve" smooth="yes"/>
      <point x="586" y="523"/>
      <point x="598" y="563"/>
      <point x="598" y="611" type="curve" smooth="yes"/>
      <point x="598" y="693"/>
      <point x="530" y="752"/>
      <point x="437" y="752" type="curve" smooth="yes"/>
      <point x="320" y="752"/>
      <point x="214" y="648"/>
      <point x="214" y="534" type="curve" smooth="yes"/>
      <point x="214" y="498"/>
      <point x="222" y="478"/>
      <point x="255" y="433" type="curve"/>
      <point x="197" y="403"/>
      <point x="157" y="374"/>
      <point x="128" y="338" type="curve" smooth="yes"/>
      <point x="93" y="295"/>
      <point x="71" y="235"/>
      <point x="71" y="179" type="curve" smooth="yes"/>
      <point x="71" y="66"/>
      <point x="155" y="-13"/>
      <point x="275" y="-13" type="curve" smooth="yes"/>
      <point x="354" y="-13"/>
      <point x="405" y="14"/>
      <point x="483" y="98" type="curve"/>
      <point x="567" y="-13" type="line"/>
      <point x="678" y="72" type="line"/>
      <point x="572" y="213" type="line"/>
      <point x="741" y="433" type="line"/>
    </contour>
    <contour>
      <point x="379" y="481" type="line"/>
      <point x="352" y="512"/>
      <point x="342" y="531"/>
      <point x="342" y="552" type="curve" smooth="yes"/>
      <point x="342" y="592"/>
      <point x="377" y="627"/>
      <point x="417" y="627" type="curve" smooth="yes"/>
      <point x="446" y="627"/>
      <point x="468" y="608"/>
      <point x="468" y="584" type="curve" smooth="yes"/>
      <point x="468" y="550"/>
      <point x="457" y="530"/>
      <point x="429" y="509" type="curve" smooth="yes"/>
      <point x="415" y="499"/>
      <point x="402" y="491"/>
      <point x="387" y="485" type="curve"/>
    </contour>
    <contour>
      <point x="409" y="198" type="line"/>
      <point x="372" y="144"/>
      <point x="335" y="119"/>
      <point x="290" y="119" type="curve" smooth="yes"/>
      <point x="238" y="119"/>
      <point x="205" y="150"/>
      <point x="205" y="198" type="curve" smooth="yes"/>
      <point x="205" y="227"/>
      <point x="215" y="249"/>
      <point x="240" y="275" type="curve" smooth="yes"/>
      <point x="260" y="296"/>
      <point x="271" y="302"/>
      <point x="317" y="322" type="curve"/>
    </contour>
  </outline>
</glyph>
<glyph name="quotesingle" format="1">
  <advance width="220"/>
  <unicode hex="0027"/>
  <outline>
    <contour>
      <point x="245" y="513" type="line"/>
      <point x="287" y="739" type="line"/>
      <point x="211" y="739" type="line"/>
      <point x="169" y="513" type="line"/>
    </contour>
  </outline>
</glyph>
<glyph name="parenleft" format="1">
  <advance width="380"/>
  <unicode hex="0028"/>
  <outline>
    <contour>
      <point x="350" y="8" type="line"/>
      <point x="296" y="47"/>
      <point x="259" y="138"/>
      <point x="259" y="229" type="curve" smooth="yes"/>
      <point x="259" y="373"/>
      <point x="331" y="504"/>
      <point x="459" y="595" type="curve"/>
      <point x="486" y="739" type="line"/>
      <point x="402" y="705"/>
      <point x="358" y="677"/>
      <point x="304" y="623" type="curve" smooth="yes"/>
      <point x="195" y="516"/>
      <point x="122" y="351"/>
      <point x="122" y="212" type="curve" smooth="yes"/>
      <point x="122" y="124"/>
      <point x="152" y="23"/>
      <point x="196" y="-38" type="curve" smooth="yes"/>
      <point x="235" y="-91"/>
      <point x="271" y="-119"/>
      <point x="323" y="-137" type="curve"/>
    </contour>
  </outline>
</glyph>
<glyph name="parenright" format="1">
  <advance width="380"/>
  <unicode hex="0029"/>
  <outline>
    <contour>
      <point x="148" y="594" type="line"/>
      <point x="201" y="556"/>
      <point x="240" y="462"/>
      <point x="240" y="376" type="curve" smooth="yes"/>
      <point x="240" y="232"/>
      <point x="166" y="96"/>
      <point x="40" y="7" type="curve"/>
      <point x="13" y="-137" type="line"/>
      <point x="89" y="-106"/>
      <point x="140" y="-74"/>
      <point x="195" y="-21" type="curve" smooth="yes"/>
      <point x="308" y="88"/>
      <point x="377" y="246"/>
      <point x="377" y="395" type="curve" smooth="yes"/>
      <point x="377" y="485"/>
      <point x="350" y="572"/>
      <point x="303" y="639" type="curve" smooth="yes"/>
      <point x="264" y="694"/>
      <point x="230" y="720"/>
      <point x="175" y="739" type="curve"/>
    </contour>
  </outline>
</glyph>
<glyph name="asterisk" format="1">
  <advance width="440"/>
  <unicode hex="002A"/>
  <outline>
    <contour>
      <point x="250" y="719" type="line"/>
      <point x="287" y="623" type="line"/>
      <point x="189" y="646" type="line"/>
      <point x="176" y="575" type="line"/>
      <point x="276" y="564" type="line"/>
      <point x="206" y="484" type="line"/>
      <point x="264" y="442" type="line"/>
      <point x="324" y="521" type="line"/>
      <point x="354" y="425" type="line"/>
      <point x="419" y="452" type="line"/>
      <point x="381" y="543" type="line"/>
      <point x="477" y="521" type="line"/>
      <point x="490" y="591" type="line"/>
      <point x="392" y="603" type="line"/>
      <point x="461" y="676" type="line"/>
      <point x="407" y="723" type="line"/>
      <point x="347" y="646" type="line"/>
      <point x="319" y="739" type="line"/>
    </contour>
  </outline>
</glyph>
<glyph name="plus" format="1">
  <advance width="600"/>
  <unicode hex="002B"/>
  <outline>
    <contour>
      <point x="309" y="430" type="line"/>
      <point x="122" y="430" type="line"/>
      <point x="100" y="312" type="line"/>
      <point x="287" y="312" type="line"/>
      <point x="253" y="129" type="line"/>
      <point x="377" y="129" type="line"/>
      <point x="411" y="312" type="line"/>
      <point x="603" y="312" type="line"/>
      <point x="625" y="430" type="line"/>
      <point x="433" y="430" type="line"/>
      <point x="466" y="609" type="line"/>
      <point x="342" y="609" type="line"/>
    </contour>
  </outline>
</glyph>
<glyph name="hyphen" format="1">
  <advance width="420"/>
  <unicode hex="002D"/>
  <outline>
    <contour>
      <point x="122" y="229" type="line"/>
      <point x="399" y="229" type="line"/>
      <point x="421" y="347" type="line"/>
      <point x="144" y="347" type="line"/>
    </contour>
  </outline>
</glyph>
<glyph name="slash" format="1">
  <advance width="460"/>
  <unicode hex="002F"/>
  <outline>
    <contour>
      <point x="2" y="-128" type="line"/>
      <point x="97" y="-128" type="line"/>
      <point x="580" y="739" type="line"/>
      <point x="486" y="739" type="line"/>
    </contour>
  </outline>
</glyph>
<glyph name="zero" format="1">
  <advance width="560"/>
  <unicode hex="0030"/>
  <outline>
    <contour>
      <point x="617" y="505" type="line" smooth="yes"/>
      <point x="621" y="526"/>
      <point x="623" y="547"/>
      <point x="623" y="567" type="curve" smooth="yes"/>
      <point x="623" y="680"/>
      <point x="541" y="752"/>
      <point x="413" y="752" type="curve" smooth="yes"/>
      <point x="263" y="752"/>
      <point x="150" y="654"/>
      <point x="121" y="498" type="curve" smooth="yes"/>
      <point x="74" y="247" type="line" smooth="yes"/>
      <point x="70" y="226"/>
      <point x="68" y="205"/>
      <point x="68" y="185" type="curve" smooth="yes"/>
      <point x="68" y="61"/>
      <point x="147" y="-13"/>
      <point x="281" y="-13" type="curve" smooth="yes"/>
      <point x="365" y="-13"/>
      <point x="436" y="18"/>
      <point x="491" y="78" type="curve" smooth="yes"/>
      <point x="533" y="124"/>
      <point x="555" y="171"/>
      <point x="569" y="247" type="curve" smooth="yes"/>
    </contour>
    <contour>
      <point x="254" y="498" type="line" smooth="yes"/>
      <point x="269" y="580"/>
      <point x="322" y="630"/>
      <point x="393" y="630" type="curve" smooth="yes"/>
      <point x="452" y="630"/>
      <point x="487" y="597"/>
      <point x="487" y="540" type="curve" smooth="yes"/>
      <point x="487" y="526"/>
      <point x="486" y="512"/>
      <point x="483" y="498" type="curve" smooth="yes"/>
      <point x="436" y="247" type="line" smooth="yes"/>
      <point x="426" y="195"/>
      <point x="418" y="175"/>
      <point x="394" y="150" type="curve" smooth="yes"/>
      <point x="369" y="123"/>
      <point x="337" y="109"/>
      <point x="301" y="109" type="curve" smooth="yes"/>
      <point x="271" y="109"/>
      <point x="241" y="120"/>
      <point x="225" y="138" type="curve"/>
      <point x="211" y="152"/>
      <point x="204" y="176"/>
      <point x="204" y="207" type="curve" smooth="yes"/>
      <point x="204" y="222"/>
      <point x="205" y="237"/>
      <point x="208" y="251" type="curve" smooth="yes"/>
    </contour>
  </outline>
</glyph>
<glyph name="two" format="1">
  <advance width="560"/>
  <unicode hex="0032"/>
  <outline>
    <contour>
      <point x="42" y="0" type="line"/>
      <point x="517" y="0" type="line"/>
      <point x="540" y="125" type="line"/>
      <point x="249" y="125" type="line"/>
      <point x="426" y="262" type="line" smooth="yes"/>
      <point x="496" y="316"/>
      <point x="532" y="350"/>
      <point x="561" y="389" type="curve" smooth="yes"/>
      <point x="599" y="439"/>
      <point x="619" y="500"/>
      <point x="619" y="561" type="curve" smooth="yes"/>
      <point x="619" y="675"/>
      <point x="538" y="752"/>
      <point x="419" y="752" type="curve" smooth="yes"/>
      <point x="332" y="752"/>
      <point x="249" y="713"/>
      <point x="192" y="644" type="curve" smooth="yes"/>
      <point x="157" y="602"/>
      <point x="143" y="569"/>
      <point x="124" y="484" type="curve"/>
      <point x="255" y="484" type="line"/>
      <point x="279" y="580"/>
      <point x="328" y="630"/>
      <point x="398" y="630" type="curve" smooth="yes"/>
      <point x="448" y="630"/>
      <point x="482" y="593"/>
      <point x="482" y="538" type="curve" smooth="yes"/>
      <point x="482" y="481"/>
      <point x="449" y="430"/>
      <point x="370" y="366" type="curve" smooth="yes"/>
      <point x="64" y="117" type="line"/>
    </contour>
  </outline>
</glyph>
<glyph name="three" format="1">
  <advance width="560"/>
  <unicode hex="0033"/>
  <outline>
    <contour>
      <point x="283" y="356" type="line"/>
      <point x="306" y="356" type="line" smooth="yes"/>
      <point x="350" y="356"/>
      <point x="381" y="345"/>
      <point x="401" y="324" type="curve" smooth="yes"/>
      <point x="416" y="307"/>
      <point x="428" y="278"/>
      <point x="428" y="255" type="curve" smooth="yes"/>
      <point x="428" y="230"/>
      <point x="414" y="192"/>
      <point x="396" y="166" type="curve" smooth="yes"/>
      <point x="371" y="130"/>
      <point x="331" y="109"/>
      <point x="287" y="109" type="curve" smooth="yes"/>
      <point x="227" y="109"/>
      <point x="190" y="151"/>
      <point x="190" y="217" type="curve" smooth="yes"/>
      <point x="190" y="224" type="line"/>
      <point x="56" y="224" type="line"/>
      <point x="54" y="207"/>
      <point x="53" y="193"/>
      <point x="53" y="184" type="curve" smooth="yes"/>
      <point x="53" y="131"/>
      <point x="78" y="72"/>
      <point x="116" y="38" type="curve" smooth="yes"/>
      <point x="152" y="6"/>
      <point x="206" y="-13"/>
      <point x="264" y="-13" type="curve" smooth="yes"/>
      <point x="429" y="-13"/>
      <point x="565" y="122"/>
      <point x="565" y="286" type="curve" smooth="yes"/>
      <point x="565" y="352"/>
      <point x="541" y="393"/>
      <point x="482" y="426" type="curve"/>
      <point x="542" y="463"/>
      <point x="571" y="517"/>
      <point x="571" y="591" type="curve" smooth="yes"/>
      <point x="571" y="688"/>
      <point x="505" y="752"/>
      <point x="405" y="752" type="curve" smooth="yes"/>
      <point x="347" y="752"/>
      <point x="289" y="729"/>
      <point x="245" y="689" type="curve" smooth="yes"/>
      <point x="208" y="655"/>
      <point x="189" y="621"/>
      <point x="174" y="563" type="curve"/>
      <point x="309" y="563" type="line"/>
      <point x="320" y="606"/>
      <point x="347" y="630"/>
      <point x="384" y="630" type="curve" smooth="yes"/>
      <point x="415" y="630"/>
      <point x="434" y="609"/>
      <point x="434" y="575" type="curve" smooth="yes"/>
      <point x="434" y="543"/>
      <point x="417" y="514"/>
      <point x="392" y="500" type="curve" smooth="yes"/>
      <point x="372" y="490"/>
      <point x="348" y="485"/>
      <point x="307" y="484" type="curve"/>
    </contour>
  </outline>
</glyph>
<glyph name="four" format="1">
  <advance width="560"/>
  <unicode hex="0034"/>
  <outline>
    <contour>
      <point x="40" y="218" type="line"/>
      <point x="20" y="111" type="line"/>
      <point x="340" y="111" type="line"/>
      <point x="319" y="0" type="line"/>
      <point x="452" y="0" type="line"/>
      <point x="473" y="111" type="line"/>
      <point x="551" y="111" type="line"/>
      <point x="573" y="229" type="line"/>
      <point x="495" y="229" type="line"/>
      <point x="589" y="739" type="line"/>
      <point x="477" y="739" type="line"/>
    </contour>
    <contour>
      <point x="362" y="229" type="line"/>
      <point x="178" y="229" type="line"/>
      <point x="415" y="515" type="line"/>
    </contour>
  </outline>
</glyph>
<glyph name="five" format="1">
  <advance width="560"/>
  <unicode hex="0035"/>
  <outline>
    <contour>
      <point x="111" y="353" type="line"/>
      <point x="223" y="321" type="line"/>
      <point x="264" y="362"/>
      <point x="294" y="377"/>
      <point x="335" y="377" type="curve" smooth="yes"/>
      <point x="393" y="377"/>
      <point x="433" y="336"/>
      <point x="433" y="275" type="curve" smooth="yes"/>
      <point x="433" y="241"/>
      <point x="421" y="205"/>
      <point x="401" y="173" type="curve" smooth="yes"/>
      <point x="372" y="131"/>
      <point x="333" y="109"/>
      <point x="286" y="109" type="curve" smooth="yes"/>
      <point x="222" y="109"/>
      <point x="185" y="150"/>
      <point x="186" y="221" type="curve"/>
      <point x="53" y="221" type="line"/>
      <point x="51" y="204"/>
      <point x="50" y="191"/>
      <point x="50" y="183" type="curve" smooth="yes"/>
      <point x="50" y="132"/>
      <point x="73" y="81"/>
      <point x="114" y="43" type="curve" smooth="yes"/>
      <point x="155" y="5"/>
      <point x="203" y="-13"/>
      <point x="264" y="-13" type="curve" smooth="yes"/>
      <point x="354" y="-13"/>
      <point x="436" y="27"/>
      <point x="495" y="98" type="curve" smooth="yes"/>
      <point x="544" y="158"/>
      <point x="570" y="228"/>
      <point x="570" y="298" type="curve" smooth="yes"/>
      <point x="570" y="420"/>
      <point x="496" y="499"/>
      <point x="380" y="499" type="curve" smooth="yes"/>
      <point x="347" y="499"/>
      <point x="325" y="494"/>
      <point x="279" y="478" type="curve"/>
      <point x="329" y="614" type="line"/>
      <point x="563" y="614" type="line"/>
      <point x="586" y="739" type="line"/>
      <point x="252" y="739" type="line"/>
    </contour>
  </outline>
</glyph>
<glyph name="six" format="1">
  <advance width="560"/>
  <unicode hex="0036"/>
  <outline>
    <contour>
      <point x="423" y="739" type="line"/>
      <point x="176" y="449" type="line" smooth="yes"/>
      <point x="97" y="356"/>
      <point x="62" y="275"/>
      <point x="62" y="184" type="curve" smooth="yes"/>
      <point x="62" y="135"/>
      <point x="78" y="94"/>
      <point x="111" y="56" type="curve" smooth="yes"/>
      <point x="152" y="9"/>
      <point x="205" y="-13"/>
      <point x="276" y="-13" type="curve" smooth="yes"/>
      <point x="368" y="-13"/>
      <point x="454" y="29"/>
      <point x="510" y="102" type="curve" smooth="yes"/>
      <point x="556" y="161"/>
      <point x="584" y="236"/>
      <point x="584" y="302" type="curve" smooth="yes"/>
      <point x="584" y="354"/>
      <point x="566" y="406"/>
      <point x="538" y="438" type="curve" smooth="yes"/>
      <point x="509" y="471"/>
      <point x="471" y="486"/>
      <point x="419" y="486" type="curve" smooth="yes"/>
      <point x="394" y="486"/>
      <point x="381" y="484"/>
      <point x="356" y="476" type="curve"/>
      <point x="582" y="739" type="line"/>
    </contour>
    <contour>
      <point x="347" y="369" type="curve" smooth="yes"/>
      <point x="407" y="369"/>
      <point x="447" y="328"/>
      <point x="447" y="267" type="curve" smooth="yes"/>
      <point x="447" y="182"/>
      <point x="380" y="109"/>
      <point x="301" y="109" type="curve" smooth="yes"/>
      <point x="238" y="109"/>
      <point x="199" y="148"/>
      <point x="199" y="209" type="curve" smooth="yes"/>
      <point x="199" y="298"/>
      <point x="264" y="369"/>
    </contour>
  </outline>
</glyph>
<glyph name="seven" format="1">
  <advance width="560"/>
  <unicode hex="0037"/>
  <outline>
    <contour>
      <point x="85" y="0" type="line"/>
      <point x="234" y="0" type="line"/>
      <point x="614" y="614" type="line"/>
      <point x="637" y="739" type="line"/>
      <point x="203" y="739" type="line"/>
      <point x="180" y="614" type="line"/>
      <point x="473" y="614" type="line"/>
    </contour>
  </outline>
</glyph>
<glyph name="eight" format="1">
  <advance width="560"/>
  <unicode hex="0038"/>
  <outline>
    <contour>
      <point x="210" y="411" type="curve"/>
      <point x="166" y="390"/>
      <point x="145" y="372"/>
      <point x="120" y="338" type="curve" smooth="yes"/>
      <point x="87" y="293"/>
      <point x="69" y="241"/>
      <point x="69" y="190" type="curve" smooth="yes"/>
      <point x="69" y="67"/>
      <point x="150" y="-13"/>
      <point x="274" y="-13" type="curve" smooth="yes"/>
      <point x="428" y="-13"/>
      <point x="567" y="123"/>
      <point x="567" y="274" type="curve" smooth="yes"/>
      <point x="567" y="318"/>
      <point x="554" y="357"/>
      <point x="531" y="381" type="curve" smooth="yes"/>
      <point x="522" y="391"/>
      <point x="512" y="398"/>
      <point x="492" y="411" type="curve"/>
      <point x="525" y="434"/>
      <point x="538" y="449"/>
      <point x="554" y="481" type="curve" smooth="yes"/>
      <point x="573" y="518"/>
      <point x="582" y="556"/>
      <point x="582" y="595" type="curve" smooth="yes"/>
      <point x="582" y="687"/>
      <point x="514" y="752"/>
      <point x="418" y="752" type="curve" smooth="yes"/>
      <point x="351" y="752"/>
      <point x="285" y="722"/>
      <point x="238" y="671" type="curve" smooth="yes"/>
      <point x="198" y="628"/>
      <point x="172" y="565"/>
      <point x="172" y="513" type="curve" smooth="yes"/>
      <point x="172" y="476"/>
      <point x="181" y="451"/>
    </contour>
    <contour>
      <point x="393" y="630" type="curve" smooth="yes"/>
      <point x="431" y="630"/>
      <point x="454" y="606"/>
      <point x="454" y="565" type="curve" smooth="yes"/>
      <point x="454" y="515"/>
      <point x="410" y="469"/>
      <point x="362" y="469" type="curve" smooth="yes"/>
      <point x="327" y="469"/>
      <point x="300" y="497"/>
      <point x="300" y="532" type="curve" smooth="yes"/>
      <point x="300" y="583"/>
      <point x="345" y="630"/>
    </contour>
    <contour>
      <point x="339" y="341" type="curve" smooth="yes"/>
      <point x="392" y="341"/>
      <point x="430" y="302"/>
      <point x="430" y="247" type="curve" smooth="yes"/>
      <point x="430" y="175"/>
      <point x="367" y="109"/>
      <point x="298" y="109" type="curve" smooth="yes"/>
      <point x="243" y="109"/>
      <point x="206" y="146"/>
      <point x="206" y="203" type="curve" smooth="yes"/>
      <point x="206" y="275"/>
      <point x="270" y="341"/>
    </contour>
  </outline>
</glyph>
<glyph name="nine" format="1">
  <advance width="560"/>
  <unicode hex="0039"/>
  <outline>
    <contour>
      <point x="267" y="0" type="line"/>
      <point x="514" y="290" type="line" smooth="yes"/>
      <point x="593" y="383"/>
      <point x="628" y="464"/>
      <point x="628" y="554" type="curve" smooth="yes"/>
      <point x="628" y="669"/>
      <point x="539" y="752"/>
      <point x="414" y="752" type="curve" smooth="yes"/>
      <point x="321" y="752"/>
      <point x="240" y="712"/>
      <point x="182" y="637" type="curve" smooth="yes"/>
      <point x="136" y="578"/>
      <point x="108" y="503"/>
      <point x="108" y="437" type="curve" smooth="yes"/>
      <point x="108" y="325"/>
      <point x="173" y="251"/>
      <point x="272" y="251" type="curve" smooth="yes"/>
      <point x="294" y="251"/>
      <point x="309" y="254"/>
      <point x="335" y="263" type="curve"/>
      <point x="108" y="0" type="line"/>
    </contour>
    <contour>
      <point x="390" y="630" type="curve" smooth="yes"/>
      <point x="450" y="630"/>
      <point x="491" y="590"/>
      <point x="491" y="530" type="curve" smooth="yes"/>
      <point x="491" y="439"/>
      <point x="426" y="368"/>
      <point x="343" y="368" type="curve" smooth="yes"/>
      <point x="286" y="368"/>
      <point x="245" y="410"/>
      <point x="245" y="469" type="curve" smooth="yes"/>
      <point x="245" y="499"/>
      <point x="260" y="545"/>
      <point x="279" y="572" type="curve" smooth="yes"/>
      <point x="303" y="607"/>
      <point x="346" y="630"/>
    </contour>
  </outline>
</glyph>
<glyph name="colon" format="1">
  <advance width="280"/>
  <unicode hex="003A"/>
  <outline>
    <contour>
      <point x="140" y="374" type="line"/>
      <point x="274" y="374" type="line"/>
      <point x="298" y="502" type="line"/>
      <point x="164" y="502" type="line"/>
    </contour>
    <contour>
      <point x="72" y="0" type="line"/>
      <point x="206" y="0" type="line"/>
      <point x="230" y="128" type="line"/>
      <point x="96" y="128" type="line"/>
    </contour>
  </outline>
</glyph>
<glyph name="semicolon" format="1">
  <advance width="280"/>
  <unicode hex="003B"/>
  <outline>
    <contour>
      <point x="73" y="0" type="line"/>
      <point x="131" y="0" type="line"/>
      <point x="130" y="-42"/>
      <point x="106" y="-67"/>
      <point x="59" y="-73" type="curve"/>
      <point x="47" y="-140" type="line"/>
      <point x="49" y="-140" type="line"/>
      <point x="58" y="-140" type="line" smooth="yes"/>
      <point x="90" y="-140"/>
      <point x="130" y="-123"/>
      <point x="157" y="-99" type="curve" smooth="yes"/>
      <point x="186" y="-72"/>
      <point x="197" y="-51"/>
      <point x="205" y="-7" type="curve" smooth="yes"/>
      <point x="230" y="128" type="line"/>
      <point x="97" y="128" type="line"/>
    </contour>
    <contour>
      <point x="140" y="374" type="line"/>
      <point x="274" y="374" type="line"/>
      <point x="298" y="502" type="line"/>
      <point x="164" y="502" type="line"/>
    </contour>
  </outline>
</glyph>
<glyph name="less" format="1">
  <advance width="600"/>
  <unicode hex="003C"/>
  <outline>
    <contour>
      <point x="668" y="582" type="line"/>
      <point x="116" y="356" type="line"/>
      <point x="98" y="258" type="line"/>
      <point x="566" y="33" type="line"/>
      <point x="587" y="145" type="line"/>
      <point x="275" y="304" type="line"/>
      <point x="646" y="461" type="line"/>
    </contour>
  </outline>
</glyph>
<glyph name="equal" format="1">
  <advance width="600"/>
  <unicode hex="003D"/>
  <outline>
    <contour>
      <point x="643" y="524" type="line"/>
      <point x="139" y="524" type="line"/>
      <point x="117" y="406" type="line"/>
      <point x="621" y="406" type="line"/>
    </contour>
    <contour>
      <point x="607" y="328" type="line"/>
      <point x="103" y="328" type="line"/>
      <point x="81" y="210" type="line"/>
      <point x="585" y="210" type="line"/>
    </contour>
  </outline>
</glyph>
<glyph name="greater" format="1">
  <advance width="600"/>
  <unicode hex="003E"/>
  <outline>
    <contour>
      <point x="56" y="33" type="line"/>
      <point x="607" y="258" type="line"/>
      <point x="625" y="356" type="line"/>
      <point x="158" y="582" type="line"/>
      <point x="137" y="469" type="line"/>
      <point x="449" y="310" type="line"/>
      <point x="78" y="153" type="line"/>
    </contour>
  </outline>
</glyph>
<glyph name="question" format="1">
  <advance width="560"/>
  <unicode hex="003F"/>
  <outline>
    <contour>
      <point x="353" y="187" type="line"/>
      <point x="367" y="269"/>
      <point x="382" y="295"/>
      <point x="446" y="344" type="curve" smooth="yes"/>
      <point x="507" y="392"/>
      <point x="529" y="413"/>
      <point x="546" y="437" type="curve" smooth="yes"/>
      <point x="571" y="474"/>
      <point x="586" y="522"/>
      <point x="586" y="568" type="curve" smooth="yes"/>
      <point x="586" y="677"/>
      <point x="511" y="752"/>
      <point x="401" y="752" type="curve" smooth="yes"/>
      <point x="270" y="752"/>
      <point x="163" y="661"/>
      <point x="129" y="520" type="curve"/>
      <point x="262" y="520" type="line"/>
      <point x="272" y="554"/>
      <point x="279" y="567"/>
      <point x="292" y="582" type="curve" smooth="yes"/>
      <point x="316" y="609"/>
      <point x="339" y="620"/>
      <point x="370" y="620" type="curve" smooth="yes"/>
      <point x="417" y="620"/>
      <point x="449" y="590"/>
      <point x="449" y="546" type="curve" smooth="yes"/>
      <point x="449" y="509"/>
      <point x="426" y="470"/>
      <point x="387" y="442" type="curve" smooth="yes"/>
      <point x="273" y="361"/>
      <point x="244" y="317"/>
      <point x="220" y="187" type="curve"/>
    </contour>
    <contour>
      <point x="186" y="0" type="line"/>
      <point x="319" y="0" type="line"/>
      <point x="342" y="128" type="line"/>
      <point x="209" y="128" type="line"/>
    </contour>
  </outline>
</glyph>
<glyph name="at" format="1">
  <advance width="740"/>
  <unicode hex="0040"/>
  <outline>
    <contour>
      <point x="688" y="573" type="line"/>
      <point x="591" y="573" type="line"/>
      <point x="574" y="519" type="line"/>
      <point x="552" y="560"/>
      <point x="521" y="577"/>
      <point x="468" y="577" type="curve" smooth="yes"/>
      <point x="333" y="577"/>
      <point x="217" y="445"/>
      <point x="217" y="292" type="curve" smooth="yes"/>
      <point x="217" y="207"/>
      <point x="268" y="154"/>
      <point x="350" y="154" type="curve" smooth="yes"/>
      <point x="405" y="154"/>
      <point x="443" y="171"/>
      <point x="475" y="208" type="curve"/>
      <point x="480" y="173"/>
      <point x="511" y="154"/>
      <point x="565" y="154" type="curve" smooth="yes"/>
      <point x="617" y="154"/>
      <point x="676" y="176"/>
      <point x="721" y="213" type="curve" smooth="yes"/>
      <point x="793" y="273"/>
      <point x="831" y="365"/>
      <point x="831" y="483" type="curve" smooth="yes"/>
      <point x="831" y="558"/>
      <point x="815" y="613"/>
      <point x="780" y="658" type="curve" smooth="yes"/>
      <point x="728" y="726"/>
      <point x="634" y="766"/>
      <point x="530" y="766" type="curve" smooth="yes"/>
      <point x="279" y="766"/>
      <point x="64" y="548"/>
      <point x="64" y="294" type="curve" smooth="yes"/>
      <point x="64" y="206"/>
      <point x="102" y="120"/>
      <point x="165" y="64" type="curve" smooth="yes"/>
      <point x="224" y="12"/>
      <point x="300" y="-13"/>
      <point x="398" y="-13" type="curve" smooth="yes"/>
      <point x="481" y="-13"/>
      <point x="532" y="2"/>
      <point x="607" y="47" type="curve"/>
      <point x="572" y="107" type="line"/>
      <point x="517" y="74"/>
      <point x="470" y="60"/>
      <point x="410" y="60" type="curve" smooth="yes"/>
      <point x="345" y="60"/>
      <point x="275" y="80"/>
      <point x="231" y="110" type="curve" smooth="yes"/>
      <point x="170" y="152"/>
      <point x="132" y="229"/>
      <point x="132" y="307" type="curve" smooth="yes"/>
      <point x="132" y="517"/>
      <point x="310" y="693"/>
      <point x="522" y="693" type="curve" smooth="yes"/>
      <point x="668" y="693"/>
      <point x="763" y="608"/>
      <point x="763" y="476" type="curve" smooth="yes"/>
      <point x="763" y="412"/>
      <point x="742" y="343"/>
      <point x="708" y="298" type="curve" smooth="yes"/>
      <point x="679" y="258"/>
      <point x="648" y="237"/>
      <point x="619" y="237" type="curve" smooth="yes"/>
      <point x="604" y="237"/>
      <point x="595" y="243"/>
      <point x="595" y="253" type="curve" smooth="yes"/>
      <point x="595" y="256"/>
      <point x="598" y="274"/>
      <point x="599" y="278" type="curve" smooth="yes"/>
    </contour>
    <contour>
      <point x="468" y="465" type="curve" smooth="yes"/>
      <point x="506" y="465"/>
      <point x="528" y="441"/>
      <point x="528" y="398" type="curve" smooth="yes"/>
      <point x="528" y="326"/>
      <point x="470" y="260"/>
      <point x="406" y="260" type="curve" smooth="yes"/>
      <point x="365" y="260"/>
      <point x="341" y="285"/>
      <point x="341" y="328" type="curve" smooth="yes"/>
      <point x="341" y="400"/>
      <point x="401" y="465"/>
    </contour>
  </outline>
</glyph>
<glyph name="B" format="1">
  <advance width="580"/>
  <unicode hex="0042"/>
  <outline>
    <contour>
      <point x="68" y="0" type="line"/>
      <point x="265" y="0" type="line" smooth="yes"/>
      <point x="374" y="0"/>
      <point x="450" y="24"/>
      <point x="507" y="75" type="curve" smooth="yes"/>
      <point x="561" y="123"/>
      <point x="593" y="194"/>
      <point x="593" y="264" type="curve" smooth="yes"/>
      <point x="593" y="334"/>
      <point x="567" y="373"/>
      <point x="497" y="403" type="curve"/>
      <point x="532" y="419"/>
      <point x="549" y="432"/>
      <point x="567" y="456" type="curve" smooth="yes"/>
      <point x="592" y="490"/>
      <point x="607" y="535"/>
      <point x="607" y="580" type="curve" smooth="yes"/>
      <point x="607" y="633"/>
      <point x="587" y="676"/>
      <point x="549" y="704" type="curve" smooth="yes"/>
      <point x="510" y="732"/>
      <point x="470" y="739"/>
      <point x="358" y="739" type="curve" smooth="yes"/>
      <point x="205" y="739" type="line"/>
    </contour>
    <contour>
      <point x="229" y="132" type="line"/>
      <point x="264" y="320" type="line"/>
      <point x="329" y="320" type="line" smooth="yes"/>
      <point x="416" y="320"/>
      <point x="453" y="297"/>
      <point x="453" y="241" type="curve" smooth="yes"/>
      <point x="453" y="216"/>
      <point x="444" y="192"/>
      <point x="426" y="172" type="curve" smooth="yes"/>
      <point x="400" y="142"/>
      <point x="367" y="132"/>
      <point x="297" y="132" type="curve" smooth="yes"/>
    </contour>
    <contour>
      <point x="289" y="454" type="line"/>
      <point x="317" y="607" type="line"/>
      <point x="373" y="607" type="line" smooth="yes"/>
      <point x="434" y="607"/>
      <point x="467" y="587"/>
      <point x="467" y="549" type="curve" smooth="yes"/>
      <point x="467" y="528"/>
      <point x="457" y="500"/>
      <point x="444" y="485" type="curve" smooth="yes"/>
      <point x="426" y="465"/>
      <point x="387" y="454"/>
      <point x="333" y="454" type="curve" smooth="yes"/>
    </contour>
  </outline>
</glyph>
<glyph name="D" format="1">
  <advance width="700"/>
  <unicode hex="0044"/>
  <outline>
    <contour>
      <point x="68" y="0" type="line"/>
      <point x="240" y="0" type="line" smooth="yes"/>
      <point x="382" y="0"/>
      <point x="469" y="21"/>
      <point x="545" y="74" type="curve" smooth="yes"/>
      <point x="658" y="153"/>
      <point x="734" y="304"/>
      <point x="734" y="452" type="curve" smooth="yes"/>
      <point x="734" y="554"/>
      <point x="694" y="639"/>
      <point x="624" y="686" type="curve" smooth="yes"/>
      <point x="572" y="721"/>
      <point x="487" y="739"/>
      <point x="374" y="739" type="curve" smooth="yes"/>
      <point x="205" y="739" type="line"/>
    </contour>
    <contour>
      <point x="229" y="131" type="line"/>
      <point x="318" y="608" type="line"/>
      <point x="345" y="608" type="line" smooth="yes"/>
      <point x="432" y="608"/>
      <point x="477" y="600"/>
      <point x="515" y="578" type="curve" smooth="yes"/>
      <point x="566" y="548"/>
      <point x="594" y="493"/>
      <point x="594" y="421" type="curve" smooth="yes"/>
      <point x="594" y="343"/>
      <point x="564" y="269"/>
      <point x="509" y="212" type="curve" smooth="yes"/>
      <point x="453" y="154"/>
      <point x="382" y="131"/>
      <point x="259" y="131" type="curve" smooth="yes"/>
    </contour>
  </outline>
</glyph>
<glyph name="F" format="1">
  <advance width="480"/>
  <unicode hex="0046"/>
  <outline>
    <contour>
      <point x="68" y="0" type="line"/>
      <point x="205" y="0" type="line"/>
      <point x="261" y="303" type="line"/>
      <point x="489" y="303" type="line"/>
      <point x="513" y="435" type="line"/>
      <point x="285" y="435" type="line"/>
      <point x="318" y="607" type="line"/>
      <point x="557" y="607" type="line"/>
      <point x="581" y="739" type="line"/>
      <point x="205" y="739" type="line"/>
    </contour>
  </outline>
</glyph>
<glyph name="G" format="1">
  <advance width="840"/>
  <unicode hex="0047"/>
  <outline>
    <contour>
      <point x="382" y="249" type="line"/>
      <point x="688" y="249" type="line"/>
      <point x="634" y="168"/>
      <point x="544" y="119"/>
      <point x="448" y="119" type="curve" smooth="yes"/>
      <point x="382" y="119"/>
      <point x="327" y="139"/>
      <point x="289" y="177" type="curve" smooth="yes"/>
      <point x="254" y="213"/>
      <point x="231" y="270"/>
      <point x="231" y="324" type="curve" smooth="yes"/>
      <point x="231" y="380"/>
      <point x="254" y="446"/>
      <point x="293" y="499" type="curve" smooth="yes"/>
      <point x="350" y="577"/>
      <point x="437" y="620"/>
      <point x="537" y="620" type="curve" smooth="yes"/>
      <point x="582" y="620"/>
      <point x="617" y="610"/>
      <point x="654" y="588" type="curve" smooth="yes"/>
      <point x="681" y="572"/>
      <point x="695" y="558"/>
      <point x="717" y="522" type="curve"/>
      <point x="878" y="522" type="line"/>
      <point x="870" y="569"/>
      <point x="848" y="611"/>
      <point x="808" y="653" type="curve" smooth="yes"/>
      <point x="748" y="716"/>
      <point x="658" y="752"/>
      <point x="559" y="752" type="curve" smooth="yes"/>
      <point x="314" y="752"/>
      <point x="91" y="537"/>
      <point x="91" y="300" type="curve" smooth="yes"/>
      <point x="91" y="117"/>
      <point x="231" y="-13"/>
      <point x="430" y="-13" type="curve" smooth="yes"/>
      <point x="564" y="-13"/>
      <point x="687" y="44"/>
      <point x="778" y="147" type="curve" smooth="yes"/>
      <point x="842" y="219"/>
      <point x="880" y="299"/>
      <point x="888" y="377" type="curve"/>
      <point x="406" y="377" type="line"/>
    </contour>
  </outline>
</glyph>
<glyph name="I" format="1">
  <advance width="280"/>
  <unicode hex="0049"/>
  <outline>
    <contour>
      <point x="68" y="0" type="line"/>
      <point x="205" y="0" type="line"/>
      <point x="342" y="739" type="line"/>
      <point x="205" y="739" type="line"/>
    </contour>
  </outline>
</glyph>
<glyph name="J" format="1">
  <advance width="480"/>
  <unicode hex="004A"/>
  <outline>
    <contour>
      <point x="414" y="739" type="line"/>
      <point x="317" y="216" type="line" smooth="yes"/>
      <point x="305" y="150"/>
      <point x="278" y="119"/>
      <point x="233" y="119" type="curve" smooth="yes"/>
      <point x="200" y="119"/>
      <point x="183" y="134"/>
      <point x="178" y="168" type="curve" smooth="yes"/>
      <point x="177" y="175" type="line"/>
      <point x="40" y="175" type="line"/>
      <point x="39" y="161"/>
      <point x="38" y="149"/>
      <point x="38" y="140" type="curve" smooth="yes"/>
      <point x="38" y="50"/>
      <point x="110" y="-13"/>
      <point x="212" y="-13" type="curve" smooth="yes"/>
      <point x="278" y="-13"/>
      <point x="336" y="13"/>
      <point x="383" y="62" type="curve" smooth="yes"/>
      <point x="420" y="100"/>
      <point x="440" y="145"/>
      <point x="453" y="212" type="curve" smooth="yes"/>
      <point x="551" y="739" type="line"/>
    </contour>
  </outline>
</glyph>
<glyph name="L" format="1">
  <advance width="440"/>
  <unicode hex="004C"/>
  <outline>
    <contour>
      <point x="68" y="0" type="line"/>
      <point x="432" y="0" type="line"/>
      <point x="456" y="132" type="line"/>
      <point x="229" y="132" type="line"/>
      <point x="342" y="739" type="line"/>
      <point x="205" y="739" type="line"/>
    </contour>
  </outline>
</glyph>
<glyph name="M" format="1">
  <advance width="900"/>
  <unicode hex="004D"/>
  <outline>
    <contour>
      <point x="68" y="0" type="line"/>
      <point x="205" y="0" type="line"/>
      <point x="308" y="554" type="line"/>
      <point x="398" y="0" type="line"/>
      <point x="510" y="0" type="line"/>
      <point x="806" y="554" type="line"/>
      <point x="703" y="0" type="line"/>
      <point x="840" y="0" type="line"/>
      <point x="977" y="739" type="line"/>
      <point x="789" y="739" type="line"/>
      <point x="488" y="179" type="line"/>
      <point x="393" y="739" type="line"/>
      <point x="205" y="739" type="line"/>
    </contour>
  </outline>
</glyph>
<glyph name="P" format="1">
  <advance width="560"/>
  <unicode hex="0050"/>
  <outline>
    <contour>
      <point x="68" y="0" type="line"/>
      <point x="205" y="0" type="line"/>
      <point x="257" y="281" type="line"/>
      <point x="301" y="281" type="line" smooth="yes"/>
      <point x="357" y="281"/>
      <point x="384" y="282"/>
      <point x="407" y="285" type="curve" smooth="yes"/>
      <point x="466" y="294"/>
      <point x="512" y="315"/>
      <point x="551" y="352" type="curve" smooth="yes"/>
      <point x="604" y="403"/>
      <point x="639" y="486"/>
      <point x="639" y="562" type="curve" smooth="yes"/>
      <point x="639" y="624"/>
      <point x="615" y="674"/>
      <point x="570" y="705" type="curve" smooth="yes"/>
      <point x="535" y="730"/>
      <point x="484" y="739"/>
      <point x="388" y="739" type="curve" smooth="yes"/>
      <point x="205" y="739" type="line"/>
    </contour>
    <contour>
      <point x="281" y="412" type="line"/>
      <point x="318" y="607" type="line"/>
      <point x="364" y="607" type="line" smooth="yes"/>
      <point x="413" y="607"/>
      <point x="442" y="604"/>
      <point x="459" y="597" type="curve" smooth="yes"/>
      <point x="486" y="585"/>
      <point x="499" y="562"/>
      <point x="499" y="529" type="curve" smooth="yes"/>
      <point x="499" y="478"/>
      <point x="466" y="435"/>
      <point x="418" y="422" type="curve" smooth="yes"/>
      <point x="394" y="416"/>
      <point x="358" y="412"/>
      <point x="321" y="412" type="curve" smooth="yes"/>
    </contour>
  </outline>
</glyph>
<glyph name="Q" format="1">
  <advance width="840"/>
  <unicode hex="0051"/>
  <outline>
    <contour>
      <point x="848" y="110" type="line"/>
      <point x="835" y="108"/>
      <point x="828" y="107"/>
      <point x="818" y="107" type="curve" smooth="yes"/>
      <point x="795" y="107"/>
      <point x="772" y="114"/>
      <point x="749" y="129" type="curve"/>
      <point x="840" y="208"/>
      <point x="889" y="319"/>
      <point x="889" y="445" type="curve" smooth="yes"/>
      <point x="889" y="628"/>
      <point x="756" y="752"/>
      <point x="561" y="752" type="curve" smooth="yes"/>
      <point x="313" y="752"/>
      <point x="91" y="539"/>
      <point x="91" y="299" type="curve" smooth="yes"/>
      <point x="91" y="120"/>
      <point x="233" y="-13"/>
      <point x="425" y="-13" type="curve" smooth="yes"/>
      <point x="502" y="-13"/>
      <point x="570" y="5"/>
      <point x="643" y="45" type="curve"/>
      <point x="673" y="22"/>
      <point x="685" y="13"/>
      <point x="701" y="6" type="curve" smooth="yes"/>
      <point x="726" y="-6"/>
      <point x="770" y="-15"/>
      <point x="801" y="-15" type="curve" smooth="yes"/>
      <point x="807" y="-15"/>
      <point x="815" y="-15"/>
      <point x="825" y="-14" type="curve"/>
    </contour>
    <contour>
      <point x="544" y="138" type="curve"/>
      <point x="508" y="124"/>
      <point x="485" y="119"/>
      <point x="448" y="119" type="curve" smooth="yes"/>
      <point x="358" y="119"/>
      <point x="294" y="154"/>
      <point x="252" y="227" type="curve"/>
      <point x="284" y="233"/>
      <point x="299" y="235"/>
      <point x="325" y="235" type="curve" smooth="yes"/>
      <point x="370" y="235"/>
      <point x="401" y="228"/>
      <point x="437" y="211" type="curve" smooth="yes"/>
      <point x="484" y="189"/>
      <point x="511" y="171"/>
    </contour>
    <contour>
      <point x="654" y="204" type="curve"/>
      <point x="621" y="241"/>
      <point x="599" y="260"/>
      <point x="569" y="279" type="curve" smooth="yes"/>
      <point x="492" y="327"/>
      <point x="428" y="347"/>
      <point x="353" y="347" type="curve" smooth="yes"/>
      <point x="300" y="347"/>
      <point x="264" y="343"/>
      <point x="230" y="334" type="curve"/>
      <point x="235" y="393"/>
      <point x="248" y="432"/>
      <point x="276" y="476" type="curve" smooth="yes"/>
      <point x="332" y="564"/>
      <point x="433" y="620"/>
      <point x="536" y="620" type="curve" smooth="yes"/>
      <point x="663" y="620"/>
      <point x="749" y="538"/>
      <point x="749" y="418" type="curve" smooth="yes"/>
      <point x="749" y="332"/>
      <point x="713" y="252"/>
    </contour>
  </outline>
</glyph>
<glyph name="R" format="1">
  <advance width="580"/>
  <unicode hex="0052"/>
  <outline>
    <contour>
      <point x="68" y="0" type="line"/>
      <point x="205" y="0" type="line"/>
      <point x="257" y="283" type="line"/>
      <point x="399" y="0" type="line"/>
      <point x="568" y="0" type="line"/>
      <point x="419" y="273" type="line"/>
      <point x="493" y="291"/>
      <point x="540" y="316"/>
      <point x="581" y="359" type="curve" smooth="yes"/>
      <point x="629" y="409"/>
      <point x="657" y="480"/>
      <point x="657" y="553" type="curve" smooth="yes"/>
      <point x="657" y="605"/>
      <point x="641" y="649"/>
      <point x="608" y="683" type="curve" smooth="yes"/>
      <point x="570" y="724"/>
      <point x="517" y="739"/>
      <point x="418" y="739" type="curve" smooth="yes"/>
      <point x="205" y="739" type="line"/>
    </contour>
    <contour>
      <point x="277" y="386" type="line"/>
      <point x="318" y="607" type="line"/>
      <point x="379" y="607" type="line" smooth="yes"/>
      <point x="430" y="607"/>
      <point x="464" y="601"/>
      <point x="483" y="590" type="curve" smooth="yes"/>
      <point x="504" y="577"/>
      <point x="517" y="551"/>
      <point x="517" y="521" type="curve" smooth="yes"/>
      <point x="517" y="491"/>
      <point x="503" y="454"/>
      <point x="483" y="431" type="curve" smooth="yes"/>
      <point x="455" y="398"/>
      <point x="419" y="386"/>
      <point x="344" y="386" type="curve" smooth="yes"/>
    </contour>
  </outline>
</glyph>
<glyph name="V" format="1">
  <advance width="700"/>
  <unicode hex="0056"/>
  <outline>
    <contour>
      <point x="296" y="0" type="line"/>
      <point x="408" y="0" type="line"/>
      <point x="831" y="739" type="line"/>
      <point x="687" y="739" type="line"/>
      <point x="384" y="177" type="line"/>
      <point x="289" y="739" type="line"/>
      <point x="145" y="739" type="line"/>
    </contour>
  </outline>
</glyph>
<glyph name="W" format="1">
  <advance width="900"/>
  <unicode hex="0057"/>
  <outline>
    <contour>
      <point x="224" y="0" type="line"/>
      <point x="332" y="0" type="line"/>
      <point x="545" y="489" type="line"/>
      <point x="573" y="0" type="line"/>
      <point x="682" y="0" type="line"/>
      <point x="1035" y="739" type="line"/>
      <point x="895" y="739" type="line"/>
      <point x="668" y="223" type="line"/>
      <point x="640" y="739" type="line"/>
      <point x="540" y="739" type="line"/>
      <point x="318" y="223" type="line"/>
      <point x="284" y="739" type="line"/>
      <point x="144" y="739" type="line"/>
    </contour>
  </outline>
</glyph>
<glyph name="X" format="1">
  <advance width="680"/>
  <unicode hex="0058"/>
  <outline>
    <contour>
      <point x="5" y="0" type="line"/>
      <point x="168" y="0" type="line"/>
      <point x="387" y="255" type="line"/>
      <point x="517" y="0" type="line"/>
      <point x="676" y="0" type="line"/>
      <point x="488" y="368" type="line"/>
      <point x="813" y="739" type="line"/>
      <point x="654" y="739" type="line"/>
      <point x="429" y="481" type="line"/>
      <point x="305" y="739" type="line"/>
      <point x="142" y="739" type="line"/>
      <point x="327" y="368" type="line"/>
    </contour>
  </outline>
</glyph>
<glyph name="bracketleft" format="1">
  <advance width="320"/>
  <unicode hex="005B"/>
  <outline>
    <contour>
      <point x="429" y="739" type="line"/>
      <point x="281" y="703"/>
      <point x="186" y="600"/>
      <point x="159" y="446" type="curve" smooth="yes"/>
      <point x="111" y="187" type="line" smooth="yes"/>
      <point x="104" y="148"/>
      <point x="100" y="109"/>
      <point x="100" y="73" type="curve" smooth="yes"/>
      <point x="100" y="16"/>
      <point x="116" y="-29"/>
      <point x="151" y="-70" type="curve" smooth="yes"/>
      <point x="184" y="-108"/>
      <point x="212" y="-124"/>
      <point x="267" y="-137" type="curve"/>
      <point x="294" y="10" type="line"/>
      <point x="250" y="31"/>
      <point x="236" y="55"/>
      <point x="236" y="108" type="curve" smooth="yes"/>
      <point x="236" y="128"/>
      <point x="238" y="146"/>
      <point x="241" y="164" type="curve" smooth="yes"/>
      <point x="289" y="419" type="line" smooth="yes"/>
      <point x="308" y="525"/>
      <point x="335" y="566"/>
      <point x="402" y="592" type="curve"/>
    </contour>
  </outline>
</glyph>
<glyph name="backslash" format="1">
  <advance width="640"/>
  <unicode hex="005C"/>
  <outline>
    <contour>
      <point x="503" y="0" type="line"/>
      <point x="317" y="739" type="line"/>
      <point x="221" y="739" type="line"/>
      <point x="407" y="0" type="line"/>
    </contour>
  </outline>
</glyph>
<glyph name="bracketright" format="1">
  <advance width="320"/>
  <unicode hex="005D"/>
  <outline>
    <contour>
      <point x="13" y="-137" type="line"/>
      <point x="163" y="-104"/>
      <point x="259" y="-1"/>
      <point x="287" y="156" type="curve" smooth="yes"/>
      <point x="335" y="415" type="line" smooth="yes"/>
      <point x="342" y="454"/>
      <point x="346" y="493"/>
      <point x="346" y="529" type="curve" smooth="yes"/>
      <point x="346" y="585"/>
      <point x="330" y="632"/>
      <point x="296" y="672" type="curve" smooth="yes"/>
      <point x="263" y="711"/>
      <point x="234" y="728"/>
      <point x="175" y="739" type="curve"/>
      <point x="148" y="592" type="line"/>
      <point x="196" y="571"/>
      <point x="210" y="549"/>
      <point x="210" y="494" type="curve" smooth="yes"/>
      <point x="210" y="474"/>
      <point x="208" y="456"/>
      <point x="205" y="438" type="curve" smooth="yes"/>
      <point x="157" y="183" type="line" smooth="yes"/>
      <point x="137" y="74"/>
      <point x="110" y="33"/>
      <point x="40" y="10" type="curve"/>
    </contour>
  </outline>
</glyph>
<glyph name="asciicircum" format="1">
  <advance width="600"/>
  <unicode hex="005E"/>
  <outline>
    <contour>
      <point x="375" y="750" type="line"/>
      <point x="130" y="379" type="line"/>
      <point x="228" y="324" type="line"/>
      <point x="412" y="595" type="line"/>
      <point x="495" y="325" type="line"/>
      <point x="610" y="358" type="line"/>
      <point x="496" y="750" type="line"/>
    </contour>
  </outline>
</glyph>
<glyph name="underscore" format="1">
  <advance width="500"/>
  <unicode hex="005F"/>
  <outline>
    <contour>
      <point x="-10" y="-48" type="line"/>
      <point x="-26" y="-138" type="line"/>
      <point x="475" y="-138" type="line"/>
      <point x="491" y="-48" type="line"/>
    </contour>
  </outline>
</glyph>
<glyph name="grave" format="1">
  <advance width="420"/>
  <unicode hex="0060"/>
  <outline>
    <contour>
      <point x="211" y="741" type="line"/>
      <point x="417" y="617" type="line"/>
      <point x="484" y="702" type="line"/>
      <point x="281" y="832" type="line"/>
    </contour>
  </outline>
</glyph>
<glyph name="b" format="1">
  <advance width="660"/>
  <unicode hex="0062"/>
  <outline>
    <contour>
      <point x="54" y="0" type="line"/>
      <point x="176" y="0" type="line"/>
      <point x="189" y="71" type="line"/>
      <point x="214" y="40"/>
      <point x="227" y="27"/>
      <point x="246" y="16" type="curve" smooth="yes"/>
      <point x="275" y="-2"/>
      <point x="323" y="-13"/>
      <point x="369" y="-13" type="curve" smooth="yes"/>
      <point x="465" y="-13"/>
      <point x="552" y="33"/>
      <point x="618" y="118" type="curve" smooth="yes"/>
      <point x="666" y="181"/>
      <point x="695" y="266"/>
      <point x="695" y="343" type="curve" smooth="yes"/>
      <point x="695" y="478"/>
      <point x="601" y="574"/>
      <point x="470" y="574" type="curve" smooth="yes"/>
      <point x="422" y="574"/>
      <point x="370" y="562"/>
      <point x="334" y="542" type="curve" smooth="yes"/>
      <point x="319" y="534"/>
      <point x="307" y="525"/>
      <point x="280" y="503" type="curve"/>
      <point x="324" y="739" type="line"/>
      <point x="191" y="739" type="line"/>
    </contour>
    <contour>
      <point x="425" y="452" type="curve" smooth="yes"/>
      <point x="506" y="452"/>
      <point x="558" y="398"/>
      <point x="558" y="314" type="curve" smooth="yes"/>
      <point x="558" y="202"/>
      <point x="469" y="109"/>
      <point x="362" y="109" type="curve" smooth="yes"/>
      <point x="282" y="109"/>
      <point x="227" y="163"/>
      <point x="227" y="241" type="curve" smooth="yes"/>
      <point x="227" y="357"/>
      <point x="316" y="452"/>
    </contour>
  </outline>
</glyph>
<glyph name="d" format="1">
  <advance width="660"/>
  <unicode hex="0064"/>
  <outline>
    <contour>
      <point x="750" y="739" type="line"/>
      <point x="617" y="739" type="line"/>
      <point x="574" y="505" type="line"/>
      <point x="544" y="548"/>
      <point x="484" y="574"/>
      <point x="416" y="574" type="curve" smooth="yes"/>
      <point x="236" y="574"/>
      <point x="76" y="408"/>
      <point x="76" y="220" type="curve" smooth="yes"/>
      <point x="76" y="80"/>
      <point x="168" y="-13"/>
      <point x="306" y="-13" type="curve" smooth="yes"/>
      <point x="380" y="-13"/>
      <point x="443" y="14"/>
      <point x="505" y="72" type="curve"/>
      <point x="491" y="0" type="line"/>
      <point x="613" y="0" type="line"/>
    </contour>
    <contour>
      <point x="413" y="452" type="curve" smooth="yes"/>
      <point x="493" y="452"/>
      <point x="546" y="397"/>
      <point x="546" y="314" type="curve" smooth="yes"/>
      <point x="546" y="207"/>
      <point x="453" y="109"/>
      <point x="351" y="109" type="curve" smooth="yes"/>
      <point x="269" y="109"/>
      <point x="213" y="166"/>
      <point x="213" y="248" type="curve" smooth="yes"/>
      <point x="213" y="358"/>
      <point x="305" y="452"/>
    </contour>
  </outline>
</glyph>
<glyph name="f" format="1">
  <advance width="280"/>
  <unicode hex="0066"/>
  <outline>
    <contour>
      <point x="57" y="0" type="line"/>
      <point x="190" y="0" type="line"/>
      <point x="270" y="433" type="line"/>
      <point x="348" y="433" type="line"/>
      <point x="369" y="544" type="line"/>
      <point x="291" y="544" type="line"/>
      <point x="297" y="590"/>
      <point x="322" y="611"/>
      <point x="371" y="611" type="curve" smooth="yes"/>
      <point x="382" y="611" type="line"/>
      <point x="389" y="611" type="line"/>
      <point x="413" y="737" type="line"/>
      <point x="391" y="739"/>
      <point x="383" y="739"/>
      <point x="374" y="739" type="curve" smooth="yes"/>
      <point x="318" y="739"/>
      <point x="268" y="718"/>
      <point x="226" y="676" type="curve" smooth="yes"/>
      <point x="193" y="643"/>
      <point x="175" y="609"/>
      <point x="158" y="544" type="curve"/>
      <point x="110" y="544" type="line"/>
      <point x="89" y="433" type="line"/>
      <point x="137" y="433" type="line"/>
    </contour>
  </outline>
</glyph>
<glyph name="g" format="1">
  <advance width="660"/>
  <unicode hex="0067"/>
  <outline>
    <contour>
      <point x="587" y="554" type="line"/>
      <point x="574" y="484" type="line"/>
      <point x="536" y="543"/>
      <point x="488" y="567"/>
      <point x="411" y="567" type="curve" smooth="yes"/>
      <point x="229" y="567"/>
      <point x="76" y="407"/>
      <point x="76" y="217" type="curve" smooth="yes"/>
      <point x="76" y="77"/>
      <point x="164" y="-13"/>
      <point x="301" y="-13" type="curve" smooth="yes"/>
      <point x="379" y="-13"/>
      <point x="434" y="11"/>
      <point x="498" y="73" type="curve"/>
      <point x="485" y="21"/>
      <point x="476" y="-2"/>
      <point x="458" y="-28" type="curve" smooth="yes"/>
      <point x="424" y="-78"/>
      <point x="373" y="-104"/>
      <point x="310" y="-104" type="curve" smooth="yes"/>
      <point x="247" y="-104"/>
      <point x="211" y="-87"/>
      <point x="181" y="-45" type="curve"/>
      <point x="30" y="-45" type="line"/>
      <point x="62" y="-162"/>
      <point x="146" y="-221"/>
      <point x="282" y="-221" type="curve" smooth="yes"/>
      <point x="384" y="-221"/>
      <point x="467" y="-187"/>
      <point x="532" y="-120" type="curve" smooth="yes"/>
      <point x="582" y="-68"/>
      <point x="612" y="0"/>
      <point x="631" y="105" type="curve" smooth="yes"/>
      <point x="714" y="554" type="line"/>
    </contour>
    <contour>
      <point x="403" y="445" type="curve" smooth="yes"/>
      <point x="482" y="445"/>
      <point x="534" y="393"/>
      <point x="534" y="315" type="curve" smooth="yes"/>
      <point x="534" y="273"/>
      <point x="517" y="221"/>
      <point x="492" y="185" type="curve" smooth="yes"/>
      <point x="458" y="137"/>
      <point x="403" y="109"/>
      <point x="341" y="109" type="curve" smooth="yes"/>
      <point x="261" y="109"/>
      <point x="213" y="156"/>
      <point x="213" y="233" type="curve" smooth="yes"/>
      <point x="213" y="356"/>
      <point x="293" y="445"/>
    </contour>
  </outline>
</glyph>
<glyph name="i" format="1">
  <advance width="240"/>
  <unicode hex="0069"/>
  <outline>
    <contour>
      <point x="54" y="0" type="line"/>
      <point x="187" y="0" type="line"/>
      <point x="290" y="554" type="line"/>
      <point x="157" y="554" type="line"/>
    </contour>
    <contour>
      <point x="168" y="614" type="line"/>
      <point x="301" y="614" type="line"/>
      <point x="324" y="739" type="line"/>
      <point x="191" y="739" type="line"/>
    </contour>
  </outline>
</glyph>
<glyph name="j" format="1">
  <advance width="260"/>
  <unicode hex="006A"/>
  <outline>
    <contour>
      <point x="175" y="554" type="line"/>
      <point x="80" y="40" type="line" smooth="yes"/>
      <point x="67" y="-34"/>
      <point x="57" y="-47"/>
      <point x="7" y="-56" type="curve"/>
      <point x="-17" y="-185" type="line"/>
      <point x="105" y="-182"/>
      <point x="189" y="-101"/>
      <point x="212" y="37" type="curve" smooth="yes"/>
      <point x="308" y="554" type="line"/>
    </contour>
    <contour>
      <point x="186" y="614" type="line"/>
      <point x="319" y="614" type="line"/>
      <point x="342" y="739" type="line"/>
      <point x="209" y="739" type="line"/>
    </contour>
  </outline>
</glyph>
<glyph name="k" format="1">
  <advance width="580"/>
  <unicode hex="006B"/>
  <outline>
    <contour>
      <point x="54" y="0" type="line"/>
      <point x="187" y="0" type="line"/>
      <point x="235" y="259" type="line"/>
      <point x="376" y="0" type="line"/>
      <point x="555" y="0" type="line"/>
      <point x="377" y="283" type="line"/>
      <point x="625" y="554" type="line"/>
      <point x="466" y="554" type="line"/>
      <point x="241" y="293" type="line"/>
      <point x="324" y="739" type="line"/>
      <point x="191" y="739" type="line"/>
    </contour>
  </outline>
</glyph>
<glyph name="l" format="1">
  <advance width="240"/>
  <unicode hex="006C"/>
  <outline>
    <contour>
      <point x="54" y="0" type="line"/>
      <point x="187" y="0" type="line"/>
      <point x="324" y="739" type="line"/>
      <point x="191" y="739" type="line"/>
    </contour>
  </outline>
</glyph>
<glyph name="m" format="1">
  <advance width="940"/>
  <unicode hex="006D"/>
  <outline>
    <contour>
      <point x="54" y="0" type="line"/>
      <point x="187" y="0" type="line"/>
      <point x="238" y="273" type="line" smooth="yes"/>
      <point x="249" y="334"/>
      <point x="259" y="364"/>
      <point x="273" y="388" type="curve" smooth="yes"/>
      <point x="297" y="425"/>
      <point x="334" y="445"/>
      <point x="378" y="445" type="curve" smooth="yes"/>
      <point x="413" y="445"/>
      <point x="442" y="432"/>
      <point x="456" y="409" type="curve" smooth="yes"/>
      <point x="463" y="398"/>
      <point x="466" y="383"/>
      <point x="466" y="359" type="curve" smooth="yes"/>
      <point x="466" y="349"/>
      <point x="463" y="327"/>
      <point x="459" y="304" type="curve" smooth="yes"/>
      <point x="403" y="0" type="line"/>
      <point x="536" y="0" type="line"/>
      <point x="587" y="273" type="line" smooth="yes"/>
      <point x="599" y="339"/>
      <point x="609" y="368"/>
      <point x="627" y="392" type="curve" smooth="yes"/>
      <point x="652" y="426"/>
      <point x="690" y="445"/>
      <point x="732" y="445" type="curve" smooth="yes"/>
      <point x="781" y="445"/>
      <point x="815" y="414"/>
      <point x="815" y="371" type="curve" smooth="yes"/>
      <point x="815" y="352"/>
      <point x="813" y="329"/>
      <point x="808" y="304" type="curve" smooth="yes"/>
      <point x="752" y="0" type="line"/>
      <point x="885" y="0" type="line"/>
      <point x="944" y="320" type="line" smooth="yes"/>
      <point x="949" y="349"/>
      <point x="952" y="376"/>
      <point x="952" y="402" type="curve" smooth="yes"/>
      <point x="952" y="506"/>
      <point x="884" y="567"/>
      <point x="767" y="567" type="curve" smooth="yes"/>
      <point x="687" y="567"/>
      <point x="624" y="539"/>
      <point x="572" y="481" type="curve"/>
      <point x="559" y="512"/>
      <point x="549" y="525"/>
      <point x="529" y="539" type="curve" smooth="yes"/>
      <point x="501" y="558"/>
      <point x="468" y="567"/>
      <point x="427" y="567" type="curve" smooth="yes"/>
      <point x="360" y="567"/>
      <point x="315" y="548"/>
      <point x="269" y="502" type="curve"/>
      <point x="279" y="554" type="line"/>
      <point x="157" y="554" type="line"/>
    </contour>
  </outline>
</glyph>
<glyph name="o" format="1">
  <advance width="640"/>
  <unicode hex="006F"/>
  <outline>
    <contour>
      <point x="431" y="567" type="curve" smooth="yes"/>
      <point x="243" y="567"/>
      <point x="76" y="404"/>
      <point x="76" y="221" type="curve" smooth="yes"/>
      <point x="76" y="88"/>
      <point x="181" y="-13"/>
      <point x="318" y="-13" type="curve" smooth="yes"/>
      <point x="506" y="-13"/>
      <point x="675" y="148"/>
      <point x="675" y="327" type="curve" smooth="yes"/>
      <point x="675" y="466"/>
      <point x="573" y="567"/>
    </contour>
    <contour>
      <point x="408" y="445" type="curve" smooth="yes"/>
      <point x="483" y="445"/>
      <point x="538" y="387"/>
      <point x="538" y="309" type="curve" smooth="yes"/>
      <point x="538" y="206"/>
      <point x="445" y="109"/>
      <point x="345" y="109" type="curve" smooth="yes"/>
      <point x="269" y="109"/>
      <point x="213" y="166"/>
      <point x="213" y="244" type="curve" smooth="yes"/>
      <point x="213" y="349"/>
      <point x="306" y="445"/>
    </contour>
  </outline>
</glyph>
<glyph name="q" format="1">
  <advance width="660"/>
  <unicode hex="0071"/>
  <outline>
    <contour>
      <point x="592" y="554" type="line"/>
      <point x="578" y="483" type="line"/>
      <point x="565" y="509"/>
      <point x="556" y="519"/>
      <point x="534" y="534" type="curve" smooth="yes"/>
      <point x="500" y="556"/>
      <point x="463" y="567"/>
      <point x="416" y="567" type="curve" smooth="yes"/>
      <point x="237" y="567"/>
      <point x="77" y="404"/>
      <point x="77" y="223" type="curve" smooth="yes"/>
      <point x="77" y="83"/>
      <point x="170" y="-13"/>
      <point x="306" y="-13" type="curve" smooth="yes"/>
      <point x="374" y="-13"/>
      <point x="440" y="11"/>
      <point x="488" y="53" type="curve"/>
      <point x="444" y="-185" type="line"/>
      <point x="577" y="-185" type="line"/>
      <point x="714" y="554" type="line"/>
    </contour>
    <contour>
      <point x="410" y="445" type="curve" smooth="yes"/>
      <point x="488" y="445"/>
      <point x="540" y="390"/>
      <point x="540" y="307" type="curve" smooth="yes"/>
      <point x="540" y="202"/>
      <point x="449" y="109"/>
      <point x="346" y="109" type="curve" smooth="yes"/>
      <point x="265" y="109"/>
      <point x="214" y="161"/>
      <point x="214" y="243" type="curve" smooth="yes"/>
      <point x="214" y="353"/>
      <point x="304" y="445"/>
    </contour>
  </outline>
</glyph>
<glyph name="v" format="1">
  <advance width="560"/>
  <unicode hex="0076"/>
  <outline>
    <contour>
      <point x="224" y="0" type="line"/>
      <point x="330" y="0" type="line"/>
      <point x="656" y="554" type="line"/>
      <point x="506" y="554" type="line"/>
      <point x="312" y="187" type="line"/>
      <point x="252" y="554" type="line"/>
      <point x="104" y="554" type="line"/>
    </contour>
  </outline>
</glyph>
<glyph name="w" format="1">
  <advance width="800"/>
  <unicode hex="0077"/>
  <outline>
    <contour>
      <point x="208" y="0" type="line"/>
      <point x="290" y="0" type="line"/>
      <point x="464" y="359" type="line"/>
      <point x="502" y="0" type="line"/>
      <point x="585" y="0" type="line"/>
      <point x="888" y="554" type="line"/>
      <point x="746" y="554" type="line"/>
      <point x="582" y="216" type="line"/>
      <point x="554" y="554" type="line"/>
      <point x="448" y="554" type="line"/>
      <point x="292" y="216" type="line"/>
      <point x="256" y="554" type="line"/>
      <point x="113" y="554" type="line"/>
    </contour>
  </outline>
</glyph>
<glyph name="y" format="1">
  <advance width="580"/>
  <unicode hex="0079"/>
  <outline>
    <contour>
      <point x="73" y="-185" type="line"/>
      <point x="216" y="-185" type="line"/>
      <point x="671" y="554" type="line"/>
      <point x="518" y="554" type="line"/>
      <point x="317" y="195" type="line"/>
      <point x="261" y="554" type="line"/>
      <point x="109" y="554" type="line"/>
      <point x="219" y="52" type="line"/>
    </contour>
  </outline>
</glyph>
<glyph name="z" format="1">
  <advance width="460"/>
  <unicode hex="007A"/>
  <outline>
    <contour>
      <point x="20" y="0" type="line"/>
      <point x="443" y="0" type="line"/>
      <point x="465" y="118" type="line"/>
      <point x="202" y="118" type="line"/>
      <point x="506" y="436" type="line"/>
      <point x="528" y="554" type="line"/>
      <point x="152" y="554" type="line"/>
      <point x="130" y="436" type="line"/>
      <point x="347" y="436" type="line"/>
      <point x="42" y="118" type="line"/>
    </contour>
  </outline>
</glyph>
<glyph name="braceleft" format="1">
  <advance width="340"/>
  <unicode hex="007B"/>
  <outline>
    <contour>
      <point x="330" y="557" type="line"/>
      <point x="343" y="611" type="line"/>
      <point x="346" y="621"/>
      <point x="350" y="629"/>
      <point x="356" y="635" type="curve" smooth="yes"/>
      <point x="372" y="650"/>
      <point x="383" y="654"/>
      <point x="424" y="659" type="curve"/>
      <point x="439" y="739" type="line"/>
      <point x="425" y="740"/>
      <point x="415" y="740"/>
      <point x="408" y="740" type="curve" smooth="yes"/>
      <point x="303" y="740"/>
      <point x="251" y="699"/>
      <point x="233" y="601" type="curve" smooth="yes"/>
      <point x="204" y="444" type="line" smooth="yes"/>
      <point x="195" y="386"/>
      <point x="171" y="360"/>
      <point x="109" y="346" type="curve"/>
      <point x="94" y="265" type="line"/>
      <point x="136" y="256"/>
      <point x="157" y="235"/>
      <point x="157" y="201" type="curve" smooth="yes"/>
      <point x="157" y="193"/>
      <point x="156" y="181"/>
      <point x="153" y="167" type="curve" smooth="yes"/>
      <point x="124" y="10" type="line" smooth="yes"/>
      <point x="121" y="-4"/>
      <point x="119" y="-25"/>
      <point x="119" y="-34" type="curve" smooth="yes"/>
      <point x="119" y="-100"/>
      <point x="158" y="-129"/>
      <point x="246" y="-129" type="curve" smooth="yes"/>
      <point x="254" y="-129"/>
      <point x="264" y="-129"/>
      <point x="278" y="-128" type="curve"/>
      <point x="293" y="-48" type="line"/>
      <point x="256" y="-45"/>
      <point x="232" y="-35"/>
      <point x="230" y="-21" type="curve"/>
      <point x="230" y="-21"/>
      <point x="227" y="-6"/>
      <point x="227" y="-6" type="curve"/>
      <point x="227" y="-6"/>
      <point x="230" y="12"/>
      <point x="230" y="12" type="curve"/>
      <point x="231" y="23"/>
      <point x="234" y="37"/>
      <point x="237" y="54" type="curve" smooth="yes"/>
      <point x="260" y="177" type="line" smooth="yes"/>
      <point x="263" y="191"/>
      <point x="264" y="206"/>
      <point x="264" y="223" type="curve" smooth="yes"/>
      <point x="264" y="271"/>
      <point x="244" y="294"/>
      <point x="193" y="305" type="curve"/>
      <point x="198" y="307"/>
      <point x="201" y="308"/>
      <point x="203" y="308" type="curve"/>
      <point x="260" y="319"/>
      <point x="296" y="363"/>
      <point x="307" y="434" type="curve" smooth="yes"/>
    </contour>
  </outline>
</glyph>
<glyph name="braceright" format="1">
  <advance width="340"/>
  <unicode hex="007D"/>
  <outline>
    <contour>
      <point x="123" y="54" type="line" smooth="yes"/>
      <point x="119" y="37"/>
      <point x="116" y="23"/>
      <point x="113" y="12" type="curve"/>
      <point x="110" y="-5"/>
      <point x="110" y="-7"/>
      <point x="104" y="-17" type="curve"/>
      <point x="91" y="-35"/>
      <point x="74" y="-42"/>
      <point x="36" y="-47" type="curve" smooth="yes"/>
      <point x="29" y="-48" type="line"/>
      <point x="14" y="-128" type="line"/>
      <point x="28" y="-129"/>
      <point x="39" y="-129"/>
      <point x="46" y="-129" type="curve" smooth="yes"/>
      <point x="95" y="-129"/>
      <point x="129" y="-121"/>
      <point x="158" y="-102" type="curve" smooth="yes"/>
      <point x="191" y="-81"/>
      <point x="210" y="-47"/>
      <point x="220" y="10" type="curve" smooth="yes"/>
      <point x="249" y="167" type="line" smooth="yes"/>
      <point x="259" y="225"/>
      <point x="289" y="256"/>
      <point x="345" y="265" type="curve"/>
      <point x="360" y="346" type="line"/>
      <point x="320" y="352"/>
      <point x="297" y="376"/>
      <point x="297" y="411" type="curve" smooth="yes"/>
      <point x="297" y="422"/>
      <point x="298" y="433"/>
      <point x="300" y="444" type="curve" smooth="yes"/>
      <point x="329" y="601" type="line" smooth="yes"/>
      <point x="332" y="615"/>
      <point x="334" y="636"/>
      <point x="334" y="645" type="curve" smooth="yes"/>
      <point x="334" y="710"/>
      <point x="295" y="740"/>
      <point x="208" y="740" type="curve" smooth="yes"/>
      <point x="200" y="740"/>
      <point x="190" y="740"/>
      <point x="175" y="739" type="curve"/>
      <point x="160" y="659" type="line"/>
      <point x="215" y="651"/>
      <point x="226" y="643"/>
      <point x="226" y="613" type="curve" smooth="yes"/>
      <point x="226" y="607"/>
      <point x="224" y="596"/>
      <point x="221" y="582" type="curve"/>
      <point x="221" y="582"/>
      <point x="218" y="569"/>
      <point x="216" y="557" type="curve" smooth="yes"/>
      <point x="193" y="434" type="line" smooth="yes"/>
      <point x="190" y="420"/>
      <point x="189" y="406"/>
      <point x="189" y="391" type="curve" smooth="yes"/>
      <point x="189" y="342"/>
      <point x="208" y="319"/>
      <point x="260" y="306" type="curve"/>
      <point x="255" y="304"/>
      <point x="252" y="303"/>
      <point x="251" y="303" type="curve"/>
      <point x="191" y="290"/>
      <point x="161" y="253"/>
      <point x="146" y="177" type="curve" smooth="yes"/>
    </contour>
  </outline>
</glyph>
<glyph name="asciitilde" format="1">
  <advance width="600"/>
  <unicode hex="007E"/>
  <outline>
    <contour>
      <point x="569" y="421" type="line"/>
      <point x="534" y="374"/>
      <point x="501" y="347"/>
      <point x="478" y="347" type="curve" smooth="yes"/>
      <point x="462" y="347"/>
      <point x="461" y="347"/>
      <point x="412" y="369" type="curve" smooth="yes"/>
      <point x="349" y="396" type="line" smooth="yes"/>
      <point x="328" y="406"/>
      <point x="299" y="412"/>
      <point x="277" y="412" type="curve" smooth="yes"/>
      <point x="238" y="412"/>
      <point x="199" y="394"/>
      <point x="166" y="361" type="curve" smooth="yes"/>
      <point x="147" y="342"/>
      <point x="136" y="329"/>
      <point x="105" y="289" type="curve"/>
      <point x="154" y="214" type="line"/>
      <point x="158" y="219"/>
      <point x="161" y="223"/>
      <point x="163" y="224" type="curve"/>
      <point x="198" y="268"/>
      <point x="198" y="268"/>
      <point x="205" y="274" type="curve" smooth="yes"/>
      <point x="222" y="289"/>
      <point x="238" y="296"/>
      <point x="256" y="296" type="curve" smooth="yes"/>
      <point x="271" y="296"/>
      <point x="277" y="294"/>
      <point x="316" y="276" type="curve" smooth="yes"/>
      <point x="366" y="254" type="line" smooth="yes"/>
      <point x="400" y="239"/>
      <point x="432" y="230"/>
      <point x="454" y="230" type="curve" smooth="yes"/>
      <point x="506" y="230"/>
      <point x="552" y="262"/>
      <point x="619" y="347" type="curve"/>
    </contour>
  </outline>
</glyph>
<glyph name="exclamdown" format="1">
  <advance width="280"/>
  <unicode hex="00A1"/>
  <outline>
    <contour>
      <point x="273" y="366" type="line"/>
      <point x="140" y="366" type="line"/>
      <point x="38" y="-185" type="line"/>
      <point x="171" y="-185" type="line"/>
    </contour>
    <contour>
      <point x="308" y="554" type="line"/>
      <point x="175" y="554" type="line"/>
      <point x="151" y="426" type="line"/>
      <point x="284" y="426" type="line"/>
    </contour>
  </outline>
</glyph>
<glyph name="cent" format="1">
  <advance width="560"/>
  <unicode hex="00A2"/>
  <outline>
    <contour>
      <point x="350" y="39" type="line"/>
      <point x="371" y="148" type="line"/>
      <point x="457" y="172"/>
      <point x="514" y="218"/>
      <point x="569" y="310" type="curve"/>
      <point x="423" y="310" type="line"/>
      <point x="381" y="278"/>
      <point x="363" y="270"/>
      <point x="333" y="270" type="curve" smooth="yes"/>
      <point x="279" y="270"/>
      <point x="243" y="305"/>
      <point x="243" y="358" type="curve" smooth="yes"/>
      <point x="243" y="429"/>
      <point x="301" y="489"/>
      <point x="370" y="489" type="curve" smooth="yes"/>
      <point x="403" y="489"/>
      <point x="440" y="468"/>
      <point x="451" y="443" type="curve"/>
      <point x="593" y="443" type="line"/>
      <point x="591" y="525"/>
      <point x="537" y="592"/>
      <point x="456" y="611" type="curve"/>
      <point x="476" y="715" type="line"/>
      <point x="351" y="715" type="line"/>
      <point x="331" y="611" type="line"/>
      <point x="269" y="596"/>
      <point x="224" y="570"/>
      <point x="182" y="524" type="curve" smooth="yes"/>
      <point x="134" y="472"/>
      <point x="106" y="400"/>
      <point x="106" y="333" type="curve" smooth="yes"/>
      <point x="106" y="288"/>
      <point x="120" y="244"/>
      <point x="146" y="210" type="curve" smooth="yes"/>
      <point x="171" y="176"/>
      <point x="198" y="159"/>
      <point x="246" y="148" type="curve"/>
      <point x="225" y="39" type="line"/>
    </contour>
  </outline>
</glyph>
<glyph name="sterling" format="1">
  <advance width="560"/>
  <unicode hex="00A3"/>
  <outline>
    <contour>
      <point x="40" y="0" type="line"/>
      <point x="301" y="0" type="line" smooth="yes"/>
      <point x="405" y="0"/>
      <point x="463" y="19"/>
      <point x="520" y="73" type="curve" smooth="yes"/>
      <point x="569" y="118"/>
      <point x="606" y="192"/>
      <point x="606" y="243" type="curve" smooth="yes"/>
      <point x="606" y="253"/>
      <point x="605" y="260"/>
      <point x="603" y="274" type="curve"/>
      <point x="471" y="274" type="line"/>
      <point x="470" y="224"/>
      <point x="469" y="221"/>
      <point x="465" y="207" type="curve" smooth="yes"/>
      <point x="448" y="156"/>
      <point x="405" y="125"/>
      <point x="354" y="125" type="curve" smooth="yes"/>
      <point x="347" y="125" type="line"/>
      <point x="344" y="125" type="line"/>
      <point x="367" y="175"/>
      <point x="373" y="198"/>
      <point x="373" y="234" type="curve" smooth="yes"/>
      <point x="373" y="261"/>
      <point x="369" y="280"/>
      <point x="358" y="310" type="curve"/>
      <point x="465" y="310" type="line"/>
      <point x="489" y="435" type="line"/>
      <point x="282" y="435" type="line"/>
      <point x="274" y="451"/>
      <point x="270" y="470"/>
      <point x="270" y="489" type="curve" smooth="yes"/>
      <point x="270" y="563"/>
      <point x="332" y="630"/>
      <point x="400" y="630" type="curve" smooth="yes"/>
      <point x="429" y="630"/>
      <point x="454" y="615"/>
      <point x="470" y="586" type="curve" smooth="yes"/>
      <point x="478" y="572"/>
      <point x="479" y="565"/>
      <point x="479" y="541" type="curve"/>
      <point x="614" y="541" type="line"/>
      <point x="615" y="555"/>
      <point x="616" y="565"/>
      <point x="616" y="572" type="curve" smooth="yes"/>
      <point x="616" y="675"/>
      <point x="531" y="752"/>
      <point x="418" y="752" type="curve" smooth="yes"/>
      <point x="269" y="752"/>
      <point x="133" y="620"/>
      <point x="133" y="474" type="curve" smooth="yes"/>
      <point x="133" y="458"/>
      <point x="134" y="451"/>
      <point x="139" y="435" type="curve"/>
      <point x="81" y="435" type="line"/>
      <point x="57" y="310" type="line"/>
      <point x="199" y="310" type="line"/>
      <point x="225" y="282"/>
      <point x="237" y="254"/>
      <point x="237" y="224" type="curve" smooth="yes"/>
      <point x="237" y="189"/>
      <point x="225" y="155"/>
      <point x="203" y="125" type="curve"/>
      <point x="63" y="125" type="line"/>
    </contour>
  </outline>
</glyph>
<glyph name="currency" format="1">
  <advance width="560"/>
  <unicode hex="00A4"/>
  <outline>
    <contour>
      <point x="133" y="574" type="line"/>
      <point x="168" y="529" type="line"/>
      <point x="126" y="477"/>
      <point x="102" y="411"/>
      <point x="102" y="346" type="curve" smooth="yes"/>
      <point x="102" y="321"/>
      <point x="107" y="300"/>
      <point x="120" y="272" type="curve"/>
      <point x="69" y="229" type="line"/>
      <point x="134" y="148" type="line"/>
      <point x="185" y="190" type="line"/>
      <point x="221" y="167"/>
      <point x="265" y="153"/>
      <point x="305" y="153" type="curve" smooth="yes"/>
      <point x="350" y="153"/>
      <point x="408" y="168"/>
      <point x="447" y="190" type="curve"/>
      <point x="484" y="148" type="line"/>
      <point x="576" y="229" type="line"/>
      <point x="542" y="272" type="line"/>
      <point x="567" y="305"/>
      <point x="578" y="322"/>
      <point x="586" y="341" type="curve" smooth="yes"/>
      <point x="598" y="368"/>
      <point x="607" y="415"/>
      <point x="607" y="446" type="curve" smooth="yes"/>
      <point x="607" y="473"/>
      <point x="603" y="495"/>
      <point x="590" y="529" type="curve"/>
      <point x="640" y="572" type="line"/>
      <point x="578" y="654" type="line"/>
      <point x="525" y="610" type="line"/>
      <point x="488" y="634"/>
      <point x="445" y="646"/>
      <point x="399" y="646" type="curve" smooth="yes"/>
      <point x="354" y="646"/>
      <point x="308" y="634"/>
      <point x="265" y="610" type="curve"/>
      <point x="228" y="654" type="line"/>
    </contour>
    <contour>
      <point x="381" y="525" type="curve" smooth="yes"/>
      <point x="439" y="525"/>
      <point x="484" y="480"/>
      <point x="484" y="422" type="curve" smooth="yes"/>
      <point x="484" y="344"/>
      <point x="410" y="273"/>
      <point x="329" y="273" type="curve" smooth="yes"/>
      <point x="274" y="273"/>
      <point x="225" y="319"/>
      <point x="225" y="371" type="curve" smooth="yes"/>
      <point x="225" y="404"/>
      <point x="238" y="442"/>
      <point x="258" y="465" type="curve" smooth="yes"/>
      <point x="290" y="502"/>
      <point x="337" y="525"/>
    </contour>
  </outline>
</glyph>
<glyph name="yen" format="1">
  <advance width="560"/>
  <unicode hex="00A5"/>
  <outline>
    <contour>
      <point x="210" y="0" type="line"/>
      <point x="343" y="0" type="line"/>
      <point x="378" y="187" type="line"/>
      <point x="570" y="187" type="line"/>
      <point x="586" y="274" type="line"/>
      <point x="394" y="274" type="line"/>
      <point x="470" y="380" type="line"/>
      <point x="614" y="380" type="line"/>
      <point x="630" y="467" type="line"/>
      <point x="535" y="467" type="line"/>
      <point x="726" y="739" type="line"/>
      <point x="572" y="739" type="line"/>
      <point x="350" y="398" type="line"/>
      <point x="253" y="739" type="line"/>
      <point x="104" y="739" type="line"/>
      <point x="194" y="467" type="line"/>
      <point x="97" y="467" type="line"/>
      <point x="81" y="380" type="line"/>
      <point x="225" y="380" type="line"/>
      <point x="261" y="274" type="line"/>
      <point x="67" y="274" type="line"/>
      <point x="51" y="187" type="line"/>
      <point x="245" y="187" type="line"/>
    </contour>
  </outline>
</glyph>
<glyph name="brokenbar" format="1">
  <advance width="600"/>
  <unicode hex="00A6"/>
  <outline>
    <contour>
      <point x="499" y="739" type="line"/>
      <point x="380" y="739" type="line"/>
      <point x="324" y="437" type="line"/>
      <point x="443" y="437" type="line"/>
    </contour>
    <contour>
      <point x="418" y="302" type="line"/>
      <point x="299" y="302" type="line"/>
      <point x="243" y="0" type="line"/>
      <point x="362" y="0" type="line"/>
    </contour>
  </outline>
</glyph>
<glyph name="section" format="1">
  <advance width="560"/>
  <unicode hex="00A7"/>
  <outline>
    <contour>
      <point x="607" y="563" type="line"/>
      <point x="608" y="575"/>
      <point x="608" y="585"/>
      <point x="608" y="592" type="curve" smooth="yes"/>
      <point x="608" y="693"/>
      <point x="544" y="752"/>
      <point x="435" y="752" type="curve" smooth="yes"/>
      <point x="301" y="752"/>
      <point x="198" y="667"/>
      <point x="198" y="555" type="curve" smooth="yes"/>
      <point x="198" y="530"/>
      <point x="201" y="515"/>
      <point x="212" y="493" type="curve"/>
      <point x="138" y="447"/>
      <point x="102" y="388"/>
      <point x="102" y="310" type="curve" smooth="yes"/>
      <point x="102" y="253"/>
      <point x="123" y="218"/>
      <point x="178" y="187" type="curve" smooth="yes"/>
      <point x="326" y="103" type="line" smooth="yes"/>
      <point x="378" y="73"/>
      <point x="388" y="64"/>
      <point x="388" y="42" type="curve" smooth="yes"/>
      <point x="388" y="-1"/>
      <point x="343" y="-35"/>
      <point x="288" y="-35" type="curve" smooth="yes"/>
      <point x="239" y="-35"/>
      <point x="200" y="-9"/>
      <point x="200" y="24" type="curve" smooth="yes"/>
      <point x="200" y="33"/>
      <point x="201" y="43"/>
      <point x="204" y="55" type="curve"/>
      <point x="71" y="55" type="line"/>
      <point x="69" y="37"/>
      <point x="68" y="21"/>
      <point x="68" y="9" type="curve" smooth="yes"/>
      <point x="68" y="-33"/>
      <point x="86" y="-76"/>
      <point x="117" y="-107" type="curve" smooth="yes"/>
      <point x="150" y="-140"/>
      <point x="200" y="-157"/>
      <point x="261" y="-157" type="curve" smooth="yes"/>
      <point x="340" y="-157"/>
      <point x="411" y="-128"/>
      <point x="457" y="-77" type="curve" smooth="yes"/>
      <point x="493" y="-39"/>
      <point x="516" y="18"/>
      <point x="516" y="63" type="curve" smooth="yes"/>
      <point x="516" y="97"/>
      <point x="505" y="128"/>
      <point x="485" y="150" type="curve"/>
      <point x="522" y="178"/>
      <point x="538" y="193"/>
      <point x="552" y="212" type="curve" smooth="yes"/>
      <point x="576" y="246"/>
      <point x="590" y="286"/>
      <point x="590" y="321" type="curve" smooth="yes"/>
      <point x="590" y="369"/>
      <point x="567" y="408"/>
      <point x="524" y="431" type="curve" smooth="yes"/>
      <point x="375" y="512" type="line" smooth="yes"/>
      <point x="340" y="531"/>
      <point x="326" y="548"/>
      <point x="326" y="571" type="curve" smooth="yes"/>
      <point x="326" y="608"/>
      <point x="356" y="630"/>
      <point x="404" y="630" type="curve" smooth="yes"/>
      <point x="458" y="630"/>
      <point x="477" y="613"/>
      <point x="481" y="563" type="curve"/>
    </contour>
    <contour>
      <point x="410" y="339" type="line" smooth="yes"/>
      <point x="453" y="316"/>
      <point x="462" y="306"/>
      <point x="462" y="286" type="curve" smooth="yes"/>
      <point x="462" y="262"/>
      <point x="446" y="240"/>
      <point x="411" y="215" type="curve"/>
      <point x="273" y="291" type="line" smooth="yes"/>
      <point x="259" y="299"/>
      <point x="243" y="310"/>
      <point x="235" y="317" type="curve"/>
      <point x="225" y="327"/>
      <point x="224" y="329"/>
      <point x="223" y="342" type="curve" smooth="yes"/>
      <point x="222" y="354" type="line" smooth="yes"/>
      <point x="221" y="368"/>
      <point x="243" y="393"/>
      <point x="275" y="413" type="curve"/>
    </contour>
  </outline>
</glyph>
<glyph name="dieresis" format="1">
  <advance width="500"/>
  <unicode hex="00A8"/>
  <outline>
    <contour>
      <point x="189" y="630" type="line"/>
      <point x="322" y="630" type="line"/>
      <point x="347" y="762" type="line"/>
      <point x="214" y="762" type="line"/>
    </contour>
    <contour>
      <point x="399" y="630" type="line"/>
      <point x="532" y="630" type="line"/>
      <point x="557" y="762" type="line"/>
      <point x="424" y="762" type="line"/>
    </contour>
  </outline>
</glyph>
<glyph name="copyright" format="1">
  <advance width="740"/>
  <unicode hex="00A9"/>
  <outline>
    <contour>
      <point x="537" y="320" type="line"/>
      <point x="506" y="274"/>
      <point x="468" y="250"/>
      <point x="424" y="250" type="curve" smooth="yes"/>
      <point x="370" y="250"/>
      <point x="334" y="289"/>
      <point x="334" y="348" type="curve" smooth="yes"/>
      <point x="334" y="425"/>
      <point x="398" y="494"/>
      <point x="469" y="494" type="curve" smooth="yes"/>
      <point x="514" y="494"/>
      <point x="547" y="466"/>
      <point x="555" y="422" type="curve"/>
      <point x="666" y="422" type="line"/>
      <point x="665" y="517"/>
      <point x="589" y="587"/>
      <point x="486" y="587" type="curve" smooth="yes"/>
      <point x="349" y="587"/>
      <point x="226" y="467"/>
      <point x="226" y="333" type="curve" smooth="yes"/>
      <point x="226" y="230"/>
      <point x="302" y="157"/>
      <point x="408" y="157" type="curve" smooth="yes"/>
      <point x="509" y="157"/>
      <point x="605" y="222"/>
      <point x="647" y="320" type="curve"/>
    </contour>
    <contour>
      <point x="513" y="752" type="curve" smooth="yes"/>
      <point x="272" y="752"/>
      <point x="50" y="535"/>
      <point x="50" y="300" type="curve" smooth="yes"/>
      <point x="50" y="121"/>
      <point x="186" y="-13"/>
      <point x="367" y="-13" type="curve" smooth="yes"/>
      <point x="612" y="-13"/>
      <point x="834" y="202"/>
      <point x="834" y="439" type="curve" smooth="yes"/>
      <point x="834" y="620"/>
      <point x="699" y="752"/>
    </contour>
    <contour>
      <point x="502" y="675" type="curve" smooth="yes"/>
      <point x="646" y="675"/>
      <point x="753" y="569"/>
      <point x="753" y="426" type="curve" smooth="yes"/>
      <point x="753" y="237"/>
      <point x="577" y="67"/>
      <point x="383" y="67" type="curve" smooth="yes"/>
      <point x="239" y="67"/>
      <point x="131" y="173"/>
      <point x="131" y="315" type="curve" smooth="yes"/>
      <point x="131" y="504"/>
      <point x="307" y="675"/>
    </contour>
  </outline>
</glyph>
<glyph name="ordfeminine" format="1">
  <advance width="360"/>
  <unicode hex="00AA"/>
  <outline>
    <contour>
      <point x="480" y="741" type="line"/>
      <point x="414" y="741" type="line"/>
      <point x="406" y="702" type="line"/>
      <point x="387" y="734"/>
      <point x="357" y="752"/>
      <point x="321" y="752" type="curve" smooth="yes"/>
      <point x="271" y="752"/>
      <point x="220" y="727"/>
      <point x="185" y="685" type="curve" smooth="yes"/>
      <point x="158" y="653"/>
      <point x="138" y="600"/>
      <point x="138" y="560" type="curve" smooth="yes"/>
      <point x="138" y="536"/>
      <point x="147" y="502"/>
      <point x="158" y="484" type="curve" smooth="yes"/>
      <point x="176" y="455"/>
      <point x="217" y="433"/>
      <point x="254" y="433" type="curve" smooth="yes"/>
      <point x="293" y="433"/>
      <point x="336" y="452"/>
      <point x="366" y="484" type="curve"/>
      <point x="358" y="443" type="line"/>
      <point x="424" y="443" type="line"/>
    </contour>
    <contour>
      <point x="315" y="679" type="curve" smooth="yes"/>
      <point x="353" y="679"/>
      <point x="382" y="650"/>
      <point x="382" y="613" type="curve" smooth="yes"/>
      <point x="382" y="556"/>
      <point x="335" y="506"/>
      <point x="282" y="506" type="curve" smooth="yes"/>
      <point x="245" y="506"/>
      <point x="217" y="536"/>
      <point x="217" y="576" type="curve" smooth="yes"/>
      <point x="217" y="628"/>
      <point x="265" y="679"/>
    </contour>
    <contour>
      <point x="90" y="312" type="line"/>
      <point x="405" y="312" type="line"/>
      <point x="418" y="382" type="line"/>
      <point x="103" y="382" type="line"/>
    </contour>
  </outline>
</glyph>
<glyph name="guillemotleft" format="1">
  <advance width="460"/>
  <unicode hex="00AB"/>
  <outline>
    <contour>
      <point x="200" y="108" type="line"/>
      <point x="223" y="231" type="line"/>
      <point x="166" y="289" type="line"/>
      <point x="244" y="346" type="line"/>
      <point x="267" y="469" type="line"/>
      <point x="104" y="339" type="line"/>
      <point x="85" y="239" type="line"/>
    </contour>
    <contour>
      <point x="413" y="108" type="line"/>
      <point x="436" y="231" type="line"/>
      <point x="379" y="289" type="line"/>
      <point x="457" y="346" type="line"/>
      <point x="480" y="469" type="line"/>
      <point x="317" y="339" type="line"/>
      <point x="298" y="239" type="line"/>
    </contour>
  </outline>
</glyph>
<glyph name="logicalnot" format="1">
  <advance width="600"/>
  <unicode hex="00AC"/>
  <outline>
    <contour>
      <point x="138" y="471" type="line"/>
      <point x="117" y="359" type="line"/>
      <point x="508" y="359" type="line"/>
      <point x="475" y="182" type="line"/>
      <point x="589" y="182" type="line"/>
      <point x="643" y="471" type="line"/>
    </contour>
  </outline>
</glyph>
<glyph name="registered" format="1">
  <advance width="740"/>
  <unicode hex="00AE"/>
  <outline>
    <contour>
      <point x="260" y="166" type="line"/>
      <point x="361" y="166" type="line"/>
      <point x="386" y="300" type="line"/>
      <point x="458" y="166" type="line"/>
      <point x="578" y="166" type="line"/>
      <point x="492" y="307" type="line"/>
      <point x="566" y="319"/>
      <point x="621" y="387"/>
      <point x="621" y="465" type="curve" smooth="yes"/>
      <point x="621" y="499"/>
      <point x="609" y="529"/>
      <point x="589" y="549" type="curve" smooth="yes"/>
      <point x="565" y="572"/>
      <point x="536" y="579"/>
      <point x="468" y="579" type="curve" smooth="yes"/>
      <point x="337" y="579" type="line"/>
    </contour>
    <contour>
      <point x="399" y="372" type="line"/>
      <point x="421" y="486" type="line"/>
      <point x="459" y="486" type="line" smooth="yes"/>
      <point x="497" y="486"/>
      <point x="517" y="471"/>
      <point x="517" y="441" type="curve" smooth="yes"/>
      <point x="517" y="400"/>
      <point x="484" y="372"/>
      <point x="437" y="372" type="curve" smooth="yes"/>
    </contour>
    <contour>
      <point x="513" y="752" type="curve" smooth="yes"/>
      <point x="272" y="752"/>
      <point x="50" y="535"/>
      <point x="50" y="300" type="curve" smooth="yes"/>
      <point x="50" y="121"/>
      <point x="186" y="-13"/>
      <point x="367" y="-13" type="curve" smooth="yes"/>
      <point x="612" y="-13"/>
      <point x="834" y="202"/>
      <point x="834" y="439" type="curve" smooth="yes"/>
      <point x="834" y="620"/>
      <point x="699" y="752"/>
    </contour>
    <contour>
      <point x="502" y="675" type="curve" smooth="yes"/>
      <point x="646" y="675"/>
      <point x="753" y="569"/>
      <point x="753" y="426" type="curve" smooth="yes"/>
      <point x="753" y="237"/>
      <point x="577" y="67"/>
      <point x="383" y="67" type="curve" smooth="yes"/>
      <point x="238" y="67"/>
      <point x="131" y="173"/>
      <point x="131" y="315" type="curve" smooth="yes"/>
      <point x="131" y="504"/>
      <point x="308" y="675"/>
    </contour>
  </outline>
</glyph>
<glyph name="macron" format="1">
  <advance width="420"/>
  <unicode hex="00AF"/>
  <outline>
    <contour>
      <point x="189" y="650" type="line"/>
      <point x="468" y="650" type="line"/>
      <point x="486" y="749" type="line"/>
      <point x="206" y="749" type="line"/>
    </contour>
  </outline>
</glyph>
<glyph name="degree" format="1">
  <advance width="400"/>
  <unicode hex="00B0"/>
  <outline>
    <contour>
      <point x="312" y="686" type="curve" smooth="yes"/>
      <point x="226" y="686"/>
      <point x="157" y="620"/>
      <point x="157" y="537" type="curve" smooth="yes"/>
      <point x="157" y="453"/>
      <point x="225" y="386"/>
      <point x="309" y="386" type="curve" smooth="yes"/>
      <point x="394" y="386"/>
      <point x="462" y="453"/>
      <point x="462" y="536" type="curve" smooth="yes"/>
      <point x="462" y="618"/>
      <point x="394" y="686"/>
    </contour>
    <contour>
      <point x="311" y="629" type="curve" smooth="yes"/>
      <point x="362" y="629"/>
      <point x="405" y="586"/>
      <point x="405" y="536" type="curve" smooth="yes"/>
      <point x="405" y="485"/>
      <point x="362" y="443"/>
      <point x="309" y="443" type="curve" smooth="yes"/>
      <point x="257" y="443"/>
      <point x="214" y="485"/>
      <point x="214" y="537" type="curve" smooth="yes"/>
      <point x="214" y="588"/>
      <point x="257" y="629"/>
    </contour>
  </outline>
</glyph>
<glyph name="plusminus" format="1">
  <advance width="600"/>
  <unicode hex="00B1"/>
  <outline>
    <contour>
      <point x="323" y="432" type="line"/>
      <point x="131" y="432" type="line"/>
      <point x="109" y="314" type="line"/>
      <point x="301" y="314" type="line"/>
      <point x="273" y="164" type="line"/>
      <point x="393" y="164" type="line"/>
      <point x="421" y="314" type="line"/>
      <point x="613" y="314" type="line"/>
      <point x="635" y="432" type="line"/>
      <point x="443" y="432" type="line"/>
      <point x="479" y="627" type="line"/>
      <point x="359" y="627" type="line"/>
    </contour>
    <contour>
      <point x="577" y="118" type="line"/>
      <point x="73" y="118" type="line"/>
      <point x="51" y="0" type="line"/>
      <point x="555" y="0" type="line"/>
    </contour>
  </outline>
</glyph>
<glyph name="acute" format="1">
  <advance width="420"/>
  <unicode hex="00B4"/>
  <outline>
    <contour>
      <point x="245" y="617" type="line"/>
      <point x="488" y="733" type="line"/>
      <point x="441" y="832" type="line"/>
      <point x="205" y="705" type="line"/>
    </contour>
  </outline>
</glyph>
<glyph name="paragraph" format="1">
  <advance width="600"/>
  <unicode hex="00B6"/>
  <outline>
    <contour>
      <point x="217" y="-128" type="line"/>
      <point x="318" y="-128" type="line"/>
      <point x="459" y="632" type="line"/>
      <point x="542" y="632" type="line"/>
      <point x="401" y="-128" type="line"/>
      <point x="503" y="-128" type="line"/>
      <point x="664" y="739" type="line"/>
      <point x="446" y="739" type="line" smooth="yes"/>
      <point x="334" y="739"/>
      <point x="270" y="721"/>
      <point x="217" y="675" type="curve" smooth="yes"/>
      <point x="166" y="630"/>
      <point x="133" y="558"/>
      <point x="133" y="489" type="curve" smooth="yes"/>
      <point x="133" y="392"/>
      <point x="192" y="336"/>
      <point x="302" y="330" type="curve"/>
    </contour>
  </outline>
</glyph>
<glyph name="periodcentered" format="1">
  <advance width="280"/>
  <unicode hex="00B7"/>
  <outline>
    <contour>
      <point x="119" y="300" type="line"/>
      <point x="251" y="300" type="line"/>
      <point x="276" y="432" type="line"/>
      <point x="144" y="432" type="line"/>
    </contour>
  </outline>
</glyph>
<glyph name="cedilla" format="1">
  <advance width="340"/>
  <unicode hex="00B8"/>
  <outline>
    <contour>
      <point x="117" y="0" type="line"/>
      <point x="61" y="-107" type="line"/>
      <point x="109" y="-133" type="line"/>
      <point x="123" y="-114"/>
      <point x="136" y="-106"/>
      <point x="153" y="-106" type="curve" smooth="yes"/>
      <point x="170" y="-106"/>
      <point x="184" y="-120"/>
      <point x="184" y="-137" type="curve" smooth="yes"/>
      <point x="184" y="-167"/>
      <point x="161" y="-195"/>
      <point x="136" y="-195" type="curve" smooth="yes"/>
      <point x="119" y="-195"/>
      <point x="109" y="-188"/>
      <point x="104" y="-172" type="curve" smooth="yes"/>
      <point x="102" y="-166" type="line"/>
      <point x="42" y="-166" type="line"/>
      <point x="42" y="-172" type="line" smooth="yes"/>
      <point x="42" y="-219"/>
      <point x="79" y="-251"/>
      <point x="133" y="-251" type="curve" smooth="yes"/>
      <point x="170" y="-251"/>
      <point x="197" y="-238"/>
      <point x="217" y="-209" type="curve" smooth="yes"/>
      <point x="234" y="-185"/>
      <point x="244" y="-154"/>
      <point x="244" y="-127" type="curve" smooth="yes"/>
      <point x="244" y="-84"/>
      <point x="211" y="-51"/>
      <point x="168" y="-51" type="curve" smooth="yes"/>
      <point x="158" y="-51"/>
      <point x="151" y="-53"/>
      <point x="137" y="-58" type="curve"/>
      <point x="169" y="0" type="line"/>
    </contour>
  </outline>
</glyph>
<glyph name="ordmasculine" format="1">
  <advance width="360"/>
  <unicode hex="00BA"/>
  <outline>
    <contour>
      <point x="325" y="752" type="curve" smooth="yes"/>
      <point x="226" y="752"/>
      <point x="138" y="666"/>
      <point x="138" y="569" type="curve" smooth="yes"/>
      <point x="138" y="499"/>
      <point x="195" y="444"/>
      <point x="266" y="444" type="curve" smooth="yes"/>
      <point x="363" y="444"/>
      <point x="451" y="530"/>
      <point x="451" y="625" type="curve" smooth="yes"/>
      <point x="451" y="701"/>
      <point x="401" y="752"/>
    </contour>
    <contour>
      <point x="311" y="682" type="curve" smooth="yes"/>
      <point x="349" y="682"/>
      <point x="377" y="652"/>
      <point x="377" y="612" type="curve" smooth="yes"/>
      <point x="377" y="562"/>
      <point x="331" y="517"/>
      <point x="280" y="517" type="curve" smooth="yes"/>
      <point x="240" y="517"/>
      <point x="212" y="544"/>
      <point x="212" y="582" type="curve" smooth="yes"/>
      <point x="212" y="634"/>
      <point x="259" y="682"/>
    </contour>
    <contour>
      <point x="90" y="313" type="line"/>
      <point x="397" y="313" type="line"/>
      <point x="410" y="383" type="line"/>
      <point x="103" y="383" type="line"/>
    </contour>
  </outline>
</glyph>
<glyph name="guillemotright" format="1">
  <advance width="460"/>
  <unicode hex="00BB"/>
  <outline>
    <contour>
      <point x="98" y="108" type="line"/>
      <point x="261" y="239" type="line"/>
      <point x="280" y="339" type="line"/>
      <point x="165" y="469" type="line"/>
      <point x="142" y="346" type="line"/>
      <point x="200" y="289" type="line"/>
      <point x="121" y="231" type="line"/>
    </contour>
    <contour>
      <point x="311" y="108" type="line"/>
      <point x="474" y="239" type="line"/>
      <point x="493" y="339" type="line"/>
      <point x="378" y="469" type="line"/>
      <point x="355" y="346" type="line"/>
      <point x="413" y="289" type="line"/>
      <point x="334" y="231" type="line"/>
    </contour>
  </outline>
</glyph>
<glyph name="onequarter" format="1">
  <advance width="840"/>
  <unicode hex="00BC"/>
  <outline>
    <contour>
      <point x="521" y="133" type="line"/>
      <point x="508" y="65" type="line"/>
      <point x="706" y="65" type="line"/>
      <point x="694" y="0" type="line"/>
      <point x="785" y="0" type="line"/>
      <point x="797" y="65" type="line"/>
      <point x="845" y="65" type="line"/>
      <point x="859" y="142" type="line"/>
      <point x="811" y="142" type="line"/>
      <point x="867" y="443" type="line"/>
      <point x="791" y="443" type="line"/>
    </contour>
    <contour>
      <point x="720" y="142" type="line"/>
      <point x="618" y="142" type="line"/>
      <point x="748" y="294" type="line"/>
    </contour>
    <contour>
      <point x="209" y="0" type="line"/>
      <point x="304" y="0" type="line"/>
      <point x="747" y="739" type="line"/>
      <point x="652" y="739" type="line"/>
    </contour>
    <contour>
      <point x="209" y="296" type="line"/>
      <point x="296" y="296" type="line"/>
      <point x="378" y="739" type="line"/>
      <point x="224" y="739" type="line"/>
      <point x="209" y="657" type="line"/>
      <point x="276" y="657" type="line"/>
    </contour>
  </outline>
</glyph>
<glyph name="onehalf" format="1">
  <advance width="840"/>
  <unicode hex="00BD"/>
  <outline>
    <contour>
      <point x="205" y="0" type="line"/>
      <point x="300" y="0" type="line"/>
      <point x="743" y="739" type="line"/>
      <point x="648" y="739" type="line"/>
    </contour>
    <contour>
      <point x="519" y="0" type="line"/>
      <point x="828" y="0" type="line"/>
      <point x="843" y="82" type="line"/>
      <point x="665" y="82" type="line"/>
      <point x="769" y="155" type="line" smooth="yes"/>
      <point x="852" y="213"/>
      <point x="889" y="268"/>
      <point x="889" y="334" type="curve" smooth="yes"/>
      <point x="889" y="402"/>
      <point x="835" y="450"/>
      <point x="759" y="450" type="curve" smooth="yes"/>
      <point x="701" y="450"/>
      <point x="649" y="427"/>
      <point x="613" y="385" type="curve" smooth="yes"/>
      <point x="589" y="358"/>
      <point x="579" y="334"/>
      <point x="569" y="285" type="curve"/>
      <point x="658" y="285" type="line"/>
      <point x="673" y="343"/>
      <point x="701" y="370"/>
      <point x="744" y="370" type="curve" smooth="yes"/>
      <point x="777" y="370"/>
      <point x="797" y="351"/>
      <point x="797" y="319" type="curve" smooth="yes"/>
      <point x="797" y="288"/>
      <point x="777" y="260"/>
      <point x="727" y="222" type="curve" smooth="yes"/>
      <point x="534" y="75" type="line"/>
    </contour>
    <contour>
      <point x="214" y="296" type="line"/>
      <point x="301" y="296" type="line"/>
      <point x="383" y="739" type="line"/>
      <point x="229" y="739" type="line"/>
      <point x="214" y="657" type="line"/>
      <point x="281" y="657" type="line"/>
    </contour>
  </outline>
</glyph>
<glyph name="threequarters" format="1">
  <advance width="840"/>
  <unicode hex="00BE"/>
  <outline>
    <contour>
      <point x="521" y="133" type="line"/>
      <point x="508" y="65" type="line"/>
      <point x="706" y="65" type="line"/>
      <point x="694" y="0" type="line"/>
      <point x="785" y="0" type="line"/>
      <point x="797" y="65" type="line"/>
      <point x="845" y="65" type="line"/>
      <point x="859" y="142" type="line"/>
      <point x="811" y="142" type="line"/>
      <point x="867" y="443" type="line"/>
      <point x="791" y="443" type="line"/>
    </contour>
    <contour>
      <point x="720" y="142" type="line"/>
      <point x="618" y="142" type="line"/>
      <point x="748" y="294" type="line"/>
    </contour>
    <contour>
      <point x="241" y="0" type="line"/>
      <point x="336" y="0" type="line"/>
      <point x="779" y="739" type="line"/>
      <point x="684" y="739" type="line"/>
    </contour>
    <contour>
      <point x="223" y="505" type="line"/>
      <point x="258" y="505"/>
      <point x="270" y="504"/>
      <point x="281" y="500" type="curve"/>
      <point x="305" y="493"/>
      <point x="321" y="472"/>
      <point x="321" y="449" type="curve" smooth="yes"/>
      <point x="321" y="406"/>
      <point x="280" y="368"/>
      <point x="233" y="368" type="curve" smooth="yes"/>
      <point x="198" y="368"/>
      <point x="175" y="392"/>
      <point x="175" y="428" type="curve" smooth="yes"/>
      <point x="175" y="436" type="line"/>
      <point x="84" y="436" type="line"/>
      <point x="83" y="425"/>
      <point x="82" y="416"/>
      <point x="82" y="411" type="curve" smooth="yes"/>
      <point x="82" y="340"/>
      <point x="139" y="288"/>
      <point x="218" y="288" type="curve" smooth="yes"/>
      <point x="323" y="288"/>
      <point x="413" y="370"/>
      <point x="413" y="465" type="curve" smooth="yes"/>
      <point x="413" y="505"/>
      <point x="397" y="531"/>
      <point x="359" y="551" type="curve"/>
      <point x="398" y="577"/>
      <point x="415" y="606"/>
      <point x="415" y="645" type="curve" smooth="yes"/>
      <point x="415" y="704"/>
      <point x="368" y="746"/>
      <point x="302" y="746" type="curve" smooth="yes"/>
      <point x="228" y="746"/>
      <point x="172" y="700"/>
      <point x="154" y="627" type="curve"/>
      <point x="246" y="627" type="line"/>
      <point x="251" y="652"/>
      <point x="266" y="666"/>
      <point x="289" y="666" type="curve" smooth="yes"/>
      <point x="310" y="666"/>
      <point x="323" y="655"/>
      <point x="323" y="637" type="curve" smooth="yes"/>
      <point x="323" y="623"/>
      <point x="312" y="606"/>
      <point x="296" y="597" type="curve" smooth="yes"/>
      <point x="284" y="590"/>
      <point x="276" y="589"/>
      <point x="239" y="589" type="curve"/>
    </contour>
  </outline>
</glyph>
<glyph name="questiondown" format="1">
  <advance width="560"/>
  <unicode hex="00BF"/>
  <outline>
    <contour>
      <point x="304" y="367" type="line"/>
      <point x="290" y="284"/>
      <point x="274" y="256"/>
      <point x="211" y="210" type="curve" smooth="yes"/>
      <point x="106" y="129"/>
      <point x="71" y="74"/>
      <point x="71" y="-14" type="curve" smooth="yes"/>
      <point x="71" y="-123"/>
      <point x="146" y="-198"/>
      <point x="256" y="-198" type="curve" smooth="yes"/>
      <point x="387" y="-198"/>
      <point x="494" y="-107"/>
      <point x="528" y="34" type="curve"/>
      <point x="395" y="34" type="line"/>
      <point x="385" y="0"/>
      <point x="378" y="-13"/>
      <point x="365" y="-28" type="curve" smooth="yes"/>
      <point x="342" y="-54"/>
      <point x="318" y="-66"/>
      <point x="288" y="-66" type="curve" smooth="yes"/>
      <point x="240" y="-66"/>
      <point x="208" y="-36"/>
      <point x="208" y="8" type="curve" smooth="yes"/>
      <point x="208" y="46"/>
      <point x="229" y="82"/>
      <point x="271" y="112" type="curve" smooth="yes"/>
      <point x="381" y="189"/>
      <point x="420" y="249"/>
      <point x="437" y="367" type="curve"/>
    </contour>
    <contour>
      <point x="472" y="554" type="line"/>
      <point x="339" y="554" type="line"/>
      <point x="315" y="426" type="line"/>
      <point x="448" y="426" type="line"/>
    </contour>
  </outline>
</glyph>
<glyph name="Aacute" format="1">
  <advance width="740"/>
  <unicode hex="00C1"/>
  <outline>
    <contour>
      <point x="7" y="0" type="line"/>
      <point x="158" y="0" type="line"/>
      <point x="275" y="191" type="line"/>
      <point x="538" y="191" type="line"/>
      <point x="582" y="0" type="line"/>
      <point x="733" y="0" type="line"/>
      <point x="560" y="739" type="line"/>
      <point x="452" y="739" type="line"/>
    </contour>
    <contour>
      <point x="350" y="323" type="line"/>
      <point x="470" y="546" type="line"/>
      <point x="508" y="323" type="line"/>
    </contour>
    <contour>
      <point x="452" y="792" type="line"/>
      <point x="695" y="908" type="line"/>
      <point x="648" y="1007" type="line"/>
      <point x="412" y="880" type="line"/>
    </contour>
  </outline>
</glyph>
<glyph name="Acircumflex" format="1">
  <advance width="740"/>
  <unicode hex="00C2"/>
  <outline>
    <contour>
      <point x="7" y="0" type="line"/>
      <point x="158" y="0" type="line"/>
      <point x="275" y="191" type="line"/>
      <point x="538" y="191" type="line"/>
      <point x="582" y="0" type="line"/>
      <point x="733" y="0" type="line"/>
      <point x="560" y="739" type="line"/>
      <point x="452" y="739" type="line"/>
    </contour>
    <contour>
      <point x="350" y="323" type="line"/>
      <point x="470" y="546" type="line"/>
      <point x="508" y="323" type="line"/>
    </contour>
    <contour>
      <point x="313" y="805" type="line"/>
      <point x="460" y="805" type="line"/>
      <point x="526" y="869" type="line"/>
      <point x="567" y="805" type="line"/>
      <point x="712" y="805" type="line"/>
      <point x="593" y="943" type="line"/>
      <point x="486" y="943" type="line"/>
    </contour>
  </outline>
</glyph>
<glyph name="Atilde" format="1">
  <advance width="740"/>
  <unicode hex="00C3"/>
  <outline>
    <contour>
      <point x="7" y="0" type="line"/>
      <point x="158" y="0" type="line"/>
      <point x="275" y="191" type="line"/>
      <point x="538" y="191" type="line"/>
      <point x="582" y="0" type="line"/>
      <point x="733" y="0" type="line"/>
      <point x="560" y="739" type="line"/>
      <point x="452" y="739" type="line"/>
    </contour>
    <contour>
      <point x="350" y="323" type="line"/>
      <point x="470" y="546" type="line"/>
      <point x="508" y="323" type="line"/>
    </contour>
    <contour>
      <point x="394" y="806" type="line"/>
      <point x="422" y="828"/>
      <point x="434" y="835"/>
      <point x="449" y="835" type="curve" smooth="yes"/>
      <point x="460" y="835"/>
      <point x="479" y="830"/>
      <point x="508" y="820" type="curve" smooth="yes"/>
      <point x="545" y="808"/>
      <point x="553" y="806"/>
      <point x="570" y="806" type="curve" smooth="yes"/>
      <point x="613" y="806"/>
      <point x="648" y="823"/>
      <point x="678" y="861" type="curve"/>
      <point x="644" y="943" type="line"/>
      <point x="629" y="933" type="line" smooth="yes"/>
      <point x="602" y="914"/>
      <point x="587" y="909"/>
      <point x="563" y="909" type="curve" smooth="yes"/>
      <point x="546" y="909"/>
      <point x="541" y="910"/>
      <point x="513" y="922" type="curve" smooth="yes"/>
      <point x="488" y="932"/>
      <point x="466" y="938"/>
      <point x="451" y="938" type="curve" smooth="yes"/>
      <point x="439" y="938"/>
      <point x="409" y="928"/>
      <point x="391" y="919" type="curve"/>
      <point x="378" y="911"/>
      <point x="370" y="905"/>
      <point x="356" y="891" type="curve"/>
    </contour>
  </outline>
</glyph>
<glyph name="Adieresis" format="1">
  <advance width="740"/>
  <unicode hex="00C4"/>
  <outline>
    <contour>
      <point x="7" y="0" type="line"/>
      <point x="158" y="0" type="line"/>
      <point x="275" y="191" type="line"/>
      <point x="538" y="191" type="line"/>
      <point x="582" y="0" type="line"/>
      <point x="733" y="0" type="line"/>
      <point x="560" y="739" type="line"/>
      <point x="452" y="739" type="line"/>
    </contour>
    <contour>
      <point x="350" y="323" type="line"/>
      <point x="470" y="546" type="line"/>
      <point x="508" y="323" type="line"/>
    </contour>
    <contour>
      <point x="344" y="805" type="line"/>
      <point x="477" y="805" type="line"/>
      <point x="502" y="937" type="line"/>
      <point x="369" y="937" type="line"/>
    </contour>
    <contour>
      <point x="554" y="805" type="line"/>
      <point x="687" y="805" type="line"/>
      <point x="712" y="937" type="line"/>
      <point x="579" y="937" type="line"/>
    </contour>
  </outline>
</glyph>
<glyph name="Aring" format="1">
  <advance width="740"/>
  <unicode hex="00C5"/>
  <outline>
    <contour>
      <point x="7" y="0" type="line"/>
      <point x="158" y="0" type="line"/>
      <point x="275" y="191" type="line"/>
      <point x="538" y="191" type="line"/>
      <point x="582" y="0" type="line"/>
      <point x="733" y="0" type="line"/>
      <point x="560" y="739" type="line"/>
      <point x="452" y="739" type="line"/>
    </contour>
    <contour>
      <point x="350" y="323" type="line"/>
      <point x="470" y="546" type="line"/>
      <point x="508" y="323" type="line"/>
    </contour>
    <contour>
      <point x="550" y="998" type="curve" smooth="yes"/>
      <point x="484" y="998"/>
      <point x="425" y="940"/>
      <point x="425" y="875" type="curve" smooth="yes"/>
      <point x="425" y="828"/>
      <point x="462" y="792"/>
      <point x="510" y="792" type="curve" smooth="yes"/>
      <point x="576" y="792"/>
      <point x="635" y="851"/>
      <point x="635" y="915" type="curve" smooth="yes"/>
      <point x="635" y="962"/>
      <point x="598" y="998"/>
    </contour>
    <contour>
      <point x="537" y="931" type="curve" smooth="yes"/>
      <point x="553" y="931"/>
      <point x="567" y="917"/>
      <point x="567" y="901" type="curve" smooth="yes"/>
      <point x="567" y="880"/>
      <point x="545" y="859"/>
      <point x="524" y="859" type="curve" smooth="yes"/>
      <point x="507" y="859"/>
      <point x="493" y="872"/>
      <point x="493" y="888" type="curve" smooth="yes"/>
      <point x="493" y="910"/>
      <point x="515" y="931"/>
    </contour>
  </outline>
</glyph>
<glyph name="AE" format="1">
  <advance width="900"/>
  <unicode hex="00C6"/>
  <outline>
    <contour>
      <point x="17" y="0" type="line"/>
      <point x="181" y="0" type="line"/>
      <point x="329" y="191" type="line"/>
      <point x="523" y="191" type="line"/>
      <point x="488" y="0" type="line"/>
      <point x="843" y="0" type="line"/>
      <point x="867" y="132" type="line"/>
      <point x="649" y="132" type="line"/>
      <point x="681" y="303" type="line"/>
      <point x="888" y="303" type="line"/>
      <point x="912" y="435" type="line"/>
      <point x="705" y="435" type="line"/>
      <point x="738" y="607" type="line"/>
      <point x="956" y="607" type="line"/>
      <point x="980" y="739" type="line"/>
      <point x="641" y="739" type="line"/>
    </contour>
    <contour>
      <point x="433" y="323" type="line"/>
      <point x="583" y="513" type="line"/>
      <point x="548" y="323" type="line"/>
    </contour>
  </outline>
</glyph>
<glyph name="Ccedilla" format="1">
  <advance width="780"/>
  <unicode hex="00C7"/>
  <outline>
    <contour>
      <point x="394" y="-12" type="line"/>
      <point x="408" y="-13"/>
      <point x="418" y="-13"/>
      <point x="425" y="-13" type="curve" smooth="yes"/>
      <point x="566" y="-13"/>
      <point x="721" y="78"/>
      <point x="798" y="206" type="curve"/>
      <point x="637" y="206" type="line"/>
      <point x="562" y="142"/>
      <point x="509" y="119"/>
      <point x="437" y="119" type="curve" smooth="yes"/>
      <point x="318" y="119"/>
      <point x="232" y="206"/>
      <point x="232" y="327" type="curve" smooth="yes"/>
      <point x="232" y="383"/>
      <point x="253" y="445"/>
      <point x="290" y="495" type="curve" smooth="yes"/>
      <point x="349" y="575"/>
      <point x="434" y="620"/>
      <point x="528" y="620" type="curve" smooth="yes"/>
      <point x="580" y="620"/>
      <point x="630" y="605"/>
      <point x="661" y="581" type="curve" smooth="yes"/>
      <point x="677" y="568"/>
      <point x="687" y="556"/>
      <point x="704" y="527" type="curve"/>
      <point x="858" y="527" type="line"/>
      <point x="840" y="593"/>
      <point x="820" y="629"/>
      <point x="779" y="667" type="curve" smooth="yes"/>
      <point x="720" y="722"/>
      <point x="638" y="752"/>
      <point x="548" y="752" type="curve" smooth="yes"/>
      <point x="313" y="752"/>
      <point x="92" y="535"/>
      <point x="92" y="304" type="curve" smooth="yes"/>
      <point x="92" y="206"/>
      <point x="135" y="111"/>
      <point x="204" y="56" type="curve" smooth="yes"/>
      <point x="249" y="21"/>
      <point x="289" y="4"/>
      <point x="346" y="-6" type="curve"/>
      <point x="293" y="-107" type="line"/>
      <point x="341" y="-133" type="line"/>
      <point x="355" y="-114"/>
      <point x="368" y="-106"/>
      <point x="385" y="-106" type="curve" smooth="yes"/>
      <point x="402" y="-106"/>
      <point x="416" y="-120"/>
      <point x="416" y="-137" type="curve" smooth="yes"/>
      <point x="416" y="-167"/>
      <point x="393" y="-195"/>
      <point x="368" y="-195" type="curve" smooth="yes"/>
      <point x="351" y="-195"/>
      <point x="341" y="-188"/>
      <point x="336" y="-172" type="curve" smooth="yes"/>
      <point x="334" y="-166" type="line"/>
      <point x="274" y="-166" type="line"/>
      <point x="273" y="-219"/>
      <point x="308" y="-251"/>
      <point x="365" y="-251" type="curve" smooth="yes"/>
      <point x="402" y="-251"/>
      <point x="429" y="-238"/>
      <point x="449" y="-209" type="curve" smooth="yes"/>
      <point x="466" y="-185"/>
      <point x="476" y="-154"/>
      <point x="476" y="-127" type="curve" smooth="yes"/>
      <point x="476" y="-84"/>
      <point x="443" y="-51"/>
      <point x="400" y="-51" type="curve" smooth="yes"/>
      <point x="390" y="-51"/>
      <point x="383" y="-53"/>
      <point x="369" y="-58" type="curve"/>
    </contour>
  </outline>
</glyph>
<glyph name="Egrave" format="1">
  <advance width="520"/>
  <unicode hex="00C8"/>
  <outline>
    <contour>
      <point x="68" y="0" type="line"/>
      <point x="465" y="0" type="line"/>
      <point x="489" y="132" type="line"/>
      <point x="229" y="132" type="line"/>
      <point x="261" y="303" type="line"/>
      <point x="510" y="303" type="line"/>
      <point x="534" y="435" type="line"/>
      <point x="285" y="435" type="line"/>
      <point x="318" y="607" type="line"/>
      <point x="578" y="607" type="line"/>
      <point x="602" y="739" type="line"/>
      <point x="205" y="739" type="line"/>
    </contour>
    <contour>
      <point x="252" y="916" type="line"/>
      <point x="458" y="792" type="line"/>
      <point x="525" y="877" type="line"/>
      <point x="322" y="1007" type="line"/>
    </contour>
  </outline>
</glyph>
<glyph name="Edieresis" format="1">
  <advance width="520"/>
  <unicode hex="00CB"/>
  <outline>
    <contour>
      <point x="68" y="0" type="line"/>
      <point x="465" y="0" type="line"/>
      <point x="489" y="132" type="line"/>
      <point x="229" y="132" type="line"/>
      <point x="261" y="303" type="line"/>
      <point x="510" y="303" type="line"/>
      <point x="534" y="435" type="line"/>
      <point x="285" y="435" type="line"/>
      <point x="318" y="607" type="line"/>
      <point x="578" y="607" type="line"/>
      <point x="602" y="739" type="line"/>
      <point x="205" y="739" type="line"/>
    </contour>
    <contour>
      <point x="243" y="805" type="line"/>
      <point x="376" y="805" type="line"/>
      <point x="401" y="937" type="line"/>
      <point x="268" y="937" type="line"/>
    </contour>
    <contour>
      <point x="444" y="805" type="line"/>
      <point x="577" y="805" type="line"/>
      <point x="602" y="937" type="line"/>
      <point x="469" y="937" type="line"/>
    </contour>
  </outline>
</glyph>
<glyph name="Igrave" format="1">
  <advance width="280"/>
  <unicode hex="00CC"/>
  <outline>
    <contour>
      <point x="68" y="0" type="line"/>
      <point x="205" y="0" type="line"/>
      <point x="342" y="739" type="line"/>
      <point x="205" y="739" type="line"/>
    </contour>
    <contour>
      <point x="175" y="916" type="line"/>
      <point x="381" y="792" type="line"/>
      <point x="448" y="877" type="line"/>
      <point x="245" y="1007" type="line"/>
    </contour>
  </outline>
</glyph>
<glyph name="Iacute" format="1">
  <advance width="280"/>
  <unicode hex="00CD"/>
  <outline>
    <contour>
      <point x="68" y="0" type="line"/>
      <point x="205" y="0" type="line"/>
      <point x="342" y="739" type="line"/>
      <point x="205" y="739" type="line"/>
    </contour>
    <contour>
      <point x="175" y="792" type="line"/>
      <point x="418" y="908" type="line"/>
      <point x="371" y="1007" type="line"/>
      <point x="135" y="880" type="line"/>
    </contour>
  </outline>
</glyph>
<glyph name="Icircumflex" format="1">
  <advance width="280"/>
  <unicode hex="00CE"/>
  <outline>
    <contour>
      <point x="68" y="0" type="line"/>
      <point x="205" y="0" type="line"/>
      <point x="342" y="739" type="line"/>
      <point x="205" y="739" type="line"/>
    </contour>
    <contour>
      <point x="93" y="805" type="line"/>
      <point x="240" y="805" type="line"/>
      <point x="306" y="869" type="line"/>
      <point x="347" y="805" type="line"/>
      <point x="492" y="805" type="line"/>
      <point x="373" y="943" type="line"/>
      <point x="266" y="943" type="line"/>
    </contour>
  </outline>
</glyph>
<glyph name="Ntilde" format="1">
  <advance width="740"/>
  <unicode hex="00D1"/>
  <outline>
    <contour>
      <point x="68" y="0" type="line"/>
      <point x="205" y="0" type="line"/>
      <point x="305" y="537" type="line"/>
      <point x="514" y="0" type="line"/>
      <point x="667" y="0" type="line"/>
      <point x="804" y="739" type="line"/>
      <point x="667" y="739" type="line"/>
      <point x="567" y="201" type="line"/>
      <point x="361" y="739" type="line"/>
      <point x="205" y="739" type="line"/>
    </contour>
    <contour>
      <point x="406" y="806" type="line"/>
      <point x="434" y="828"/>
      <point x="446" y="835"/>
      <point x="461" y="835" type="curve" smooth="yes"/>
      <point x="472" y="835"/>
      <point x="491" y="830"/>
      <point x="520" y="820" type="curve" smooth="yes"/>
      <point x="557" y="808"/>
      <point x="565" y="806"/>
      <point x="582" y="806" type="curve" smooth="yes"/>
      <point x="625" y="806"/>
      <point x="660" y="823"/>
      <point x="690" y="861" type="curve"/>
      <point x="656" y="943" type="line"/>
      <point x="641" y="933" type="line" smooth="yes"/>
      <point x="614" y="914"/>
      <point x="599" y="909"/>
      <point x="575" y="909" type="curve" smooth="yes"/>
      <point x="558" y="909"/>
      <point x="553" y="910"/>
      <point x="525" y="922" type="curve" smooth="yes"/>
      <point x="500" y="932"/>
      <point x="478" y="938"/>
      <point x="463" y="938" type="curve" smooth="yes"/>
      <point x="451" y="938"/>
      <point x="421" y="928"/>
      <point x="403" y="919" type="curve"/>
      <point x="390" y="911"/>
      <point x="382" y="905"/>
      <point x="368" y="891" type="curve"/>
    </contour>
  </outline>
</glyph>
<glyph name="Oacute" format="1">
  <advance width="840"/>
  <unicode hex="00D3"/>
  <outline>
    <contour>
      <point x="559" y="752" type="curve" smooth="yes"/>
      <point x="429" y="752"/>
      <point x="305" y="696"/>
      <point x="212" y="595" type="curve" smooth="yes"/>
      <point x="137" y="513"/>
      <point x="91" y="401"/>
      <point x="91" y="300" type="curve" smooth="yes"/>
      <point x="91" y="118"/>
      <point x="227" y="-13"/>
      <point x="416" y="-13" type="curve" smooth="yes"/>
      <point x="658" y="-13"/>
      <point x="875" y="201"/>
      <point x="875" y="439" type="curve" smooth="yes"/>
      <point x="875" y="622"/>
      <point x="743" y="752"/>
    </contour>
    <contour>
      <point x="532" y="620" type="curve" smooth="yes"/>
      <point x="650" y="620"/>
      <point x="735" y="536"/>
      <point x="735" y="419" type="curve" smooth="yes"/>
      <point x="735" y="359"/>
      <point x="711" y="290"/>
      <point x="672" y="238" type="curve" smooth="yes"/>
      <point x="615" y="162"/>
      <point x="531" y="119"/>
      <point x="440" y="119" type="curve" smooth="yes"/>
      <point x="318" y="119"/>
      <point x="231" y="204"/>
      <point x="231" y="323" type="curve" smooth="yes"/>
      <point x="231" y="381"/>
      <point x="256" y="448"/>
      <point x="297" y="501" type="curve" smooth="yes"/>
      <point x="356" y="578"/>
      <point x="439" y="620"/>
    </contour>
    <contour>
      <point x="522" y="792" type="line"/>
      <point x="765" y="908" type="line"/>
      <point x="718" y="1007" type="line"/>
      <point x="482" y="880" type="line"/>
    </contour>
  </outline>
</glyph>
<glyph name="Otilde" format="1">
  <advance width="840"/>
  <unicode hex="00D5"/>
  <outline>
    <contour>
      <point x="559" y="752" type="curve" smooth="yes"/>
      <point x="429" y="752"/>
      <point x="305" y="696"/>
      <point x="212" y="595" type="curve" smooth="yes"/>
      <point x="137" y="513"/>
      <point x="91" y="401"/>
      <point x="91" y="300" type="curve" smooth="yes"/>
      <point x="91" y="118"/>
      <point x="227" y="-13"/>
      <point x="416" y="-13" type="curve" smooth="yes"/>
      <point x="658" y="-13"/>
      <point x="875" y="201"/>
      <point x="875" y="439" type="curve" smooth="yes"/>
      <point x="875" y="622"/>
      <point x="743" y="752"/>
    </contour>
    <contour>
      <point x="532" y="620" type="curve" smooth="yes"/>
      <point x="650" y="620"/>
      <point x="735" y="536"/>
      <point x="735" y="419" type="curve" smooth="yes"/>
      <point x="735" y="359"/>
      <point x="711" y="290"/>
      <point x="672" y="238" type="curve" smooth="yes"/>
      <point x="615" y="162"/>
      <point x="531" y="119"/>
      <point x="440" y="119" type="curve" smooth="yes"/>
      <point x="318" y="119"/>
      <point x="231" y="204"/>
      <point x="231" y="323" type="curve" smooth="yes"/>
      <point x="231" y="381"/>
      <point x="256" y="448"/>
      <point x="297" y="501" type="curve" smooth="yes"/>
      <point x="356" y="578"/>
      <point x="439" y="620"/>
    </contour>
    <contour>
      <point x="460" y="806" type="line"/>
      <point x="488" y="828"/>
      <point x="500" y="835"/>
      <point x="515" y="835" type="curve" smooth="yes"/>
      <point x="526" y="835"/>
      <point x="545" y="830"/>
      <point x="574" y="820" type="curve" smooth="yes"/>
      <point x="611" y="808"/>
      <point x="619" y="806"/>
      <point x="636" y="806" type="curve" smooth="yes"/>
      <point x="679" y="806"/>
      <point x="714" y="823"/>
      <point x="744" y="861" type="curve"/>
      <point x="710" y="943" type="line"/>
      <point x="695" y="933" type="line" smooth="yes"/>
      <point x="668" y="914"/>
      <point x="653" y="909"/>
      <point x="629" y="909" type="curve" smooth="yes"/>
      <point x="612" y="909"/>
      <point x="607" y="910"/>
      <point x="579" y="922" type="curve" smooth="yes"/>
      <point x="554" y="932"/>
      <point x="532" y="938"/>
      <point x="517" y="938" type="curve" smooth="yes"/>
      <point x="505" y="938"/>
      <point x="475" y="928"/>
      <point x="457" y="919" type="curve"/>
      <point x="444" y="911"/>
      <point x="436" y="905"/>
      <point x="422" y="891" type="curve"/>
    </contour>
  </outline>
</glyph>
<glyph name="multiply" format="1">
  <advance width="600"/>
  <unicode hex="00D7"/>
  <outline>
    <contour>
      <point x="584" y="192" type="line"/>
      <point x="446" y="362" type="line"/>
      <point x="645" y="530" type="line"/>
      <point x="571" y="620" type="line"/>
      <point x="372" y="452" type="line"/>
      <point x="234" y="622" type="line"/>
      <point x="139" y="542" type="line"/>
      <point x="277" y="372" type="line"/>
      <point x="78" y="204" type="line"/>
      <point x="152" y="114" type="line"/>
      <point x="351" y="282" type="line"/>
      <point x="489" y="112" type="line"/>
    </contour>
  </outline>
</glyph>
<glyph name="Oslash" format="1">
  <advance width="840"/>
  <unicode hex="00D8"/>
  <outline>
    <contour>
      <point x="91" y="-11" type="line"/>
      <point x="171" y="-80" type="line"/>
      <point x="259" y="23" type="line"/>
      <point x="316" y="-2"/>
      <point x="364" y="-13"/>
      <point x="423" y="-13" type="curve" smooth="yes"/>
      <point x="549" y="-13"/>
      <point x="673" y="45"/>
      <point x="760" y="143" type="curve" smooth="yes"/>
      <point x="838" y="231"/>
      <point x="881" y="337"/>
      <point x="881" y="438" type="curve" smooth="yes"/>
      <point x="881" y="529"/>
      <point x="853" y="603"/>
      <point x="799" y="655" type="curve"/>
      <point x="887" y="757" type="line"/>
      <point x="806" y="826" type="line"/>
      <point x="714" y="719" type="line"/>
      <point x="660" y="742"/>
      <point x="612" y="752"/>
      <point x="556" y="752" type="curve" smooth="yes"/>
      <point x="316" y="752"/>
      <point x="96" y="535"/>
      <point x="96" y="297" type="curve" smooth="yes"/>
      <point x="96" y="217"/>
      <point x="121" y="149"/>
      <point x="174" y="87" type="curve"/>
    </contour>
    <contour>
      <point x="272" y="201" type="line"/>
      <point x="247" y="246"/>
      <point x="236" y="282"/>
      <point x="236" y="322" type="curve" smooth="yes"/>
      <point x="236" y="478"/>
      <point x="378" y="620"/>
      <point x="534" y="620" type="curve" smooth="yes"/>
      <point x="564" y="620"/>
      <point x="588" y="616"/>
      <point x="617" y="606" type="curve"/>
    </contour>
    <contour>
      <point x="703" y="542" type="line"/>
      <point x="727" y="511"/>
      <point x="741" y="465"/>
      <point x="741" y="415" type="curve" smooth="yes"/>
      <point x="741" y="257"/>
      <point x="602" y="119"/>
      <point x="444" y="119" type="curve" smooth="yes"/>
      <point x="410" y="119"/>
      <point x="385" y="124"/>
      <point x="355" y="136" type="curve"/>
    </contour>
  </outline>
</glyph>
<glyph name="Yacute" format="1">
  <advance width="620"/>
  <unicode hex="00DD"/>
  <outline>
    <contour>
      <point x="246" y="0" type="line"/>
      <point x="383" y="0" type="line"/>
      <point x="434" y="273" type="line"/>
      <point x="763" y="739" type="line"/>
      <point x="615" y="739" type="line"/>
      <point x="388" y="399" type="line"/>
      <point x="288" y="739" type="line"/>
      <point x="140" y="739" type="line"/>
      <point x="297" y="273" type="line"/>
    </contour>
    <contour>
      <point x="417" y="792" type="line"/>
      <point x="660" y="908" type="line"/>
      <point x="613" y="1007" type="line"/>
      <point x="377" y="880" type="line"/>
    </contour>
  </outline>
</glyph>
<glyph name="Thorn" format="1">
  <advance width="560"/>
  <unicode hex="00DE"/>
  <outline>
    <contour>
      <point x="316" y="599" type="line"/>
      <point x="342" y="739" type="line"/>
      <point x="205" y="739" type="line"/>
      <point x="68" y="0" type="line"/>
      <point x="205" y="0" type="line"/>
      <point x="231" y="141" type="line"/>
      <point x="275" y="141" type="line" smooth="yes"/>
      <point x="331" y="141"/>
      <point x="358" y="142"/>
      <point x="381" y="145" type="curve" smooth="yes"/>
      <point x="440" y="154"/>
      <point x="486" y="175"/>
      <point x="525" y="212" type="curve" smooth="yes"/>
      <point x="578" y="263"/>
      <point x="613" y="346"/>
      <point x="613" y="422" type="curve" smooth="yes"/>
      <point x="613" y="484"/>
      <point x="589" y="534"/>
      <point x="544" y="565" type="curve" smooth="yes"/>
      <point x="509" y="590"/>
      <point x="458" y="599"/>
      <point x="362" y="599" type="curve" smooth="yes"/>
    </contour>
    <contour>
      <point x="255" y="272" type="line"/>
      <point x="292" y="467" type="line"/>
      <point x="338" y="467" type="line" smooth="yes"/>
      <point x="387" y="467"/>
      <point x="416" y="464"/>
      <point x="433" y="457" type="curve" smooth="yes"/>
      <point x="460" y="445"/>
      <point x="473" y="422"/>
      <point x="473" y="389" type="curve" smooth="yes"/>
      <point x="473" y="338"/>
      <point x="440" y="295"/>
      <point x="392" y="282" type="curve" smooth="yes"/>
      <point x="368" y="276"/>
      <point x="332" y="272"/>
      <point x="295" y="272" type="curve" smooth="yes"/>
    </contour>
  </outline>
</glyph>
<glyph name="germandbls" format="1">
  <advance width="600"/>
  <unicode hex="00DF"/>
  <outline>
    <contour>
      <point x="51" y="0" type="line"/>
      <point x="173" y="0" type="line"/>
      <point x="188" y="79" type="line"/>
      <point x="211" y="19"/>
      <point x="266" y="-13"/>
      <point x="349" y="-13" type="curve" smooth="yes"/>
      <point x="441" y="-13"/>
      <point x="522" y="28"/>
      <point x="575" y="102" type="curve" smooth="yes"/>
      <point x="608" y="148"/>
      <point x="628" y="208"/>
      <point x="628" y="260" type="curve" smooth="yes"/>
      <point x="628" y="301"/>
      <point x="613" y="336"/>
      <point x="582" y="364" type="curve" smooth="yes"/>
      <point x="557" y="387"/>
      <point x="536" y="397"/>
      <point x="491" y="409" type="curve"/>
      <point x="530" y="429"/>
      <point x="546" y="443"/>
      <point x="563" y="472" type="curve" smooth="yes"/>
      <point x="584" y="507"/>
      <point x="595" y="547"/>
      <point x="595" y="585" type="curve" smooth="yes"/>
      <point x="595" y="683"/>
      <point x="520" y="752"/>
      <point x="412" y="752" type="curve" smooth="yes"/>
      <point x="331" y="752"/>
      <point x="248" y="709"/>
      <point x="202" y="643" type="curve" smooth="yes"/>
      <point x="174" y="602"/>
      <point x="152" y="548"/>
      <point x="141" y="487" type="curve" smooth="yes"/>
    </contour>
    <contour>
      <point x="219" y="189" type="line"/>
      <point x="277" y="503" type="line" smooth="yes"/>
      <point x="293" y="588"/>
      <point x="330" y="630"/>
      <point x="388" y="630" type="curve" smooth="yes"/>
      <point x="430" y="630"/>
      <point x="458" y="604"/>
      <point x="458" y="563" type="curve" smooth="yes"/>
      <point x="458" y="492"/>
      <point x="407" y="433"/>
      <point x="346" y="433" type="curve" smooth="yes"/>
      <point x="335" y="433" type="line"/>
      <point x="313" y="315" type="line"/>
      <point x="324" y="315" type="line" smooth="yes"/>
      <point x="397" y="315"/>
      <point x="422" y="312"/>
      <point x="449" y="298" type="curve" smooth="yes"/>
      <point x="475" y="285"/>
      <point x="491" y="258"/>
      <point x="491" y="226" type="curve" smooth="yes"/>
      <point x="491" y="163"/>
      <point x="440" y="109"/>
      <point x="381" y="109" type="curve" smooth="yes"/>
      <point x="336" y="109"/>
      <point x="308" y="137"/>
      <point x="301" y="189" type="curve"/>
    </contour>
  </outline>
</glyph>
<glyph name="aacute" format="1">
  <advance width="660"/>
  <unicode hex="00E1"/>
  <outline>
    <contour>
      <point x="718" y="554" type="line"/>
      <point x="596" y="554" type="line"/>
      <point x="583" y="480" type="line"/>
      <point x="551" y="539"/>
      <point x="498" y="567"/>
      <point x="420" y="567" type="curve" smooth="yes"/>
      <point x="232" y="567"/>
      <point x="75" y="406"/>
      <point x="75" y="213" type="curve" smooth="yes"/>
      <point x="75" y="77"/>
      <point x="167" y="-13"/>
      <point x="307" y="-13" type="curve" smooth="yes"/>
      <point x="385" y="-13"/>
      <point x="445" y="13"/>
      <point x="507" y="72" type="curve"/>
      <point x="494" y="0" type="line"/>
      <point x="616" y="0" type="line"/>
    </contour>
    <contour>
      <point x="410" y="445" type="curve" smooth="yes"/>
      <point x="492" y="445"/>
      <point x="544" y="394"/>
      <point x="544" y="313" type="curve" smooth="yes"/>
      <point x="544" y="271"/>
      <point x="530" y="226"/>
      <point x="507" y="191" type="curve" smooth="yes"/>
      <point x="469" y="137"/>
      <point x="416" y="109"/>
      <point x="347" y="109" type="curve" smooth="yes"/>
      <point x="265" y="109"/>
      <point x="212" y="160"/>
      <point x="212" y="240" type="curve" smooth="yes"/>
      <point x="212" y="350"/>
      <point x="304" y="445"/>
    </contour>
    <contour>
      <point x="415" y="617" type="line"/>
      <point x="658" y="733" type="line"/>
      <point x="611" y="832" type="line"/>
      <point x="375" y="705" type="line"/>
    </contour>
  </outline>
</glyph>
<glyph name="atilde" format="1">
  <advance width="660"/>
  <unicode hex="00E3"/>
  <outline>
    <contour>
      <point x="718" y="554" type="line"/>
      <point x="596" y="554" type="line"/>
      <point x="583" y="480" type="line"/>
      <point x="551" y="539"/>
      <point x="498" y="567"/>
      <point x="420" y="567" type="curve" smooth="yes"/>
      <point x="232" y="567"/>
      <point x="75" y="406"/>
      <point x="75" y="213" type="curve" smooth="yes"/>
      <point x="75" y="77"/>
      <point x="167" y="-13"/>
      <point x="307" y="-13" type="curve" smooth="yes"/>
      <point x="385" y="-13"/>
      <point x="445" y="13"/>
      <point x="507" y="72" type="curve"/>
      <point x="494" y="0" type="line"/>
      <point x="616" y="0" type="line"/>
    </contour>
    <contour>
      <point x="410" y="445" type="curve" smooth="yes"/>
      <point x="492" y="445"/>
      <point x="544" y="394"/>
      <point x="544" y="313" type="curve" smooth="yes"/>
      <point x="544" y="271"/>
      <point x="530" y="226"/>
      <point x="507" y="191" type="curve" smooth="yes"/>
      <point x="469" y="137"/>
      <point x="416" y="109"/>
      <point x="347" y="109" type="curve" smooth="yes"/>
      <point x="265" y="109"/>
      <point x="212" y="160"/>
      <point x="212" y="240" type="curve" smooth="yes"/>
      <point x="212" y="350"/>
      <point x="304" y="445"/>
    </contour>
    <contour>
      <point x="354" y="632" type="line"/>
      <point x="381" y="655"/>
      <point x="394" y="662"/>
      <point x="409" y="662" type="curve" smooth="yes"/>
      <point x="420" y="662"/>
      <point x="438" y="657"/>
      <point x="468" y="646" type="curve" smooth="yes"/>
      <point x="504" y="633"/>
      <point x="513" y="631"/>
      <point x="530" y="631" type="curve" smooth="yes"/>
      <point x="574" y="631"/>
      <point x="607" y="648"/>
      <point x="638" y="687" type="curve"/>
      <point x="604" y="769" type="line"/>
      <point x="558" y="737"/>
      <point x="551" y="734"/>
      <point x="523" y="734" type="curve" smooth="yes"/>
      <point x="506" y="734"/>
      <point x="500" y="736"/>
      <point x="473" y="748" type="curve" smooth="yes"/>
      <point x="449" y="758"/>
      <point x="426" y="765"/>
      <point x="413" y="765" type="curve" smooth="yes"/>
      <point x="383" y="765"/>
      <point x="343" y="745"/>
      <point x="316" y="717" type="curve"/>
    </contour>
  </outline>
</glyph>
<glyph name="aring" format="1">
  <advance width="660"/>
  <unicode hex="00E5"/>
  <outline>
    <contour>
      <point x="718" y="554" type="line"/>
      <point x="596" y="554" type="line"/>
      <point x="583" y="480" type="line"/>
      <point x="551" y="539"/>
      <point x="498" y="567"/>
      <point x="420" y="567" type="curve" smooth="yes"/>
      <point x="232" y="567"/>
      <point x="75" y="406"/>
      <point x="75" y="213" type="curve" smooth="yes"/>
      <point x="75" y="77"/>
      <point x="167" y="-13"/>
      <point x="307" y="-13" type="curve" smooth="yes"/>
      <point x="385" y="-13"/>
      <point x="445" y="13"/>
      <point x="507" y="72" type="curve"/>
      <point x="494" y="0" type="line"/>
      <point x="616" y="0" type="line"/>
    </contour>
    <contour>
      <point x="410" y="445" type="curve" smooth="yes"/>
      <point x="492" y="445"/>
      <point x="544" y="394"/>
      <point x="544" y="313" type="curve" smooth="yes"/>
      <point x="544" y="271"/>
      <point x="530" y="226"/>
      <point x="507" y="191" type="curve" smooth="yes"/>
      <point x="469" y="137"/>
      <point x="416" y="109"/>
      <point x="347" y="109" type="curve" smooth="yes"/>
      <point x="265" y="109"/>
      <point x="212" y="160"/>
      <point x="212" y="240" type="curve" smooth="yes"/>
      <point x="212" y="350"/>
      <point x="304" y="445"/>
    </contour>
    <contour>
      <point x="501" y="823" type="curve" smooth="yes"/>
      <point x="435" y="823"/>
      <point x="376" y="765"/>
      <point x="376" y="700" type="curve" smooth="yes"/>
      <point x="376" y="652"/>
      <point x="412" y="617"/>
      <point x="461" y="617" type="curve" smooth="yes"/>
      <point x="527" y="617"/>
      <point x="586" y="675"/>
      <point x="586" y="740" type="curve" smooth="yes"/>
      <point x="586" y="787"/>
      <point x="549" y="823"/>
    </contour>
    <contour>
      <point x="488" y="756" type="curve" smooth="yes"/>
      <point x="504" y="756"/>
      <point x="518" y="742"/>
      <point x="518" y="726" type="curve" smooth="yes"/>
      <point x="518" y="705"/>
      <point x="497" y="684"/>
      <point x="475" y="684" type="curve" smooth="yes"/>
      <point x="458" y="684"/>
      <point x="444" y="697"/>
      <point x="444" y="712" type="curve" smooth="yes"/>
      <point x="444" y="735"/>
      <point x="465" y="756"/>
    </contour>
  </outline>
</glyph>
<glyph name="ae" format="1">
  <advance width="1080"/>
  <unicode hex="00E6"/>
  <outline>
    <contour>
      <point x="916" y="164" type="line"/>
      <point x="880" y="127"/>
      <point x="837" y="109"/>
      <point x="788" y="109" type="curve" smooth="yes"/>
      <point x="714" y="109"/>
      <point x="661" y="152"/>
      <point x="653" y="219" type="curve"/>
      <point x="1081" y="219" type="line"/>
      <point x="1099" y="262"/>
      <point x="1108" y="301"/>
      <point x="1108" y="342" type="curve" smooth="yes"/>
      <point x="1108" y="471"/>
      <point x="1011" y="567"/>
      <point x="882" y="567" type="curve" smooth="yes"/>
      <point x="806" y="567"/>
      <point x="752" y="547"/>
      <point x="698" y="499" type="curve"/>
      <point x="708" y="554" type="line"/>
      <point x="586" y="554" type="line"/>
      <point x="576" y="499" type="line"/>
      <point x="538" y="547"/>
      <point x="493" y="567"/>
      <point x="420" y="567" type="curve" smooth="yes"/>
      <point x="237" y="567"/>
      <point x="76" y="403"/>
      <point x="76" y="216" type="curve" smooth="yes"/>
      <point x="76" y="80"/>
      <point x="174" y="-13"/>
      <point x="318" y="-13" type="curve" smooth="yes"/>
      <point x="392" y="-13"/>
      <point x="436" y="5"/>
      <point x="495" y="60" type="curve"/>
      <point x="483" y="0" type="line"/>
      <point x="605" y="0" type="line"/>
      <point x="617" y="60" type="line"/>
      <point x="634" y="34"/>
      <point x="646" y="22"/>
      <point x="664" y="12" type="curve" smooth="yes"/>
      <point x="693" y="-4"/>
      <point x="732" y="-13"/>
      <point x="773" y="-13" type="curve" smooth="yes"/>
      <point x="888" y="-13"/>
      <point x="1003" y="58"/>
      <point x="1061" y="164" type="curve"/>
    </contour>
    <contour>
      <point x="405" y="445" type="curve" smooth="yes"/>
      <point x="444" y="445"/>
      <point x="479" y="429"/>
      <point x="505" y="399" type="curve" smooth="yes"/>
      <point x="526" y="375"/>
      <point x="534" y="351"/>
      <point x="534" y="312" type="curve" smooth="yes"/>
      <point x="534" y="203"/>
      <point x="446" y="109"/>
      <point x="343" y="109" type="curve" smooth="yes"/>
      <point x="265" y="109"/>
      <point x="213" y="161"/>
      <point x="213" y="240" type="curve" smooth="yes"/>
      <point x="213" y="352"/>
      <point x="300" y="445"/>
    </contour>
    <contour>
      <point x="668" y="337" type="line"/>
      <point x="705" y="408"/>
      <point x="765" y="445"/>
      <point x="842" y="445" type="curve" smooth="yes"/>
      <point x="885" y="445"/>
      <point x="923" y="431"/>
      <point x="946" y="408" type="curve"/>
      <point x="959" y="393"/>
      <point x="965" y="377"/>
      <point x="972" y="337" type="curve"/>
    </contour>
  </outline>
</glyph>
<glyph name="ccedilla" format="1">
  <advance width="640"/>
  <unicode hex="00E7"/>
  <outline>
    <contour>
      <point x="312" y="-13" type="line"/>
      <point x="326" y="-13" type="line" smooth="yes"/>
      <point x="453" y="-13"/>
      <point x="565" y="58"/>
      <point x="635" y="182" type="curve"/>
      <point x="485" y="182" type="line"/>
      <point x="451" y="136"/>
      <point x="399" y="109"/>
      <point x="345" y="109" type="curve" smooth="yes"/>
      <point x="266" y="109"/>
      <point x="214" y="163"/>
      <point x="214" y="245" type="curve" smooth="yes"/>
      <point x="214" y="354"/>
      <point x="302" y="445"/>
      <point x="407" y="445" type="curve" smooth="yes"/>
      <point x="465" y="445"/>
      <point x="505" y="418"/>
      <point x="520" y="369" type="curve"/>
      <point x="670" y="369" type="line"/>
      <point x="660" y="428"/>
      <point x="647" y="457"/>
      <point x="617" y="489" type="curve" smooth="yes"/>
      <point x="572" y="538"/>
      <point x="502" y="567"/>
      <point x="427" y="567" type="curve" smooth="yes"/>
      <point x="243" y="567"/>
      <point x="77" y="404"/>
      <point x="77" y="223" type="curve" smooth="yes"/>
      <point x="77" y="109"/>
      <point x="149" y="21"/>
      <point x="264" y="-7" type="curve"/>
      <point x="212" y="-107" type="line"/>
      <point x="260" y="-133" type="line"/>
      <point x="274" y="-114"/>
      <point x="287" y="-106"/>
      <point x="304" y="-106" type="curve" smooth="yes"/>
      <point x="321" y="-106"/>
      <point x="335" y="-119"/>
      <point x="335" y="-137" type="curve" smooth="yes"/>
      <point x="335" y="-167"/>
      <point x="312" y="-195"/>
      <point x="287" y="-195" type="curve" smooth="yes"/>
      <point x="270" y="-195"/>
      <point x="260" y="-188"/>
      <point x="255" y="-172" type="curve" smooth="yes"/>
      <point x="253" y="-166" type="line"/>
      <point x="193" y="-166" type="line"/>
      <point x="192" y="-169"/>
      <point x="192" y="-171"/>
      <point x="192" y="-172" type="curve" smooth="yes"/>
      <point x="192" y="-219"/>
      <point x="229" y="-251"/>
      <point x="284" y="-251" type="curve" smooth="yes"/>
      <point x="321" y="-251"/>
      <point x="348" y="-238"/>
      <point x="368" y="-209" type="curve" smooth="yes"/>
      <point x="385" y="-185"/>
      <point x="395" y="-154"/>
      <point x="395" y="-127" type="curve" smooth="yes"/>
      <point x="395" y="-84"/>
      <point x="362" y="-51"/>
      <point x="319" y="-51" type="curve" smooth="yes"/>
      <point x="309" y="-51"/>
      <point x="302" y="-53"/>
      <point x="288" y="-58" type="curve"/>
    </contour>
  </outline>
</glyph>
<glyph name="igrave" format="1">
  <advance width="240"/>
  <unicode hex="00EC"/>
  <outline>
    <contour>
      <point x="54" y="0" type="line"/>
      <point x="187" y="0" type="line"/>
      <point x="290" y="554" type="line"/>
      <point x="157" y="554" type="line"/>
    </contour>
    <contour>
      <point x="121" y="741" type="line"/>
      <point x="327" y="617" type="line"/>
      <point x="394" y="702" type="line"/>
      <point x="191" y="832" type="line"/>
    </contour>
  </outline>
</glyph>
<glyph name="iacute" format="1">
  <advance width="240"/>
  <unicode hex="00ED"/>
  <outline>
    <contour>
      <point x="54" y="0" type="line"/>
      <point x="187" y="0" type="line"/>
      <point x="290" y="554" type="line"/>
      <point x="157" y="554" type="line"/>
    </contour>
    <contour>
      <point x="155" y="617" type="line"/>
      <point x="398" y="733" type="line"/>
      <point x="351" y="832" type="line"/>
      <point x="115" y="705" type="line"/>
    </contour>
  </outline>
</glyph>
<glyph name="icircumflex" format="1">
  <advance width="240"/>
  <unicode hex="00EE"/>
  <outline>
    <contour>
      <point x="54" y="0" type="line"/>
      <point x="187" y="0" type="line"/>
      <point x="290" y="554" type="line"/>
      <point x="157" y="554" type="line"/>
    </contour>
    <contour>
      <point x="39" y="630" type="line"/>
      <point x="186" y="630" type="line"/>
      <point x="252" y="694" type="line"/>
      <point x="293" y="630" type="line"/>
      <point x="438" y="630" type="line"/>
      <point x="319" y="768" type="line"/>
      <point x="212" y="768" type="line"/>
    </contour>
  </outline>
</glyph>
<glyph name="idieresis" format="1">
  <advance width="240"/>
  <unicode hex="00EF"/>
  <outline>
    <contour>
      <point x="54" y="0" type="line"/>
      <point x="187" y="0" type="line"/>
      <point x="290" y="554" type="line"/>
      <point x="157" y="554" type="line"/>
    </contour>
    <contour>
      <point x="59" y="630" type="line"/>
      <point x="192" y="630" type="line"/>
      <point x="217" y="762" type="line"/>
      <point x="84" y="762" type="line"/>
    </contour>
    <contour>
      <point x="269" y="630" type="line"/>
      <point x="402" y="630" type="line"/>
      <point x="427" y="762" type="line"/>
      <point x="294" y="762" type="line"/>
    </contour>
  </outline>
</glyph>
<glyph name="eth" format="1">
  <advance width="640"/>
  <unicode hex="00F0"/>
  <outline>
    <contour>
      <point x="305" y="709" type="line"/>
      <point x="313" y="703"/>
      <point x="320" y="698"/>
      <point x="321" y="696" type="curve"/>
      <point x="334" y="686"/>
      <point x="343" y="679"/>
      <point x="345" y="678" type="curve"/>
      <point x="361" y="663" type="line"/>
      <point x="286" y="633" type="line"/>
      <point x="320" y="585" type="line"/>
      <point x="405" y="618" type="line"/>
      <point x="434" y="593"/>
      <point x="448" y="578"/>
      <point x="480" y="540" type="curve"/>
      <point x="448" y="552"/>
      <point x="432" y="556"/>
      <point x="410" y="556" type="curve" smooth="yes"/>
      <point x="236" y="556"/>
      <point x="76" y="399"/>
      <point x="76" y="229" type="curve" smooth="yes"/>
      <point x="76" y="88"/>
      <point x="179" y="-13"/>
      <point x="324" y="-13" type="curve" smooth="yes"/>
      <point x="512" y="-13"/>
      <point x="680" y="155"/>
      <point x="680" y="343" type="curve" smooth="yes"/>
      <point x="680" y="453"/>
      <point x="620" y="566"/>
      <point x="512" y="659" type="curve"/>
      <point x="599" y="695" type="line"/>
      <point x="557" y="739" type="line"/>
      <point x="465" y="702" type="line"/>
      <point x="443" y="723"/>
      <point x="441" y="725"/>
      <point x="398" y="757" type="curve"/>
    </contour>
    <contour>
      <point x="411" y="445" type="curve" smooth="yes"/>
      <point x="487" y="445"/>
      <point x="543" y="387"/>
      <point x="543" y="309" type="curve" smooth="yes"/>
      <point x="543" y="206"/>
      <point x="449" y="109"/>
      <point x="348" y="109" type="curve" smooth="yes"/>
      <point x="270" y="109"/>
      <point x="213" y="166"/>
      <point x="213" y="243" type="curve" smooth="yes"/>
      <point x="213" y="349"/>
      <point x="307" y="445"/>
    </contour>
  </outline>
</glyph>
<glyph name="ntilde" format="1">
  <advance width="600"/>
  <unicode hex="00F1"/>
  <outline>
    <contour>
      <point x="54" y="0" type="line"/>
      <point x="187" y="0" type="line"/>
      <point x="235" y="261" type="line" smooth="yes"/>
      <point x="248" y="333"/>
      <point x="261" y="368"/>
      <point x="282" y="394" type="curve" smooth="yes"/>
      <point x="311" y="428"/>
      <point x="347" y="445"/>
      <point x="388" y="445" type="curve" smooth="yes"/>
      <point x="443" y="445"/>
      <point x="472" y="417"/>
      <point x="472" y="363" type="curve" smooth="yes"/>
      <point x="472" y="334"/>
      <point x="469" y="304"/>
      <point x="463" y="271" type="curve" smooth="yes"/>
      <point x="413" y="0" type="line"/>
      <point x="546" y="0" type="line"/>
      <point x="601" y="297" type="line" smooth="yes"/>
      <point x="609" y="341"/>
      <point x="613" y="375"/>
      <point x="613" y="403" type="curve" smooth="yes"/>
      <point x="613" y="509"/>
      <point x="549" y="567"/>
      <point x="435" y="567" type="curve" smooth="yes"/>
      <point x="374" y="567"/>
      <point x="331" y="550"/>
      <point x="270" y="501" type="curve"/>
      <point x="280" y="554" type="line"/>
      <point x="157" y="554" type="line"/>
    </contour>
    <contour>
      <point x="291" y="632" type="line"/>
      <point x="318" y="655"/>
      <point x="331" y="662"/>
      <point x="346" y="662" type="curve" smooth="yes"/>
      <point x="357" y="662"/>
      <point x="375" y="657"/>
      <point x="405" y="646" type="curve" smooth="yes"/>
      <point x="441" y="633"/>
      <point x="450" y="631"/>
      <point x="467" y="631" type="curve" smooth="yes"/>
      <point x="511" y="631"/>
      <point x="544" y="648"/>
      <point x="575" y="687" type="curve"/>
      <point x="541" y="769" type="line"/>
      <point x="495" y="737"/>
      <point x="488" y="734"/>
      <point x="460" y="734" type="curve" smooth="yes"/>
      <point x="443" y="734"/>
      <point x="437" y="736"/>
      <point x="410" y="748" type="curve" smooth="yes"/>
      <point x="386" y="758"/>
      <point x="363" y="765"/>
      <point x="350" y="765" type="curve" smooth="yes"/>
      <point x="320" y="765"/>
      <point x="280" y="745"/>
      <point x="253" y="717" type="curve"/>
    </contour>
  </outline>
</glyph>
<glyph name="otilde" format="1">
  <advance width="640"/>
  <unicode hex="00F5"/>
  <outline>
    <contour>
      <point x="431" y="567" type="curve" smooth="yes"/>
      <point x="243" y="567"/>
      <point x="76" y="404"/>
      <point x="76" y="221" type="curve" smooth="yes"/>
      <point x="76" y="88"/>
      <point x="181" y="-13"/>
      <point x="318" y="-13" type="curve" smooth="yes"/>
      <point x="506" y="-13"/>
      <point x="675" y="148"/>
      <point x="675" y="327" type="curve" smooth="yes"/>
      <point x="675" y="466"/>
      <point x="573" y="567"/>
    </contour>
    <contour>
      <point x="408" y="445" type="curve" smooth="yes"/>
      <point x="483" y="445"/>
      <point x="538" y="387"/>
      <point x="538" y="309" type="curve" smooth="yes"/>
      <point x="538" y="206"/>
      <point x="445" y="109"/>
      <point x="345" y="109" type="curve" smooth="yes"/>
      <point x="269" y="109"/>
      <point x="213" y="166"/>
      <point x="213" y="244" type="curve" smooth="yes"/>
      <point x="213" y="349"/>
      <point x="306" y="445"/>
    </contour>
    <contour>
      <point x="333" y="632" type="line"/>
      <point x="360" y="655"/>
      <point x="373" y="662"/>
      <point x="388" y="662" type="curve" smooth="yes"/>
      <point x="399" y="662"/>
      <point x="417" y="657"/>
      <point x="447" y="646" type="curve" smooth="yes"/>
      <point x="483" y="633"/>
      <point x="492" y="631"/>
      <point x="509" y="631" type="curve" smooth="yes"/>
      <point x="553" y="631"/>
      <point x="586" y="648"/>
      <point x="617" y="687" type="curve"/>
      <point x="583" y="769" type="line"/>
      <point x="537" y="737"/>
      <point x="530" y="734"/>
      <point x="502" y="734" type="curve" smooth="yes"/>
      <point x="485" y="734"/>
      <point x="479" y="736"/>
      <point x="452" y="748" type="curve" smooth="yes"/>
      <point x="428" y="758"/>
      <point x="405" y="765"/>
      <point x="392" y="765" type="curve" smooth="yes"/>
      <point x="362" y="765"/>
      <point x="322" y="745"/>
      <point x="295" y="717" type="curve"/>
    </contour>
  </outline>
</glyph>
<glyph name="odieresis" format="1">
  <advance width="640"/>
  <unicode hex="00F6"/>
  <outline>
    <contour>
      <point x="431" y="567" type="curve" smooth="yes"/>
      <point x="243" y="567"/>
      <point x="76" y="404"/>
      <point x="76" y="221" type="curve" smooth="yes"/>
      <point x="76" y="88"/>
      <point x="181" y="-13"/>
      <point x="318" y="-13" type="curve" smooth="yes"/>
      <point x="506" y="-13"/>
      <point x="675" y="148"/>
      <point x="675" y="327" type="curve" smooth="yes"/>
      <point x="675" y="466"/>
      <point x="573" y="567"/>
    </contour>
    <contour>
      <point x="408" y="445" type="curve" smooth="yes"/>
      <point x="483" y="445"/>
      <point x="538" y="387"/>
      <point x="538" y="309" type="curve" smooth="yes"/>
      <point x="538" y="206"/>
      <point x="445" y="109"/>
      <point x="345" y="109" type="curve" smooth="yes"/>
      <point x="269" y="109"/>
      <point x="213" y="166"/>
      <point x="213" y="244" type="curve" smooth="yes"/>
      <point x="213" y="349"/>
      <point x="306" y="445"/>
    </contour>
    <contour>
      <point x="272" y="630" type="line"/>
      <point x="405" y="630" type="line"/>
      <point x="430" y="762" type="line"/>
      <point x="297" y="762" type="line"/>
    </contour>
    <contour>
      <point x="482" y="630" type="line"/>
      <point x="615" y="630" type="line"/>
      <point x="640" y="762" type="line"/>
      <point x="507" y="762" type="line"/>
    </contour>
  </outline>
</glyph>
<glyph name="divide" format="1">
  <advance width="600"/>
  <unicode hex="00F7"/>
  <outline>
    <contour>
      <point x="461" y="538" type="line"/>
      <point x="485" y="669" type="line"/>
      <point x="350" y="669" type="line"/>
      <point x="326" y="538" type="line"/>
    </contour>
    <contour>
      <point x="375" y="73" type="line"/>
      <point x="399" y="204" type="line"/>
      <point x="264" y="204" type="line"/>
      <point x="240" y="73" type="line"/>
    </contour>
    <contour>
      <point x="625" y="430" type="line"/>
      <point x="122" y="430" type="line"/>
      <point x="100" y="312" type="line"/>
      <point x="603" y="312" type="line"/>
    </contour>
  </outline>
</glyph>
<glyph name="oslash" format="1">
  <advance width="660"/>
  <unicode hex="00F8"/>
  <outline>
    <contour>
      <point x="680" y="558" type="line"/>
      <point x="607" y="620" type="line"/>
      <point x="542" y="544" type="line"/>
      <point x="507" y="560"/>
      <point x="476" y="567"/>
      <point x="433" y="567" type="curve" smooth="yes"/>
      <point x="246" y="567"/>
      <point x="79" y="404"/>
      <point x="79" y="221" type="curve" smooth="yes"/>
      <point x="79" y="163"/>
      <point x="96" y="118"/>
      <point x="136" y="68" type="curve"/>
      <point x="76" y="-2" type="line"/>
      <point x="149" y="-64" type="line"/>
      <point x="212" y="11" type="line"/>
      <point x="252" y="-6"/>
      <point x="285" y="-13"/>
      <point x="326" y="-13" type="curve" smooth="yes"/>
      <point x="508" y="-13"/>
      <point x="678" y="152"/>
      <point x="678" y="328" type="curve" smooth="yes"/>
      <point x="678" y="387"/>
      <point x="658" y="442"/>
      <point x="620" y="487" type="curve"/>
    </contour>
    <contour>
      <point x="525" y="377" type="line"/>
      <point x="537" y="360"/>
      <point x="541" y="342"/>
      <point x="541" y="308" type="curve" smooth="yes"/>
      <point x="541" y="263"/>
      <point x="528" y="228"/>
      <point x="497" y="187" type="curve" smooth="yes"/>
      <point x="457" y="136"/>
      <point x="403" y="109"/>
      <point x="344" y="109" type="curve" smooth="yes"/>
      <point x="327" y="109"/>
      <point x="319" y="110"/>
      <point x="303" y="116" type="curve"/>
    </contour>
    <contour>
      <point x="230" y="178" type="line"/>
      <point x="219" y="204"/>
      <point x="216" y="219"/>
      <point x="216" y="243" type="curve" smooth="yes"/>
      <point x="216" y="347"/>
      <point x="309" y="445"/>
      <point x="408" y="445" type="curve" smooth="yes"/>
      <point x="422" y="445"/>
      <point x="433" y="443"/>
      <point x="453" y="438" type="curve"/>
    </contour>
  </outline>
</glyph>
<glyph name="udieresis" format="1">
  <advance width="600"/>
  <unicode hex="00FC"/>
  <outline>
    <contour>
      <point x="650" y="554" type="line"/>
      <point x="517" y="554" type="line"/>
      <point x="469" y="293" type="line" smooth="yes"/>
      <point x="456" y="224"/>
      <point x="443" y="184"/>
      <point x="423" y="160" type="curve" smooth="yes"/>
      <point x="397" y="127"/>
      <point x="356" y="109"/>
      <point x="310" y="109" type="curve" smooth="yes"/>
      <point x="259" y="109"/>
      <point x="228" y="138"/>
      <point x="228" y="187" type="curve" smooth="yes"/>
      <point x="228" y="214"/>
      <point x="231" y="248"/>
      <point x="238" y="283" type="curve" smooth="yes"/>
      <point x="288" y="554" type="line"/>
      <point x="155" y="554" type="line"/>
      <point x="100" y="257" type="line" smooth="yes"/>
      <point x="92" y="214"/>
      <point x="88" y="178"/>
      <point x="88" y="152" type="curve" smooth="yes"/>
      <point x="88" y="109"/>
      <point x="108" y="59"/>
      <point x="135" y="31" type="curve" smooth="yes"/>
      <point x="163" y="3"/>
      <point x="207" y="-13"/>
      <point x="260" y="-13" type="curve" smooth="yes"/>
      <point x="328" y="-13"/>
      <point x="377" y="6"/>
      <point x="434" y="53" type="curve"/>
      <point x="424" y="0" type="line"/>
      <point x="547" y="0" type="line"/>
    </contour>
    <contour>
      <point x="242" y="630" type="line"/>
      <point x="375" y="630" type="line"/>
      <point x="400" y="762" type="line"/>
      <point x="267" y="762" type="line"/>
    </contour>
    <contour>
      <point x="452" y="630" type="line"/>
      <point x="585" y="630" type="line"/>
      <point x="610" y="762" type="line"/>
      <point x="477" y="762" type="line"/>
    </contour>
  </outline>
</glyph>
<glyph name="yacute" format="1">
  <advance width="580"/>
  <unicode hex="00FD"/>
  <outline>
    <contour>
      <point x="73" y="-185" type="line"/>
      <point x="216" y="-185" type="line"/>
      <point x="671" y="554" type="line"/>
      <point x="518" y="554" type="line"/>
      <point x="317" y="195" type="line"/>
      <point x="261" y="554" type="line"/>
      <point x="109" y="554" type="line"/>
      <point x="219" y="52" type="line"/>
    </contour>
    <contour>
      <point x="325" y="617" type="line"/>
      <point x="568" y="733" type="line"/>
      <point x="521" y="832" type="line"/>
      <point x="285" y="705" type="line"/>
    </contour>
  </outline>
</glyph>
<glyph name="ydieresis" format="1">
  <advance width="580"/>
  <unicode hex="00FF"/>
  <outline>
    <contour>
      <point x="73" y="-185" type="line"/>
      <point x="216" y="-185" type="line"/>
      <point x="671" y="554" type="line"/>
      <point x="518" y="554" type="line"/>
      <point x="317" y="195" type="line"/>
      <point x="261" y="554" type="line"/>
      <point x="109" y="554" type="line"/>
      <point x="219" y="52" type="line"/>
    </contour>
    <contour>
      <point x="228" y="630" type="line"/>
      <point x="361" y="630" type="line"/>
      <point x="386" y="762" type="line"/>
      <point x="253" y="762" type="line"/>
    </contour>
    <contour>
      <point x="438" y="630" type="line"/>
      <point x="571" y="630" type="line"/>
      <point x="596" y="762" type="line"/>
      <point x="463" y="762" type="line"/>
    </contour>
  </outline>
</glyph>
<glyph name="Amacron" format="1">
  <advance width="740"/>
  <unicode hex="0100"/>
  <outline>
    <contour>
      <point x="7" y="0" type="line"/>
      <point x="158" y="0" type="line"/>
      <point x="275" y="191" type="line"/>
      <point x="538" y="191" type="line"/>
      <point x="582" y="0" type="line"/>
      <point x="733" y="0" type="line"/>
      <point x="560" y="739" type="line"/>
      <point x="452" y="739" type="line"/>
    </contour>
    <contour>
      <point x="350" y="323" type="line"/>
      <point x="470" y="546" type="line"/>
      <point x="508" y="323" type="line"/>
    </contour>
    <contour>
      <point x="369" y="825" type="line"/>
      <point x="648" y="825" type="line"/>
      <point x="666" y="924" type="line"/>
      <point x="386" y="924" type="line"/>
    </contour>
  </outline>
</glyph>
<glyph name="Abreve" format="1">
  <advance width="740"/>
  <unicode hex="0102"/>
  <outline>
    <contour>
      <point x="7" y="0" type="line"/>
      <point x="158" y="0" type="line"/>
      <point x="275" y="191" type="line"/>
      <point x="538" y="191" type="line"/>
      <point x="582" y="0" type="line"/>
      <point x="733" y="0" type="line"/>
      <point x="560" y="739" type="line"/>
      <point x="452" y="739" type="line"/>
    </contour>
    <contour>
      <point x="350" y="323" type="line"/>
      <point x="470" y="546" type="line"/>
      <point x="508" y="323" type="line"/>
    </contour>
    <contour>
      <point x="372" y="941" type="line"/>
      <point x="371" y="932"/>
      <point x="371" y="926"/>
      <point x="371" y="922" type="curve" smooth="yes"/>
      <point x="371" y="849"/>
      <point x="425" y="805"/>
      <point x="514" y="805" type="curve" smooth="yes"/>
      <point x="605" y="805"/>
      <point x="682" y="860"/>
      <point x="701" y="941" type="curve"/>
      <point x="602" y="941" type="line"/>
      <point x="586" y="912"/>
      <point x="563" y="899"/>
      <point x="530" y="899" type="curve" smooth="yes"/>
      <point x="496" y="899"/>
      <point x="476" y="913"/>
      <point x="470" y="941" type="curve"/>
    </contour>
  </outline>
</glyph>
<glyph name="Aogonek" format="1">
  <advance width="740"/>
  <unicode hex="0104"/>
  <outline>
    <contour>
      <point x="560" y="739" type="line"/>
      <point x="452" y="739" type="line"/>
      <point x="7" y="0" type="line"/>
      <point x="158" y="0" type="line"/>
      <point x="275" y="191" type="line"/>
      <point x="538" y="191" type="line"/>
      <point x="582" y="0" type="line"/>
      <point x="663" y="0" type="line"/>
      <point x="633" y="-16"/>
      <point x="633" y="-16"/>
      <point x="625" y="-21" type="curve" smooth="yes"/>
      <point x="575" y="-51"/>
      <point x="555" y="-81"/>
      <point x="555" y="-122" type="curve" smooth="yes"/>
      <point x="555" y="-173"/>
      <point x="590" y="-204"/>
      <point x="649" y="-204" type="curve" smooth="yes"/>
      <point x="675" y="-204"/>
      <point x="692" y="-201"/>
      <point x="723" y="-190" type="curve"/>
      <point x="738" y="-113" type="line"/>
      <point x="715" y="-121"/>
      <point x="704" y="-124"/>
      <point x="690" y="-124" type="curve" smooth="yes"/>
      <point x="665" y="-124"/>
      <point x="651" y="-113"/>
      <point x="651" y="-92" type="curve" smooth="yes"/>
      <point x="651" y="-60"/>
      <point x="674" y="-34"/>
      <point x="733" y="0" type="curve"/>
    </contour>
    <contour>
      <point x="350" y="323" type="line"/>
      <point x="470" y="546" type="line"/>
      <point x="508" y="323" type="line"/>
    </contour>
  </outline>
</glyph>
<glyph name="aogonek" format="1">
  <advance width="660"/>
  <unicode hex="0105"/>
  <outline>
    <contour>
      <point x="718" y="554" type="line"/>
      <point x="596" y="554" type="line"/>
      <point x="583" y="480" type="line"/>
      <point x="551" y="539"/>
      <point x="498" y="567"/>
      <point x="420" y="567" type="curve" smooth="yes"/>
      <point x="232" y="567"/>
      <point x="75" y="406"/>
      <point x="75" y="213" type="curve" smooth="yes"/>
      <point x="75" y="77"/>
      <point x="167" y="-13"/>
      <point x="307" y="-13" type="curve" smooth="yes"/>
      <point x="385" y="-13"/>
      <point x="445" y="13"/>
      <point x="507" y="72" type="curve"/>
      <point x="494" y="0" type="line"/>
      <point x="546" y="0" type="line"/>
      <point x="462" y="-45"/>
      <point x="438" y="-71"/>
      <point x="438" y="-122" type="curve" smooth="yes"/>
      <point x="438" y="-172"/>
      <point x="474" y="-204"/>
      <point x="532" y="-204" type="curve" smooth="yes"/>
      <point x="557" y="-204"/>
      <point x="574" y="-201"/>
      <point x="606" y="-190" type="curve"/>
      <point x="621" y="-113" type="line"/>
      <point x="598" y="-122"/>
      <point x="587" y="-124"/>
      <point x="572" y="-124" type="curve" smooth="yes"/>
      <point x="548" y="-124"/>
      <point x="534" y="-112"/>
      <point x="534" y="-92" type="curve" smooth="yes"/>
      <point x="534" y="-60"/>
      <point x="557" y="-34"/>
      <point x="616" y="0" type="curve"/>
    </contour>
    <contour>
      <point x="410" y="445" type="curve" smooth="yes"/>
      <point x="492" y="445"/>
      <point x="544" y="394"/>
      <point x="544" y="313" type="curve" smooth="yes"/>
      <point x="544" y="271"/>
      <point x="530" y="226"/>
      <point x="507" y="191" type="curve" smooth="yes"/>
      <point x="469" y="137"/>
      <point x="416" y="109"/>
      <point x="347" y="109" type="curve" smooth="yes"/>
      <point x="265" y="109"/>
      <point x="212" y="160"/>
      <point x="212" y="240" type="curve" smooth="yes"/>
      <point x="212" y="350"/>
      <point x="304" y="445"/>
    </contour>
  </outline>
</glyph>
<glyph name="cacute" format="1">
  <advance width="640"/>
  <unicode hex="0107"/>
  <outline>
    <contour>
      <point x="485" y="182" type="line"/>
      <point x="451" y="136"/>
      <point x="399" y="109"/>
      <point x="345" y="109" type="curve" smooth="yes"/>
      <point x="266" y="109"/>
      <point x="214" y="163"/>
      <point x="214" y="245" type="curve" smooth="yes"/>
      <point x="214" y="354"/>
      <point x="302" y="445"/>
      <point x="407" y="445" type="curve" smooth="yes"/>
      <point x="465" y="445"/>
      <point x="505" y="418"/>
      <point x="520" y="369" type="curve"/>
      <point x="670" y="369" type="line"/>
      <point x="660" y="428"/>
      <point x="647" y="457"/>
      <point x="617" y="489" type="curve" smooth="yes"/>
      <point x="572" y="538"/>
      <point x="502" y="567"/>
      <point x="427" y="567" type="curve" smooth="yes"/>
      <point x="243" y="567"/>
      <point x="77" y="404"/>
      <point x="77" y="223" type="curve" smooth="yes"/>
      <point x="77" y="88"/>
      <point x="182" y="-13"/>
      <point x="324" y="-13" type="curve" smooth="yes"/>
      <point x="453" y="-13"/>
      <point x="564" y="57"/>
      <point x="635" y="182" type="curve"/>
    </contour>
    <contour>
      <point x="355" y="617" type="line"/>
      <point x="598" y="733" type="line"/>
      <point x="551" y="832" type="line"/>
      <point x="315" y="705" type="line"/>
    </contour>
  </outline>
</glyph>
<glyph name="Dcroat" format="1">
  <advance width="742"/>
  <unicode hex="0110"/>
  <outline>
    <contour>
      <point x="108" y="0" type="line"/>
      <point x="280" y="0" type="line" smooth="yes"/>
      <point x="422" y="0"/>
      <point x="507" y="21"/>
      <point x="585" y="74" type="curve" smooth="yes"/>
      <point x="704" y="155"/>
      <point x="776" y="300"/>
      <point x="776" y="456" type="curve" smooth="yes"/>
      <point x="776" y="558"/>
      <point x="737" y="638"/>
      <point x="665" y="686" type="curve" smooth="yes"/>
      <point x="613" y="721"/>
      <point x="528" y="739"/>
      <point x="414" y="739" type="curve" smooth="yes"/>
      <point x="245" y="739" type="line"/>
      <point x="187" y="428" type="line"/>
      <point x="93" y="428" type="line"/>
      <point x="73" y="321" type="line"/>
      <point x="167" y="321" type="line"/>
    </contour>
    <contour>
      <point x="269" y="131" type="line"/>
      <point x="304" y="321" type="line"/>
      <point x="453" y="321" type="line"/>
      <point x="473" y="428" type="line"/>
      <point x="324" y="428" type="line"/>
      <point x="357" y="608" type="line"/>
      <point x="384" y="608" type="line" smooth="yes"/>
      <point x="472" y="608"/>
      <point x="517" y="600"/>
      <point x="556" y="578" type="curve" smooth="yes"/>
      <point x="607" y="549"/>
      <point x="636" y="493"/>
      <point x="636" y="424" type="curve" smooth="yes"/>
      <point x="636" y="347"/>
      <point x="603" y="265"/>
      <point x="551" y="212" type="curve" smooth="yes"/>
      <point x="496" y="155"/>
      <point x="422" y="131"/>
      <point x="299" y="131" type="curve" smooth="yes"/>
    </contour>
  </outline>
</glyph>
<glyph name="dcroat" format="1">
  <advance width="660"/>
  <unicode hex="0111"/>
  <outline>
    <contour>
      <point x="725" y="602" type="line"/>
      <point x="785" y="602" type="line"/>
      <point x="801" y="689" type="line"/>
      <point x="741" y="689" type="line"/>
      <point x="750" y="739" type="line"/>
      <point x="617" y="739" type="line"/>
      <point x="608" y="689" type="line"/>
      <point x="495" y="689" type="line"/>
      <point x="479" y="602" type="line"/>
      <point x="592" y="602" type="line"/>
      <point x="573" y="505" type="line"/>
      <point x="543" y="548"/>
      <point x="483" y="574"/>
      <point x="415" y="574" type="curve" smooth="yes"/>
      <point x="236" y="574"/>
      <point x="77" y="407"/>
      <point x="77" y="220" type="curve" smooth="yes"/>
      <point x="77" y="80"/>
      <point x="169" y="-13"/>
      <point x="306" y="-13" type="curve" smooth="yes"/>
      <point x="380" y="-13"/>
      <point x="442" y="13"/>
      <point x="505" y="72" type="curve"/>
      <point x="491" y="0" type="line"/>
      <point x="613" y="0" type="line"/>
    </contour>
    <contour>
      <point x="413" y="452" type="curve" smooth="yes"/>
      <point x="493" y="452"/>
      <point x="546" y="396"/>
      <point x="546" y="314" type="curve" smooth="yes"/>
      <point x="546" y="207"/>
      <point x="453" y="109"/>
      <point x="351" y="109" type="curve" smooth="yes"/>
      <point x="270" y="109"/>
      <point x="214" y="165"/>
      <point x="214" y="248" type="curve" smooth="yes"/>
      <point x="214" y="359"/>
      <point x="305" y="452"/>
    </contour>
  </outline>
</glyph>
<glyph name="Emacron" format="1">
  <advance width="520"/>
  <unicode hex="0112"/>
  <outline>
    <contour>
      <point x="68" y="0" type="line"/>
      <point x="465" y="0" type="line"/>
      <point x="489" y="132" type="line"/>
      <point x="229" y="132" type="line"/>
      <point x="261" y="303" type="line"/>
      <point x="510" y="303" type="line"/>
      <point x="534" y="435" type="line"/>
      <point x="285" y="435" type="line"/>
      <point x="318" y="607" type="line"/>
      <point x="578" y="607" type="line"/>
      <point x="602" y="739" type="line"/>
      <point x="205" y="739" type="line"/>
    </contour>
    <contour>
      <point x="279" y="825" type="line"/>
      <point x="558" y="825" type="line"/>
      <point x="576" y="924" type="line"/>
      <point x="296" y="924" type="line"/>
    </contour>
  </outline>
</glyph>
<glyph name="Eogonek" format="1">
  <advance width="520"/>
  <unicode hex="0118"/>
  <outline>
    <contour>
      <point x="602" y="739" type="line"/>
      <point x="205" y="739" type="line"/>
      <point x="68" y="0" type="line"/>
      <point x="395" y="0" type="line"/>
      <point x="365" y="-16"/>
      <point x="365" y="-16"/>
      <point x="357" y="-21" type="curve" smooth="yes"/>
      <point x="307" y="-51"/>
      <point x="287" y="-81"/>
      <point x="287" y="-122" type="curve" smooth="yes"/>
      <point x="287" y="-173"/>
      <point x="322" y="-204"/>
      <point x="381" y="-204" type="curve" smooth="yes"/>
      <point x="407" y="-204"/>
      <point x="424" y="-201"/>
      <point x="455" y="-190" type="curve"/>
      <point x="470" y="-113" type="line"/>
      <point x="447" y="-121"/>
      <point x="436" y="-124"/>
      <point x="422" y="-124" type="curve" smooth="yes"/>
      <point x="397" y="-124"/>
      <point x="383" y="-113"/>
      <point x="383" y="-92" type="curve" smooth="yes"/>
      <point x="383" y="-60"/>
      <point x="406" y="-34"/>
      <point x="465" y="0" type="curve"/>
      <point x="489" y="132" type="line"/>
      <point x="229" y="132" type="line"/>
      <point x="261" y="303" type="line"/>
      <point x="510" y="303" type="line"/>
      <point x="534" y="435" type="line"/>
      <point x="285" y="435" type="line"/>
      <point x="318" y="607" type="line"/>
      <point x="578" y="607" type="line"/>
    </contour>
  </outline>
</glyph>
<glyph name="eogonek" format="1">
  <advance width="640"/>
  <unicode hex="0119"/>
  <outline>
    <contour>
      <point x="645" y="218" type="line"/>
      <point x="658" y="249"/>
      <point x="665" y="294"/>
      <point x="665" y="342" type="curve" smooth="yes"/>
      <point x="665" y="474"/>
      <point x="567" y="567"/>
      <point x="428" y="567" type="curve" smooth="yes"/>
      <point x="243" y="567"/>
      <point x="76" y="404"/>
      <point x="76" y="223" type="curve" smooth="yes"/>
      <point x="76" y="84"/>
      <point x="179" y="-13"/>
      <point x="328" y="-13" type="curve" smooth="yes"/>
      <point x="352" y="-13"/>
      <point x="371" y="-11"/>
      <point x="400" y="-6" type="curve"/>
      <point x="326" y="-45"/>
      <point x="302" y="-74"/>
      <point x="302" y="-122" type="curve" smooth="yes"/>
      <point x="302" y="-172"/>
      <point x="338" y="-204"/>
      <point x="396" y="-204" type="curve" smooth="yes"/>
      <point x="421" y="-204"/>
      <point x="438" y="-201"/>
      <point x="470" y="-190" type="curve"/>
      <point x="485" y="-113" type="line"/>
      <point x="462" y="-122"/>
      <point x="451" y="-124"/>
      <point x="436" y="-124" type="curve" smooth="yes"/>
      <point x="412" y="-124"/>
      <point x="398" y="-112"/>
      <point x="398" y="-92" type="curve" smooth="yes"/>
      <point x="398" y="-63"/>
      <point x="405" y="-55"/>
      <point x="480" y="8" type="curve" smooth="yes"/>
      <point x="564" y="78"/>
      <point x="600" y="117"/>
      <point x="626" y="164" type="curve"/>
      <point x="481" y="164" type="line"/>
      <point x="443" y="126"/>
      <point x="402" y="109"/>
      <point x="346" y="109" type="curve" smooth="yes"/>
      <point x="270" y="109"/>
      <point x="216" y="154"/>
      <point x="216" y="218" type="curve"/>
    </contour>
    <contour>
      <point x="234" y="336" type="line"/>
      <point x="260" y="401"/>
      <point x="330" y="445"/>
      <point x="407" y="445" type="curve" smooth="yes"/>
      <point x="492" y="445"/>
      <point x="537" y="408"/>
      <point x="541" y="336" type="curve"/>
    </contour>
  </outline>
</glyph>
<glyph name="Ecaron" format="1">
  <advance width="520"/>
  <unicode hex="011A"/>
  <outline>
    <contour>
      <point x="68" y="0" type="line"/>
      <point x="465" y="0" type="line"/>
      <point x="489" y="132" type="line"/>
      <point x="229" y="132" type="line"/>
      <point x="261" y="303" type="line"/>
      <point x="510" y="303" type="line"/>
      <point x="534" y="435" type="line"/>
      <point x="285" y="435" type="line"/>
      <point x="318" y="607" type="line"/>
      <point x="578" y="607" type="line"/>
      <point x="602" y="739" type="line"/>
      <point x="205" y="739" type="line"/>
    </contour>
    <contour>
      <point x="234" y="943" type="line"/>
      <point x="355" y="805" type="line"/>
      <point x="462" y="805" type="line"/>
      <point x="633" y="943" type="line"/>
      <point x="488" y="943" type="line"/>
      <point x="423" y="879" type="line"/>
      <point x="381" y="943" type="line"/>
    </contour>
  </outline>
</glyph>
<glyph name="ecaron" format="1">
  <advance width="640"/>
  <unicode hex="011B"/>
  <outline>
    <contour>
      <point x="645" y="218" type="line"/>
      <point x="658" y="249"/>
      <point x="665" y="294"/>
      <point x="665" y="342" type="curve" smooth="yes"/>
      <point x="665" y="474"/>
      <point x="567" y="567"/>
      <point x="428" y="567" type="curve" smooth="yes"/>
      <point x="243" y="567"/>
      <point x="76" y="404"/>
      <point x="76" y="223" type="curve" smooth="yes"/>
      <point x="76" y="84"/>
      <point x="179" y="-13"/>
      <point x="327" y="-13" type="curve" smooth="yes"/>
      <point x="452" y="-13"/>
      <point x="566" y="54"/>
      <point x="626" y="164" type="curve"/>
      <point x="481" y="164" type="line"/>
      <point x="443" y="126"/>
      <point x="402" y="109"/>
      <point x="346" y="109" type="curve" smooth="yes"/>
      <point x="270" y="109"/>
      <point x="216" y="154"/>
      <point x="216" y="218" type="curve"/>
    </contour>
    <contour>
      <point x="234" y="336" type="line"/>
      <point x="260" y="401"/>
      <point x="330" y="445"/>
      <point x="407" y="445" type="curve" smooth="yes"/>
      <point x="492" y="445"/>
      <point x="537" y="408"/>
      <point x="541" y="336" type="curve"/>
    </contour>
    <contour>
      <point x="264" y="768" type="line"/>
      <point x="385" y="630" type="line"/>
      <point x="492" y="630" type="line"/>
      <point x="663" y="768" type="line"/>
      <point x="518" y="768" type="line"/>
      <point x="453" y="704" type="line"/>
      <point x="411" y="768" type="line"/>
    </contour>
  </outline>
</glyph>
<glyph name="hbar" format="1">
  <advance width="600"/>
  <unicode hex="0127"/>
  <outline>
    <contour>
      <point x="54" y="0" type="line"/>
      <point x="187" y="0" type="line"/>
      <point x="239" y="281" type="line" smooth="yes"/>
      <point x="249" y="336"/>
      <point x="261" y="369"/>
      <point x="278" y="393" type="curve" smooth="yes"/>
      <point x="304" y="427"/>
      <point x="342" y="446"/>
      <point x="386" y="446" type="curve" smooth="yes"/>
      <point x="441" y="446"/>
      <point x="473" y="416"/>
      <point x="473" y="364" type="curve" smooth="yes"/>
      <point x="473" y="343"/>
      <point x="470" y="315"/>
      <point x="464" y="283" type="curve" smooth="yes"/>
      <point x="412" y="0" type="line"/>
      <point x="545" y="0" type="line"/>
      <point x="603" y="313" type="line" smooth="yes"/>
      <point x="610" y="349"/>
      <point x="613" y="381"/>
      <point x="613" y="408" type="curve" smooth="yes"/>
      <point x="613" y="505"/>
      <point x="542" y="568"/>
      <point x="432" y="568" type="curve" smooth="yes"/>
      <point x="375" y="568"/>
      <point x="325" y="551"/>
      <point x="283" y="516" type="curve"/>
      <point x="324" y="739" type="line"/>
      <point x="191" y="739" type="line"/>
    </contour>
  </outline>
</glyph>
<glyph name="Imacron" format="1">
  <advance width="280"/>
  <unicode hex="012A"/>
  <outline>
    <contour>
      <point x="68" y="0" type="line"/>
      <point x="205" y="0" type="line"/>
      <point x="342" y="739" type="line"/>
      <point x="205" y="739" type="line"/>
    </contour>
    <contour>
      <point x="139" y="825" type="line"/>
      <point x="418" y="825" type="line"/>
      <point x="436" y="924" type="line"/>
      <point x="156" y="924" type="line"/>
    </contour>
  </outline>
</glyph>
<glyph name="Iogonek" format="1">
  <advance width="280"/>
  <unicode hex="012E"/>
  <outline>
    <contour>
      <point x="342" y="739" type="line"/>
      <point x="205" y="739" type="line"/>
      <point x="68" y="0" type="line"/>
      <point x="135" y="0" type="line"/>
      <point x="105" y="-16"/>
      <point x="105" y="-16"/>
      <point x="97" y="-21" type="curve" smooth="yes"/>
      <point x="47" y="-51"/>
      <point x="27" y="-81"/>
      <point x="27" y="-122" type="curve" smooth="yes"/>
      <point x="27" y="-173"/>
      <point x="62" y="-204"/>
      <point x="121" y="-204" type="curve" smooth="yes"/>
      <point x="147" y="-204"/>
      <point x="164" y="-201"/>
      <point x="195" y="-190" type="curve"/>
      <point x="210" y="-113" type="line"/>
      <point x="187" y="-121"/>
      <point x="176" y="-124"/>
      <point x="162" y="-124" type="curve" smooth="yes"/>
      <point x="137" y="-124"/>
      <point x="123" y="-113"/>
      <point x="123" y="-92" type="curve" smooth="yes"/>
      <point x="123" y="-60"/>
      <point x="146" y="-34"/>
      <point x="205" y="0" type="curve"/>
    </contour>
  </outline>
</glyph>
<glyph name="iogonek" format="1">
  <advance width="240"/>
  <unicode hex="012F"/>
  <outline>
    <contour>
      <point x="290" y="554" type="line"/>
      <point x="157" y="554" type="line"/>
      <point x="54" y="0" type="line"/>
      <point x="117" y="0" type="line"/>
      <point x="33" y="-45"/>
      <point x="9" y="-71"/>
      <point x="9" y="-122" type="curve" smooth="yes"/>
      <point x="9" y="-172"/>
      <point x="45" y="-204"/>
      <point x="103" y="-204" type="curve" smooth="yes"/>
      <point x="128" y="-204"/>
      <point x="145" y="-201"/>
      <point x="177" y="-190" type="curve"/>
      <point x="192" y="-113" type="line"/>
      <point x="169" y="-122"/>
      <point x="158" y="-124"/>
      <point x="143" y="-124" type="curve" smooth="yes"/>
      <point x="119" y="-124"/>
      <point x="105" y="-112"/>
      <point x="105" y="-92" type="curve" smooth="yes"/>
      <point x="105" y="-60"/>
      <point x="128" y="-34"/>
      <point x="187" y="0" type="curve"/>
    </contour>
    <contour>
      <point x="168" y="614" type="line"/>
      <point x="301" y="614" type="line"/>
      <point x="324" y="739" type="line"/>
      <point x="191" y="739" type="line"/>
    </contour>
  </outline>
</glyph>
<glyph name="Idotaccent" format="1">
  <advance width="280"/>
  <unicode hex="0130"/>
  <outline>
    <contour>
      <point x="68" y="0" type="line"/>
      <point x="205" y="0" type="line"/>
      <point x="342" y="739" type="line"/>
      <point x="205" y="739" type="line"/>
    </contour>
    <contour>
      <point x="219" y="805" type="line"/>
      <point x="352" y="805" type="line"/>
      <point x="377" y="937" type="line"/>
      <point x="244" y="937" type="line"/>
    </contour>
  </outline>
</glyph>
<glyph name="dotlessi" format="1">
  <advance width="240"/>
  <unicode hex="0131"/>
  <outline>
    <contour>
      <point x="54" y="0" type="line"/>
      <point x="187" y="0" type="line"/>
      <point x="290" y="554" type="line"/>
      <point x="157" y="554" type="line"/>
    </contour>
  </outline>
</glyph>
<glyph name="IJ" format="1">
  <advance width="786"/>
  <unicode hex="0132"/>
  <outline>
    <contour>
      <point x="714" y="739" type="line"/>
      <point x="617" y="216" type="line" smooth="yes"/>
      <point x="605" y="150"/>
      <point x="578" y="119"/>
      <point x="533" y="119" type="curve" smooth="yes"/>
      <point x="500" y="119"/>
      <point x="483" y="134"/>
      <point x="478" y="168" type="curve" smooth="yes"/>
      <point x="477" y="175" type="line"/>
      <point x="340" y="175" type="line"/>
      <point x="339" y="161"/>
      <point x="338" y="149"/>
      <point x="338" y="140" type="curve" smooth="yes"/>
      <point x="338" y="50"/>
      <point x="410" y="-13"/>
      <point x="512" y="-13" type="curve" smooth="yes"/>
      <point x="578" y="-13"/>
      <point x="636" y="13"/>
      <point x="683" y="62" type="curve" smooth="yes"/>
      <point x="720" y="100"/>
      <point x="740" y="145"/>
      <point x="753" y="212" type="curve" smooth="yes"/>
      <point x="851" y="739" type="line"/>
    </contour>
    <contour>
      <point x="68" y="0" type="line"/>
      <point x="205" y="0" type="line"/>
      <point x="342" y="739" type="line"/>
      <point x="205" y="739" type="line"/>
    </contour>
  </outline>
</glyph>
<glyph name="ij" format="1">
  <advance width="452"/>
  <unicode hex="0133"/>
  <outline>
    <contour>
      <point x="371" y="554" type="line"/>
      <point x="276" y="40" type="line" smooth="yes"/>
      <point x="263" y="-34"/>
      <point x="253" y="-47"/>
      <point x="203" y="-56" type="curve"/>
      <point x="179" y="-185" type="line"/>
      <point x="301" y="-182"/>
      <point x="385" y="-101"/>
      <point x="408" y="37" type="curve" smooth="yes"/>
      <point x="504" y="554" type="line"/>
    </contour>
    <contour>
      <point x="382" y="614" type="line"/>
      <point x="515" y="614" type="line"/>
      <point x="538" y="739" type="line"/>
      <point x="405" y="739" type="line"/>
    </contour>
    <contour>
      <point x="54" y="0" type="line"/>
      <point x="187" y="0" type="line"/>
      <point x="290" y="554" type="line"/>
      <point x="157" y="554" type="line"/>
    </contour>
    <contour>
      <point x="168" y="614" type="line"/>
      <point x="301" y="614" type="line"/>
      <point x="324" y="739" type="line"/>
      <point x="191" y="739" type="line"/>
    </contour>
  </outline>
</glyph>
<glyph name="jcircumflex" format="1">
  <advance width="260"/>
  <unicode hex="0135"/>
  <outline>
    <contour>
      <point x="175" y="554" type="line"/>
      <point x="80" y="40" type="line" smooth="yes"/>
      <point x="67" y="-34"/>
      <point x="57" y="-47"/>
      <point x="7" y="-56" type="curve"/>
      <point x="-17" y="-185" type="line"/>
      <point x="105" y="-182"/>
      <point x="189" y="-101"/>
      <point x="212" y="37" type="curve" smooth="yes"/>
      <point x="308" y="554" type="line"/>
    </contour>
    <contour>
      <point x="67" y="684" type="line"/>
      <point x="214" y="684" type="line"/>
      <point x="280" y="748" type="line"/>
      <point x="321" y="684" type="line"/>
      <point x="466" y="684" type="line"/>
      <point x="347" y="822" type="line"/>
      <point x="240" y="822" type="line"/>
    </contour>
  </outline>
</glyph>
<glyph name="Kcommaaccent" format="1">
  <advance width="620"/>
  <unicode hex="0136"/>
  <outline>
    <contour>
      <point x="68" y="0" type="line"/>
      <point x="205" y="0" type="line"/>
      <point x="265" y="325" type="line"/>
      <point x="435" y="0" type="line"/>
      <point x="599" y="0" type="line"/>
      <point x="392" y="376" type="line"/>
      <point x="736" y="739" type="line"/>
      <point x="572" y="739" type="line"/>
      <point x="283" y="420" type="line"/>
      <point x="342" y="739" type="line"/>
      <point x="205" y="739" type="line"/>
    </contour>
    <contour>
      <point x="183" y="-245" type="line"/>
      <point x="287" y="-245" type="line"/>
      <point x="381" y="-53" type="line"/>
      <point x="276" y="-53" type="line"/>
    </contour>
  </outline>
</glyph>
<glyph name="kcommaaccent" format="1">
  <advance width="580"/>
  <unicode hex="0137"/>
  <outline>
    <contour>
      <point x="54" y="0" type="line"/>
      <point x="187" y="0" type="line"/>
      <point x="235" y="259" type="line"/>
      <point x="376" y="0" type="line"/>
      <point x="555" y="0" type="line"/>
      <point x="377" y="283" type="line"/>
      <point x="625" y="554" type="line"/>
      <point x="466" y="554" type="line"/>
      <point x="241" y="293" type="line"/>
      <point x="324" y="739" type="line"/>
      <point x="191" y="739" type="line"/>
    </contour>
    <contour>
      <point x="143" y="-245" type="line"/>
      <point x="247" y="-245" type="line"/>
      <point x="341" y="-53" type="line"/>
      <point x="236" y="-53" type="line"/>
    </contour>
  </outline>
</glyph>
<glyph name="Lacute" format="1">
  <advance width="440"/>
  <unicode hex="0139"/>
  <outline>
    <contour>
      <point x="68" y="0" type="line"/>
      <point x="432" y="0" type="line"/>
      <point x="456" y="132" type="line"/>
      <point x="229" y="132" type="line"/>
      <point x="342" y="739" type="line"/>
      <point x="205" y="739" type="line"/>
    </contour>
    <contour>
      <point x="255" y="792" type="line"/>
      <point x="498" y="908" type="line"/>
      <point x="451" y="1007" type="line"/>
      <point x="215" y="880" type="line"/>
    </contour>
  </outline>
</glyph>
